<svg width="300" height="90" viewBox="0 0 300 90" fill="none" xmlns="http://www.w3.org/2000/svg">
<path d="M97.6169 0.0332498C87.8385 0.748427 80.2706 4.03824 73.9511 10.3708C67.7875 16.5213 64.3157 24.2062 63.5355 33.3475C63.3144 35.9742 63.4445 40.8244 63.8085 43.191C64.2897 46.3897 65.0829 49.3025 66.2141 52.0331C69.1139 59.0289 74.8483 65.2314 81.805 68.8853C88.2676 72.2662 96.3946 73.6185 104.769 72.6953C114.664 71.59 122.778 66.9608 128.825 58.9639C133.532 52.7353 135.976 44.9334 135.976 36.0912C135.976 25.3635 132.505 16.3263 125.847 9.70765C120.438 4.33732 113.845 1.26856 105.601 0.280311C103.963 0.0852627 99.0473 -0.070776 97.6169 0.0332498ZM102.571 3.59613C111.114 4.42834 117.707 9.5256 122.115 18.6929C124.026 22.6719 125.145 26.8069 125.574 31.5271C125.808 34.0627 125.678 39.8231 125.34 42.0207C124.417 47.9111 122.531 52.9434 119.501 57.5465C116.238 62.5267 112.779 65.6865 108.514 67.598C105.627 68.8853 103.013 69.4185 99.4374 69.4185C95.0293 69.4315 91.7525 68.6253 88.3586 66.7138C81.688 62.9559 76.3827 54.9199 74.5362 45.7916C73.9121 42.7098 73.769 41.1104 73.769 37.1445C73.769 32.3203 74.1331 29.5506 75.3164 25.4415C77.592 17.5486 82.9753 10.0197 88.8528 6.50886C92.8187 4.14227 97.6429 3.11501 102.571 3.59613ZM0.508854 2.16578C-0.180317 2.46485 -0.167314 3.64815 0.53486 4.31131C1.094 4.83144 1.52311 4.96147 4.24078 5.41658C7.03647 5.8847 7.53059 6.10576 8.12874 7.107C8.59686 7.9002 8.85692 8.68039 9.169 10.2668C9.35105 11.216 9.37705 14.1287 9.41606 35.519C9.45507 52.3972 9.42907 60.1732 9.32504 61.2654C8.98696 65.0494 8.21977 66.7918 6.67238 67.2469C6.30829 67.3639 5.07299 67.598 3.9287 67.7801C1.53611 68.1441 0.93796 68.3392 0.404828 68.8853C0.0927505 69.2104 0.0277344 69.3924 0.0277344 69.9386C0.0277344 70.4847 0.0797473 70.6278 0.352815 70.8488C0.664892 71.1089 0.781921 71.1219 4.57886 71.0439C6.72439 70.9918 10.2353 70.8878 12.3808 70.8098C15.5406 70.6798 17.127 70.6928 20.7029 70.8358C26.4243 71.0699 32.8869 71.0699 34.6163 70.8488C44.8238 69.4835 51.4165 64.7503 53.588 57.2604C54.1862 55.2059 54.3682 53.7626 54.3682 51.1229C54.3812 48.9904 54.3422 48.4703 54.0821 47.287C53.3149 43.8671 51.8586 41.3055 49.2319 38.7569C46.7353 36.3383 43.5235 34.3878 39.3885 32.7754C37.9841 32.2292 37.8151 32.1252 38.0882 32.0212C39.3885 31.5011 42.2362 30.0057 43.1724 29.3425C44.6418 28.2763 46.5403 26.2998 47.3335 24.9734C48.5948 22.8539 49.2449 20.3053 49.2449 17.5096C49.2319 9.77266 45.0839 5.01348 36.6318 3.02399C33.0819 2.17878 30.0912 1.97073 23.9537 2.11377C18.0372 2.2568 10.0532 2.2698 4.77391 2.12677C2.23828 2.07476 0.703902 2.07476 0.508854 2.16578ZM28.7649 5.85869C36.4498 7.17202 40.1687 11.7231 39.8436 19.3951C39.7006 22.8669 38.7903 25.2985 36.9179 27.288C34.4603 29.8887 30.7804 31.215 24.7469 31.6831C22.1202 31.8911 19.7016 31.8521 19.0775 31.6051C18.1152 31.215 18.1672 31.9822 18.1672 19.2C18.1672 6.41783 18.1412 7.40608 18.8434 6.76892C19.3505 6.3008 20.1827 5.94972 21.249 5.74167C22.5493 5.4946 27.0614 5.57262 28.7649 5.85869ZM29.285 35.441C34.4083 36.1952 37.6331 37.5606 40.2467 40.0702C43.3155 42.9959 44.6938 46.8709 44.6938 52.5793C44.6938 57.2214 43.7446 60.4072 41.56 63.0209C38.9204 66.2067 34.0182 67.8841 28.0627 67.663C24.8379 67.546 23.0564 66.8828 21.275 65.1014C20.1437 63.9701 19.4676 62.8518 18.9344 61.2264C18.1932 58.9118 18.1672 58.3527 18.1672 46.7148C18.1672 36.2082 18.1672 36.1042 18.4273 35.8441C19.0905 35.181 19.9357 35.0639 23.9537 35.129C26.6063 35.168 27.9066 35.246 29.285 35.441ZM143.934 2.17878C143.037 2.43885 142.725 3.77818 143.414 4.45435C143.726 4.77943 144.403 4.93547 147.081 5.35157C148.655 5.58563 149.89 6.00173 150.826 6.59988C152.191 7.47109 153.271 9.08349 153.713 10.8779C154.194 12.8414 154.207 13.8817 154.064 33.9587C153.908 55.583 153.869 57.7286 153.583 59.8871C152.985 64.4382 150.917 66.9218 147.146 67.585C145.43 67.8971 144.962 68.0791 144.494 68.6383C144.194 68.9893 144.155 69.1454 144.207 69.6265C144.338 70.8488 144.871 70.9918 148.46 70.7838C151.359 70.6148 160.969 70.6148 165.689 70.7968C167.262 70.8488 168.732 70.8488 168.953 70.7968C169.512 70.6538 169.811 70.2767 169.876 69.6135C170.019 68.3912 169.33 67.8451 167.314 67.585C162.373 66.9478 159.889 64.7373 159.187 60.3422C158.81 58.0276 158.732 53.8406 158.745 34.2837V14.7139L159.408 15.4291C160.904 17.0415 169.59 27.223 183.178 43.321C197.157 59.8871 204.282 68.1051 207.754 71.655C209.9 73.8526 210.069 73.9826 210.498 73.7745C210.914 73.5665 211.343 72.6303 211.616 71.3169C211.811 70.3287 211.837 67.8321 211.915 42.6708C212.006 12.5033 211.954 14.4408 212.76 11.4241C213.437 8.87544 214.815 6.82093 216.427 5.97572C217.364 5.4686 217.884 5.33857 219.522 5.14352C221.018 4.97448 221.2 4.89646 221.538 4.33732C222.136 3.36208 221.72 2.28281 220.679 2.08776C220.393 2.03575 218.014 2.10076 215.361 2.23079C210.771 2.45185 210.238 2.45185 203.814 2.2438C197.599 2.04875 197.04 2.04875 196.623 2.2438C195.804 2.63389 195.687 4.05125 196.428 4.6754C196.949 5.10451 197.365 5.23454 198.847 5.41658C201.214 5.70266 202.8 6.36582 204.139 7.61413C205.596 8.97947 206.259 10.4228 206.675 13.1405C206.87 14.4408 206.896 16.6774 206.935 35.7791L206.974 56.9744L206.545 56.5063C204.074 53.7626 185.142 31.7871 177.652 22.9709C175.792 20.7864 172.62 17.1585 170.578 14.9089C164.792 8.49835 162.945 6.18378 161.086 2.97198L160.54 2.03575L152.452 2.04875C147.783 2.04875 144.181 2.11377 143.934 2.17878ZM228.195 2.16578C227.519 2.46485 227.519 3.68716 228.208 4.35032C228.767 4.89646 229.119 5.00048 231.147 5.29956C234.32 5.75467 235.191 6.09275 235.802 7.06799C236.283 7.83518 236.543 8.61538 236.842 10.2278C237.064 11.3851 237.077 13.0755 237.077 36.5593C237.077 60.0431 237.064 61.7465 236.842 62.9298C236.569 64.4642 236.205 65.5825 235.763 66.2977C235.204 67.1689 233.995 67.585 230.744 68.0141C229.08 68.2352 228.312 68.5212 227.948 69.0934C227.623 69.5745 227.649 70.4587 227.974 70.8228C228.148 71.0222 229.318 71.0959 231.485 71.0439C233.28 70.9918 236.088 70.9008 237.727 70.8098C241.212 70.6408 244.579 70.7188 251.055 71.1089C257.271 71.486 265.124 71.512 267.699 71.1739C274.305 70.2897 279.818 68.3392 284.577 65.1924C292.665 59.8481 297.607 52.6573 299.349 43.6851C299.882 40.9024 300.012 39.394 299.999 35.7141C299.999 32.1252 299.817 30.0707 299.284 27.327C296.423 12.7634 285.93 4.51936 267.699 2.50386C263.915 2.07476 261.08 1.99674 254.696 2.11377C247.115 2.2568 237.753 2.2698 232.46 2.12677C229.925 2.07476 228.39 2.07476 228.195 2.16578ZM256.841 5.41658C260.105 5.57262 262.667 5.83269 265.228 6.2748C279.805 8.78442 287.568 16.3783 289.505 29.9927C289.844 32.3723 289.844 40.0962 289.505 42.6058C288.478 50.1867 286.073 55.7781 281.977 60.1081C278.752 63.502 274.24 65.9856 269.233 67.1039C264.071 68.2612 257.895 68.3652 253.656 67.3639C249.117 66.2977 247.076 63.8661 246.153 58.4047C245.932 57.0524 245.919 55.7001 245.919 32.9834V8.99247L246.218 8.38132C247.05 6.7039 249.026 5.68965 251.952 5.41658C253.565 5.27355 253.825 5.27355 256.841 5.41658ZM53.536 80.2501C53.536 80.4192 53.0029 80.4452 49.505 80.4452C46.9044 80.4452 45.474 80.4972 45.474 80.5752C45.474 80.6402 45.565 80.7053 45.6691 80.7053C45.8381 80.7053 45.8641 81.2644 45.8641 84.9703C45.8641 88.1171 45.8251 89.2744 45.7081 89.3914C45.591 89.5084 46.4752 89.5474 49.687 89.5474C53.484 89.5474 53.8481 89.5604 54.0041 89.7685C54.1472 89.9766 54.1732 89.8465 54.1862 88.9233C54.1862 88.2341 54.1341 87.87 54.0561 87.922C53.9911 87.9611 53.9261 88.0911 53.9261 88.1951C53.9261 88.3512 53.406 88.3772 50.6103 88.3772H47.2945V85.5164H49.388C51.2344 85.5164 51.5075 85.5425 51.6635 85.7375C51.8066 85.9325 51.8326 85.8155 51.8326 84.8663C51.8326 83.917 51.8066 83.8 51.6635 83.9821C51.5075 84.1901 51.2344 84.2161 49.388 84.2161H47.2945V81.6155H50.4152C53.1069 81.6155 53.536 81.6415 53.536 81.8105C53.536 81.9146 53.601 82.0056 53.666 82.0056C53.7441 82.0056 53.7961 81.5895 53.7961 81.0303C53.7961 80.4712 53.7441 80.0551 53.666 80.0551C53.601 80.0551 53.536 80.1461 53.536 80.2501ZM82.5332 80.2501C82.5332 80.4192 82.0001 80.4452 78.5022 80.4452C75.9016 80.4452 74.4712 80.4972 74.4712 80.5752C74.4712 80.6402 74.5622 80.7053 74.6662 80.7053C74.8353 80.7053 74.8613 81.2644 74.8613 84.9703C74.8613 88.1171 74.8223 89.2744 74.7053 89.3914C74.5882 89.5084 75.4724 89.5474 78.6842 89.5474C82.4812 89.5474 82.8453 89.5604 83.0013 89.7685C83.1443 89.9766 83.1704 89.8465 83.1834 88.9233C83.1834 88.2341 83.1313 87.87 83.0533 87.922C82.9883 87.9611 82.9233 88.0911 82.9233 88.1951C82.9233 88.3512 82.4032 88.3772 79.6075 88.3772H76.2916V85.5164H78.3852C80.2316 85.5164 80.5047 85.5425 80.6607 85.7375C80.8038 85.9325 80.8298 85.8155 80.8298 84.8663C80.8298 83.917 80.8038 83.8 80.6607 83.9821C80.5047 84.1901 80.2316 84.2161 78.3852 84.2161H76.2916V81.6155H79.4124C82.1041 81.6155 82.5332 81.6415 82.5332 81.8105C82.5332 81.9146 82.5982 82.0056 82.6632 82.0056C82.7412 82.0056 82.7933 81.5895 82.7933 81.0303C82.7933 80.4712 82.7412 80.0551 82.6632 80.0551C82.5982 80.0551 82.5332 80.1461 82.5332 80.2501ZM116.472 80.2501C116.472 80.4192 115.938 80.4452 112.441 80.4452C108.943 80.4452 107.981 80.5102 108.605 80.7573C108.774 80.8223 108.8 81.4074 108.8 85.0093C108.8 88.8453 108.787 89.2094 108.579 89.3654C108.384 89.5084 109.034 89.5344 112.61 89.5474C116.303 89.5474 116.862 89.5735 116.862 89.7425C116.862 89.8465 116.927 89.9375 116.992 89.9375C117.07 89.9375 117.122 89.5084 117.122 88.8973C117.122 88.2861 117.07 87.857 116.992 87.857C116.927 87.857 116.862 87.9741 116.862 88.1171C116.862 88.3642 116.771 88.3772 113.546 88.3772H110.23V85.5164H112.376C114.196 85.5164 114.521 85.5425 114.521 85.7115C114.521 85.8155 114.586 85.9065 114.651 85.9065C114.729 85.9065 114.781 85.4774 114.781 84.8663C114.781 84.2551 114.729 83.826 114.651 83.826C114.586 83.826 114.521 83.917 114.521 84.0211C114.521 84.1901 114.196 84.2161 112.376 84.2161H110.23V81.6155H113.351C116.043 81.6155 116.472 81.6415 116.472 81.8105C116.472 81.9146 116.537 82.0056 116.602 82.0056C116.68 82.0056 116.732 81.5895 116.732 81.0303C116.732 80.4712 116.68 80.0551 116.602 80.0551C116.537 80.0551 116.472 80.1461 116.472 80.2501ZM153.258 80.4972C152.243 80.8613 151.58 81.6285 151.58 82.4477C151.58 82.8898 151.866 83.579 152.139 83.813C152.478 84.0861 152.4 84.2551 151.775 84.6322C150.579 85.3604 150.098 86.7908 150.644 88.0261C151.437 89.8335 154.376 90.1976 156.483 88.7543C156.782 88.5462 157.081 88.3772 157.146 88.3772C157.198 88.3772 157.393 88.5332 157.575 88.7152C158.056 89.2224 158.602 89.5214 159.291 89.6125L159.902 89.7035L159.889 88.8843C159.889 88.4292 159.85 88.1301 159.811 88.2081C159.668 88.5852 158.992 88.3902 158.368 87.792L157.757 87.2199L158.121 86.5177C158.316 86.1406 158.706 85.5945 158.992 85.3214C159.499 84.8273 159.512 84.8273 159.707 85.0743C159.876 85.2954 159.889 85.2174 159.902 84.2421V83.1629L159.499 83.3969C158.901 83.748 158.043 84.5282 157.679 85.0483C157.51 85.3084 157.276 85.5164 157.172 85.5164C157.068 85.5034 156.782 85.2434 156.548 84.9183C156.222 84.4762 156.157 84.3202 156.3 84.2681C156.405 84.2291 156.678 83.9431 156.899 83.631C157.354 82.9938 157.419 82.3567 157.107 81.7585C156.535 80.6272 154.623 80.0031 153.258 80.4972ZM154.922 81.3684C155.949 81.7585 156.209 82.7468 155.468 83.4489C155.143 83.761 154.948 83.826 154.428 83.826C153.661 83.826 153.219 83.631 153.024 83.2149C152.686 82.4737 152.972 81.7325 153.713 81.4074C154.207 81.1994 154.454 81.1864 154.922 81.3684ZM155.234 85.4384C156.209 86.0886 156.561 87.1939 156.001 87.896C155.429 88.6242 153.752 89.0273 152.972 88.6242C152.087 88.1691 151.58 87.1939 151.853 86.4657C152.348 85.1394 154.012 84.6322 155.234 85.4384ZM258.337 80.5492C256.776 81.0693 256.087 81.7065 255.736 82.9418C255.476 83.839 256.243 84.8403 257.466 85.1784C257.83 85.2824 258.727 85.3994 259.442 85.4384C262.42 85.6335 263.148 85.8935 263.148 86.7908C263.148 88.0781 260.911 88.8583 258.792 88.3121C257.739 88.0261 256.451 87.3369 256.464 87.0378C256.503 86.6087 256.308 86.8168 255.892 87.662C255.424 88.6242 255.372 88.8323 255.697 88.6632C255.84 88.5722 256.139 88.6502 256.724 88.9233C257.895 89.4694 259.572 89.7425 260.742 89.5735C262.082 89.3784 263.096 88.9493 263.746 88.3121C264.734 87.3239 264.825 86.1926 263.98 85.2564C263.278 84.4762 262.55 84.2681 259.975 84.0991C257.999 83.9691 257.739 83.9301 257.466 83.67C256.75 83.0068 257.258 82.1226 258.61 81.6805C260.053 81.1994 262.849 81.6415 263.122 82.3957C263.213 82.6427 263.291 82.5517 263.655 81.7455C263.889 81.2384 264.045 80.7833 264.006 80.7313C263.954 80.6923 263.876 80.7183 263.824 80.7963C263.759 80.9003 263.447 80.8743 262.693 80.6923C261.145 80.3152 259.234 80.2501 258.337 80.5492ZM39.6226 80.5752C39.6226 80.6402 39.7136 80.7053 39.8176 80.7053C39.9866 80.7053 40.0126 81.1734 40.0126 84.1381V87.571L39.6876 87.9611C39.2325 88.5072 38.7123 88.6892 37.8281 88.5982C36.8919 88.5202 35.5916 87.9611 35.5005 87.597C35.3835 87.1679 35.2405 87.2979 34.9934 88.0131C34.8764 88.3902 34.7463 88.7803 34.7073 88.8583C34.6813 88.9623 34.7593 89.0273 34.9284 89.0273C35.0714 89.0273 35.7086 89.1834 36.3327 89.3654C37.282 89.6385 37.6201 89.6775 38.3612 89.6125C39.4405 89.4954 40.4418 89.0143 40.9749 88.3381L41.378 87.831L41.417 84.3202C41.456 80.9653 41.469 80.8093 41.7031 80.7443C42.3142 80.5882 41.8721 80.4452 40.7928 80.4452C40.1037 80.4452 39.6226 80.4972 39.6226 80.5752ZM56.5137 80.6662C56.6828 80.8223 57.3199 82.3567 58.2822 84.9703C59.1014 87.2199 59.7775 89.1313 59.7775 89.2224C59.7775 89.3134 59.6735 89.4304 59.5565 89.4564C59.4265 89.4954 59.9336 89.5214 60.6878 89.5214C61.767 89.5344 61.9881 89.4954 61.754 89.3914C61.585 89.3134 61.481 89.1834 61.507 89.1053C61.9361 87.857 64.0166 82.3957 64.0686 82.3957C64.1076 82.3957 64.6928 83.9301 65.3949 85.8025C66.5262 88.8973 66.6302 89.2224 66.4352 89.3784C66.2532 89.5084 66.4222 89.5344 67.4364 89.5474C68.4507 89.5474 68.6327 89.5214 68.4507 89.3784C68.2426 89.2354 68.3467 88.8843 69.725 85.1263C70.5702 82.8508 71.3504 80.9003 71.5065 80.7443L71.7795 80.4452H70.7263C70.1021 80.4452 69.66 80.4972 69.66 80.5752C69.66 80.6402 69.725 80.7053 69.79 80.7053C69.8681 80.7053 69.9201 80.7963 69.9201 80.9003C69.9201 81.1474 67.5535 87.4799 67.4755 87.4149C67.4494 87.3759 66.8773 85.9065 66.2141 84.1251C65.1869 81.4074 65.0309 80.8743 65.1869 80.7573C65.2909 80.6792 65.3689 80.5752 65.3689 80.5232C65.3689 80.4842 64.8098 80.4452 64.1336 80.4452C63.4575 80.4452 62.8983 80.4842 62.8983 80.5232C62.8983 80.5752 62.9763 80.6792 63.0804 80.7573C63.2364 80.8743 63.0804 81.4334 62.0141 84.3071C61.3249 86.1926 60.7268 87.688 60.6748 87.623C60.5057 87.4539 58.2172 81.1604 58.2172 80.8743C58.2172 80.7183 58.3212 80.5622 58.4512 80.5362C58.5683 80.4972 58.1261 80.4712 57.45 80.4582C56.2797 80.4452 56.2537 80.4582 56.5137 80.6662ZM86.4342 80.5752C86.4342 80.6402 86.5252 80.7053 86.6292 80.7053C86.7983 80.7053 86.8243 81.2644 86.8243 84.9963C86.8243 88.7282 86.7983 89.2874 86.6292 89.2874C86.5252 89.2874 86.4342 89.3394 86.4342 89.4174C86.4342 89.4954 87.8775 89.5474 90.4912 89.5474C94.0801 89.5474 94.5742 89.5735 94.7822 89.7685C95.0033 89.9635 95.0163 89.9375 95.0163 88.9493C95.0033 88.0651 94.9773 87.948 94.8342 88.1431C94.6782 88.3511 94.3531 88.3772 91.4534 88.3772H88.2546V80.7443L88.5537 80.6012C88.7747 80.4972 88.5927 80.4582 87.6435 80.4582C86.9153 80.4452 86.4342 80.4972 86.4342 80.5752ZM97.3569 80.5752C97.3569 80.6402 97.4479 80.7053 97.5519 80.7053C97.721 80.7053 97.747 81.2644 97.747 84.9963C97.747 88.7282 97.721 89.2874 97.5519 89.2874C97.4479 89.2874 97.3569 89.3394 97.3569 89.4174C97.3569 89.4954 98.8002 89.5474 101.414 89.5474C105.003 89.5474 105.497 89.5735 105.705 89.7685C105.926 89.9635 105.939 89.9375 105.939 88.9493C105.926 88.0651 105.9 87.948 105.757 88.1431C105.601 88.3511 105.276 88.3772 102.376 88.3772H99.1773V80.7443L99.4764 80.6012C99.6974 80.4972 99.5154 80.4582 98.5662 80.4582C97.838 80.4452 97.3569 80.4972 97.3569 80.5752ZM120.672 80.5882C120.88 80.7053 120.893 81.0563 120.893 84.9963C120.893 88.9363 120.88 89.2874 120.672 89.4044C120.503 89.5084 120.75 89.5344 121.608 89.5344C122.466 89.5344 122.713 89.5084 122.557 89.4044C122.349 89.2874 122.323 89.0533 122.323 87.4669V85.6465H123.987L125.639 85.6595L126.341 86.7908C126.731 87.4149 127.225 88.1951 127.433 88.5332C127.758 89.0403 127.797 89.1834 127.654 89.3524C127.511 89.5214 127.641 89.5474 128.747 89.5474C129.553 89.5474 129.982 89.4954 129.93 89.4174C129.891 89.3394 129.774 89.2874 129.683 89.2874C129.553 89.2874 127.355 86.1016 127.16 85.6335C127.134 85.5815 127.355 85.4644 127.654 85.3734C128.305 85.1784 129.254 84.3722 129.475 83.826C129.566 83.605 129.605 83.1629 129.579 82.7728C129.488 81.9406 128.994 81.2774 128.044 80.7963L127.342 80.4452H123.896C121.478 80.4582 120.503 80.4972 120.672 80.5882ZM127.394 81.8105C128.487 82.3697 128.409 83.683 127.264 84.2811C126.978 84.4372 126.367 84.4762 124.599 84.4762H122.323V81.6155H124.664C126.497 81.6155 127.095 81.6545 127.394 81.8105ZM132.388 80.8873C132.609 81.1214 133.532 82.3437 134.455 83.592L136.106 85.8805V87.558C136.106 89.1834 136.093 89.2484 135.82 89.3914C135.586 89.4954 135.794 89.5344 136.822 89.5344C137.849 89.5344 138.057 89.4954 137.836 89.3914C137.55 89.2484 137.537 89.1834 137.537 87.5319V85.8025L139.461 83.2669C140.515 81.8755 141.49 80.6662 141.633 80.5882C141.828 80.4972 141.555 80.4582 140.593 80.4582C139.487 80.4582 139.331 80.4842 139.526 80.6272C139.734 80.7833 139.63 80.9523 138.382 82.6037C137.628 83.592 136.978 84.4242 136.926 84.4372C136.861 84.4502 136.224 83.644 135.482 82.6427C134.221 80.9393 134.156 80.7963 134.377 80.6272C134.585 80.4712 134.442 80.4582 133.298 80.4452H131.984L132.388 80.8873ZM170.214 80.5752C170.422 80.7053 170.435 81.0563 170.435 84.9963C170.435 88.9363 170.422 89.2874 170.214 89.4044C170.045 89.4954 170.994 89.5344 173.322 89.5474C176.377 89.5474 176.729 89.5214 177.379 89.2874C178.718 88.7803 179.693 87.3109 179.888 85.5164C179.979 84.6322 179.745 83.1889 179.407 82.5387C179.069 81.8755 178.289 81.1604 177.522 80.8093C176.898 80.5232 176.703 80.5102 173.426 80.4712C170.968 80.4582 170.045 80.4842 170.214 80.5752ZM177.418 82.1876C178.172 82.6947 178.523 83.4619 178.601 84.7493C178.666 85.9326 178.432 86.7778 177.821 87.5189C177.171 88.2991 176.872 88.3772 174.206 88.3772H171.865V81.7325L174.375 81.7715L176.872 81.8105L177.418 82.1876ZM183.217 80.6272C183.425 80.7833 183.438 81.1474 183.438 84.9963C183.438 88.8453 183.425 89.2094 183.217 89.3654C183.022 89.5084 183.152 89.5344 184.153 89.5344C185.155 89.5344 185.285 89.5084 185.103 89.3654C184.882 89.2094 184.869 88.8453 184.869 85.0613C184.869 81.2774 184.895 80.8873 185.09 80.6793C185.285 80.4582 185.259 80.4452 184.14 80.4452C183.152 80.4582 183.022 80.4842 183.217 80.6272ZM191.929 80.6012C192.137 80.7573 191.994 81.1344 190.265 84.9313C189.225 87.2199 188.249 89.1964 188.106 89.3134C187.833 89.5344 187.872 89.5474 188.952 89.5474C190.031 89.5474 190.07 89.5344 189.914 89.3004C189.797 89.0923 189.836 88.8973 190.161 88.1561L190.564 87.2719L193.087 87.2329L195.596 87.2069L196.103 88.2081C196.558 89.1443 196.584 89.2224 196.363 89.3784C196.168 89.5214 196.324 89.5474 197.365 89.5474C198.548 89.5474 198.574 89.5344 198.301 89.3134C198.132 89.1834 197.144 87.2849 195.999 84.9313C194.218 81.2384 194.023 80.7573 194.205 80.6012C194.374 80.4712 194.166 80.4452 193.061 80.4452C191.955 80.4452 191.747 80.4712 191.929 80.6012ZM193.984 83.9561C194.478 84.9703 194.881 85.8545 194.881 85.9195C194.881 85.9846 194.062 86.0366 193.061 86.0366C191.994 86.0366 191.24 85.9846 191.24 85.9195C191.24 85.7245 192.97 81.9926 193.022 82.0576C193.061 82.0836 193.49 82.9418 193.984 83.9561ZM201.058 80.5752C201.097 80.6402 201.227 80.7053 201.331 80.7053C201.487 80.7053 201.513 81.3424 201.513 84.9963C201.513 88.9363 201.5 89.2874 201.292 89.4044C201.123 89.5084 201.344 89.5344 202.163 89.5344C202.982 89.5344 203.203 89.5084 203.047 89.4044C202.839 89.2874 202.813 88.9753 202.813 85.9716C202.813 84.1511 202.852 82.6557 202.917 82.6557C202.969 82.6557 203.801 84.1511 204.763 85.9586L206.519 89.2614L206.792 88.7803C206.948 88.5202 207.754 86.9858 208.586 85.3474C209.419 83.722 210.16 82.3957 210.238 82.3957C210.303 82.3957 210.355 83.774 210.355 85.8415C210.355 88.7542 210.329 89.2874 210.173 89.2874C210.069 89.2874 209.939 89.3394 209.9 89.4174C209.848 89.4954 210.277 89.5474 211.096 89.5344C212.11 89.5344 212.305 89.4954 212.084 89.3914L211.785 89.2484V80.7443L212.084 80.6012C212.305 80.4972 212.006 80.4582 210.745 80.4582C209.341 80.4582 209.146 80.4712 209.354 80.6272C209.575 80.7963 209.497 80.9783 208.144 83.618C207.338 85.1654 206.649 86.4267 206.61 86.4267C206.493 86.4267 203.593 81.0563 203.593 80.8483C203.593 80.7703 203.684 80.7053 203.788 80.7053C203.892 80.7053 203.983 80.6402 203.983 80.5752C203.983 80.4972 203.398 80.4452 202.475 80.4452C201.552 80.4452 201.006 80.4972 201.058 80.5752ZM218.872 80.6272C217.481 81.0693 216.284 82.0056 215.712 83.1108C215.413 83.67 215.374 83.917 215.361 84.9963C215.361 86.1016 215.4 86.2966 215.725 86.9338C216.206 87.831 217.065 88.6632 218.001 89.1183C218.703 89.4564 218.833 89.4824 220.497 89.4824C222.162 89.4824 222.292 89.4564 222.994 89.1183C225.829 87.727 226.661 84.7232 224.853 82.3567C223.93 81.1474 222.305 80.4452 220.445 80.4582C219.873 80.4582 219.158 80.5362 218.872 80.6272ZM221.668 81.7585C222.617 81.9666 223.345 82.5517 223.852 83.553C224.723 85.2954 224.242 87.1288 222.643 88.0521C221.135 88.9493 218.742 88.6372 217.676 87.4279C217.039 86.6997 216.817 85.9456 216.883 84.7493C216.935 83.904 217.013 83.618 217.286 83.1889C218.144 81.9016 219.808 81.3554 221.668 81.7585ZM229.119 80.5882C229.327 80.7053 229.34 81.0563 229.34 84.9963C229.34 88.9363 229.327 89.2874 229.119 89.4044C228.949 89.5084 229.197 89.5344 230.055 89.5344C230.991 89.5344 231.173 89.4954 230.939 89.3914L230.64 89.2484V85.6205C230.64 83.631 230.692 82.0056 230.744 82.0056C230.809 82.0056 232.265 83.618 234.008 85.5945C236.92 88.9103 237.142 89.1964 236.92 89.3654C236.712 89.5214 236.842 89.5344 237.922 89.5344C239.001 89.5344 239.118 89.5084 238.936 89.3654C238.715 89.2094 238.702 88.8453 238.702 84.9963C238.702 81.1474 238.715 80.7833 238.936 80.6272C239.131 80.4842 239.001 80.4582 238.091 80.4452C237.454 80.4452 237.011 80.4972 237.011 80.5752C237.011 80.6402 237.103 80.7053 237.207 80.7053C237.376 80.7053 237.402 81.1474 237.402 83.878C237.402 85.6335 237.363 87.0898 237.311 87.1158C237.129 87.2199 231.667 80.9263 231.81 80.7833C232.096 80.4972 231.875 80.4452 230.419 80.4452C229.314 80.4582 228.949 80.4842 229.119 80.5882ZM243.032 80.5752C243.24 80.7053 243.253 81.0563 243.253 84.9963C243.253 88.9363 243.24 89.2874 243.032 89.4044C242.863 89.5084 243.825 89.5344 246.309 89.5084L249.82 89.4824L250.574 89.1053C252.043 88.3902 252.836 86.6997 252.706 84.6192C252.576 82.6037 252.03 81.6675 250.561 80.9393L249.703 80.5102L246.244 80.4712C243.786 80.4582 242.863 80.4842 243.032 80.5752ZM250.288 82.2006C251.081 82.7598 251.354 83.3839 251.419 84.7623C251.484 86.0886 251.276 86.8168 250.613 87.571C249.963 88.3121 249.651 88.3772 247.024 88.3772H244.683V81.7325L247.206 81.7715L249.729 81.8105L250.288 82.2006Z" fill="#525252"/>
</svg>
