<svg xmlns="http://www.w3.org/2000/svg" width="236" height="51" viewBox="0 0 236 51">
    <defs>
        <linearGradient id="a" x1="-3.182%" x2="108.621%" y1="81.093%" y2="34.717%">
            <stop offset="0%" stop-color="#884000"/>
            <stop offset="100%" stop-color="#E38B1A"/>
        </linearGradient>
        <linearGradient id="b" x1="-.818%" x2="102.212%" y1="60.565%" y2="45.282%">
            <stop offset="0%" stop-color="#EE8D35"/>
            <stop offset="100%" stop-color="#FED300"/>
        </linearGradient>
        <linearGradient id="c" x1="54.22%" x2="47.93%" y1="98.864%" y2="-12.263%">
            <stop offset="0%" stop-color="#DB781B"/>
            <stop offset="100%" stop-color="#FAA819"/>
        </linearGradient>
    </defs>
    <g fill="none" fill-rule="nonzero">
        <path fill="url(#a)" d="M8.679 46.286S40.5 33.877 45.449 16.14C50.321-1.599 62.579 3.197 64.025 5.634c1.446 2.436-11.648-1.447-8.68 24.209C58.392 55.498 30.148 51.768 8.68 46.286z"/>
        <path fill="url(#b)" d="M.609 33.725s35.552-4.644 44.992-21.544c9.44-16.901 20.707-8.907 21.62-6.015.914 2.893-11.495-4.415-14.92 22.535C48.95 55.574 21.088 44.688.609 33.725z"/>
        <path fill="url(#c)" d="M0 9.135s34.791 8.68 49.788-3.578c14.998-12.256 22.535-.76 22.306 2.284-.228 2.97-9.135-8.298-22.077 15.53C36.999 47.125 15.074 26.875 0 9.136z"/>
        <path fill="#FFF" d="M64.1 3.883c0 .685-.532 1.294-1.294 1.294a1.283 1.283 0 0 1-1.294-1.294c0-.686.533-1.295 1.294-1.295.762 0 1.295.61 1.295 1.295zM98.511 22.077c-.457-1.979-1.294-3.35-2.512-4.187-1.218-.837-2.817-1.218-4.796-1.218-1.37 0-2.589.305-3.578.838-.99.533-1.828 1.294-2.513 2.207-.685.914-1.142 2.056-1.446 3.274a15.961 15.961 0 0 0-.457 3.883c0 1.294.152 2.512.38 3.806.23 1.218.686 2.36 1.295 3.274.609.99 1.446 1.75 2.512 2.36 1.066.609 2.36.913 3.959.913.99 0 1.903-.152 2.664-.457.838-.304 1.523-.761 2.132-1.294a6.55 6.55 0 0 0 1.523-1.98c.38-.76.76-1.598.913-2.511h2.284a10.947 10.947 0 0 1-1.142 3.12c-.457.99-1.142 1.828-1.903 2.59-.761.76-1.751 1.37-2.893 1.75-1.142.457-2.512.685-4.035.685-1.75 0-3.273-.304-4.568-.99-1.294-.685-2.284-1.522-3.121-2.664-.761-1.142-1.37-2.36-1.75-3.882-.382-1.447-.534-3.046-.534-4.644 0-2.208.305-4.035.838-5.558.532-1.522 1.294-2.817 2.283-3.73.99-.99 2.056-1.675 3.426-2.132 1.294-.456 2.74-.685 4.263-.685 1.142 0 2.284.152 3.274.457.99.304 1.903.761 2.665 1.37.76.61 1.446 1.37 1.903 2.284.457.914.837 1.98 1.066 3.121H98.51zM106.276 38.445h-1.98V21.85h1.904v3.121h.076c.533-1.294 1.218-2.207 2.056-2.74.837-.533 1.979-.762 3.35-.762v2.056c-1.067 0-1.98.152-2.665.533-.685.38-1.294.837-1.675 1.446a6.354 6.354 0 0 0-.837 2.208 15.094 15.094 0 0 0-.229 2.664v8.07zM115.26 30.604c0 .913.152 1.75.38 2.512.228.761.609 1.523 1.066 2.056a4.401 4.401 0 0 0 1.75 1.37 6.038 6.038 0 0 0 2.437.533c1.294 0 2.36-.305 3.197-.99.914-.685 1.523-1.599 1.827-2.817h2.132a11.239 11.239 0 0 1-.914 2.208c-.38.685-.837 1.294-1.446 1.751a5.482 5.482 0 0 1-2.055 1.142 9.518 9.518 0 0 1-2.741.38c-1.294 0-2.436-.228-3.426-.684a6.35 6.35 0 0 1-2.36-1.828c-.609-.76-1.066-1.674-1.37-2.74a12.42 12.42 0 0 1-.457-3.426c0-1.218.152-2.36.533-3.426.38-1.066.837-1.98 1.522-2.817.686-.76 1.447-1.446 2.36-1.903.914-.457 1.98-.685 3.198-.685 2.284 0 4.035.761 5.405 2.36 1.294 1.599 1.903 3.806 1.903 6.852H115.26v.152zm10.81-1.599c0-.837-.076-1.599-.305-2.284-.228-.685-.533-1.37-.99-1.827-.456-.533-.99-.913-1.674-1.218-.686-.304-1.447-.457-2.284-.457-.838 0-1.599.153-2.284.457-.685.305-1.218.761-1.675 1.294-.457.533-.837 1.142-1.066 1.827-.304.686-.457 1.447-.533 2.208h10.81zM132.769 38.445h-1.903V21.85h1.903v2.512h.076c.457-.99 1.218-1.675 2.132-2.207.913-.533 1.903-.762 2.969-.762.761 0 1.446.076 1.98.229.532.152.989.38 1.37.685.38.304.685.609.913.99.228.38.457.76.61 1.218.532-1.066 1.293-1.904 2.207-2.437.913-.532 1.98-.76 3.197-.76 1.142 0 2.056.151 2.665.532.685.38 1.218.837 1.522 1.446.381.61.61 1.295.685 2.132.153.761.153 1.599.153 2.436v10.43h-1.751v-11.42c0-1.218-.229-2.131-.762-2.816-.532-.685-1.446-.99-2.816-.99-.685 0-1.37.152-2.056.457-.685.304-1.218.761-1.675 1.446-.228.305-.38.61-.533.99-.152.38-.228.761-.304 1.142-.076.38-.152.837-.152 1.218 0 .38-.076.761-.076 1.142v8.907h-1.904v-11.42c0-1.217-.228-2.13-.76-2.816-.534-.685-1.447-.99-2.818-.99-.685 0-1.37.152-2.055.457-.685.305-1.218.761-1.675 1.446-.228.305-.38.61-.533.99-.152.38-.228.761-.304 1.142-.077.38-.153.837-.153 1.218 0 .38-.076.761-.076 1.142v8.907h-.076zM164.591 28.777c.38-.076.761-.076 1.294-.229a3.832 3.832 0 0 0 1.218-.38c.305-.153.533-.38.61-.762.075-.38.075-.685.075-.99 0-.989-.304-1.75-.913-2.435-.61-.61-1.675-.914-3.198-.914-.685 0-1.294.076-1.827.152-.533.153-1.065.305-1.446.61-.38.304-.761.685-.99 1.141a5.21 5.21 0 0 0-.533 1.827h-1.98c.077-.99.305-1.827.686-2.512.38-.685.914-1.294 1.523-1.675.609-.38 1.294-.761 2.131-.99.838-.228 1.675-.304 2.513-.304.837 0 1.598.076 2.36.305.76.152 1.37.456 1.903.837.533.38.99.914 1.294 1.599.304.685.457 1.446.457 2.436v8.983c0 .761.152 1.218.38 1.447.305.228.838.152 1.6-.153v1.523c-.153.076-.382.076-.686.228-.305.076-.61.153-.837.153-.305 0-.61 0-.838-.077-.304-.076-.609-.152-.761-.304a1.184 1.184 0 0 1-.457-.61c-.076-.228-.228-.456-.228-.76-.076-.229-.076-.533-.076-.838-.838.914-1.751 1.599-2.817 2.056a8.604 8.604 0 0 1-3.426.685c-.761 0-1.447-.076-2.132-.305-.685-.228-1.294-.456-1.75-.913-.457-.457-.914-.914-1.219-1.523-.304-.609-.456-1.294-.456-2.131 0-2.817 1.903-4.492 5.785-5.025l2.741-.152zm3.274.913c-.838.305-1.6.533-2.437.685-.837.077-1.674.229-2.512.229-1.446.076-2.588.457-3.426.99-.837.532-1.218 1.37-1.218 2.512 0 .533.076.99.305 1.294.228.305.457.685.837.914.305.228.685.456 1.142.532.457.153.914.153 1.294.153.762 0 1.523-.076 2.208-.305.761-.228 1.37-.457 1.903-.913.533-.381.99-.914 1.37-1.523.305-.609.534-1.294.534-2.132V29.69zM189.028 39.587c-.152.838-.609 1.675-1.142 2.36-.609.761-1.446 1.37-2.588 1.903-1.142.533-2.664.762-4.568.762a9.844 9.844 0 0 1-2.512-.305 10.22 10.22 0 0 1-2.284-.913c-.685-.457-1.294-.99-1.75-1.675-.458-.685-.686-1.447-.762-2.436h4.492c.228.837.609 1.446 1.218 1.75.609.305 1.37.533 2.131.533 1.294 0 2.208-.38 2.817-1.141.609-.762.837-1.751.837-2.893v-2.208h-.076a4.341 4.341 0 0 1-2.131 1.903c-.914.38-1.827.61-2.893.61-1.218 0-2.284-.23-3.198-.686-.913-.457-1.598-1.066-2.207-1.827-.61-.761-.99-1.675-1.295-2.665-.304-.99-.38-2.055-.38-3.197 0-1.066.152-2.132.457-3.121.304-.99.76-1.904 1.37-2.589a7.271 7.271 0 0 1 2.208-1.827c.837-.457 1.903-.685 3.045-.685 1.066 0 2.055.228 2.893.609.837.38 1.522 1.066 2.055 2.056h.076v-2.208h4.34V37.15c.152.837.076 1.599-.153 2.436zm-6.166-5.481a3.873 3.873 0 0 0 1.218-.99c.305-.38.533-.913.685-1.446a6.34 6.34 0 0 0 .229-1.675 7.67 7.67 0 0 0-.229-1.903c-.152-.61-.304-1.142-.609-1.6a3.524 3.524 0 0 0-1.218-1.141c-.457-.305-1.142-.38-1.827-.38-.61 0-1.218.152-1.675.38-.457.228-.837.609-1.142 1.066a4.648 4.648 0 0 0-.685 1.522 6.912 6.912 0 0 0-.228 1.751c0 .61.076 1.218.152 1.751.152.61.304 1.142.609 1.599.304.457.685.837 1.142 1.142.457.304 1.066.457 1.75.457.762-.153 1.295-.229 1.828-.533zM197.098 34.41c.685.685 1.675.99 2.97.99.913 0 1.674-.228 2.36-.685.684-.457 1.065-.914 1.217-1.447h3.959c-.61 1.98-1.599 3.426-2.97 4.264-1.293.837-2.892 1.294-4.795 1.294-1.294 0-2.436-.229-3.502-.61-1.066-.38-1.903-.989-2.665-1.75-.761-.761-1.294-1.675-1.675-2.74a10.235 10.235 0 0 1-.609-3.503c0-1.218.229-2.36.61-3.426.38-1.065.99-1.979 1.75-2.74.762-.762 1.6-1.37 2.665-1.827a8.604 8.604 0 0 1 3.426-.685c1.37 0 2.664.304 3.654.837 1.066.533 1.903 1.294 2.588 2.208.685.913 1.142 1.979 1.447 3.121.304 1.142.38 2.436.304 3.654H195.88c.152 1.37.533 2.436 1.218 3.045zm5.1-8.678c-.532-.61-1.37-.914-2.512-.914-.76 0-1.294.152-1.827.38a3.37 3.37 0 0 0-1.142.914c-.304.38-.456.762-.609 1.142-.152.38-.152.761-.228 1.066h7.385c-.153-1.066-.533-1.98-1.066-2.588zM213.618 34.334c.228.38.457.61.761.838.305.228.686.38 1.066.533.38.076.838.152 1.294.152.305 0 .686 0 .99-.076.38-.076.685-.229.99-.381.304-.152.533-.38.685-.609.228-.305.304-.61.304-.99 0-.685-.456-1.218-1.37-1.522a26.422 26.422 0 0 0-3.806-.99c-.686-.152-1.295-.304-1.904-.533-.609-.228-1.218-.457-1.674-.837a4.634 4.634 0 0 1-1.219-1.218c-.304-.533-.456-1.142-.456-1.827 0-1.066.228-1.904.609-2.589.38-.685.99-1.218 1.675-1.599a7.439 7.439 0 0 1 2.283-.837 14.867 14.867 0 0 1 2.589-.228c.837 0 1.75.076 2.588.228a7.439 7.439 0 0 1 2.284.837c.685.381 1.218.914 1.675 1.6.457.684.685 1.522.761 2.511h-4.34c-.075-.837-.38-1.446-.989-1.75-.609-.305-1.294-.457-2.131-.457-.229 0-.533 0-.838.076-.304.076-.609.076-.837.228a1.184 1.184 0 0 0-.61.457c-.152.228-.228.457-.228.837 0 .381.153.762.457.99.305.228.685.457 1.142.61.457.151 1.066.304 1.675.456.609.152 1.218.304 1.903.38.685.153 1.294.305 1.903.533a8.594 8.594 0 0 1 1.675.838c.457.38.914.761 1.218 1.294.305.533.457 1.142.457 1.903 0 1.066-.228 1.98-.685 2.74a5.28 5.28 0 0 1-1.675 1.752c-.685.457-1.523.761-2.436.913-.914.153-1.827.305-2.74.305-.99 0-1.904-.076-2.818-.305-.913-.228-1.75-.532-2.436-.99a6.389 6.389 0 0 1-1.75-1.75c-.457-.685-.686-1.675-.762-2.74h4.34c.076.38.228.837.38 1.217zM235.315 21.849v3.045h-3.35v8.222c0 .761.152 1.294.38 1.523.23.228.762.38 1.523.38h.762c.228 0 .456-.076.685-.076v3.502c-.38.076-.838.076-1.294.152h-1.37c-.686 0-1.371-.076-1.98-.152-.61-.076-1.218-.304-1.675-.533a3.524 3.524 0 0 1-1.142-1.218c-.304-.533-.38-1.218-.38-1.98v-9.82h-2.741V21.85h2.74v-4.948h4.568v4.948h3.274z"/>
    </g>
</svg>
