<?xml version="1.0" encoding="UTF-8"?>
<svg width="313px" height="59px" viewBox="0 0 313 59" version="1.1" xmlns="http://www.w3.org/2000/svg" xmlns:xlink="http://www.w3.org/1999/xlink">
    <!-- Generator: Sketch 57.1 (83088) - https://sketch.com -->
    <title>IBSA_logo 1</title>
    <desc>Created with Sketch.</desc>
    <defs>
        <polygon id="path-1" points="0.322063107 0.291437977 5.23893204 0.291437977 5.23893204 7.75592132 0.322063107 7.75592132"></polygon>
    </defs>
    <g id="Menus" stroke="none" stroke-width="1" fill="none" fill-rule="evenodd">
        <g id="Menu+Breadcrump" transform="translate(-32.000000, -30.000000)">
            <g id="IBSA_logo" transform="translate(32.000000, 30.000000)">
                <g id="Group-158">
                    <polygon id="Fill-1" fill="#411300" points="12.7659574 21.6996168 26.166407 29.3617021 39.5744681 21.7049972 26.1714814 14.0425532"></polygon>
                    <polygon id="Fill-2" fill="#D95A49" points="0 30.015765 26.1687407 44.6808511 52.3404255 30.0236212 39.7828747 22.9826515 26.1687407 30.6067679 12.5630712 22.9787234"></polygon>
                    <polygon id="Fill-3" fill="#FBD1C9" points="26.174261 0 0 14.6591218 12.560127 21.6981998 26.1716848 14.0756564 39.7799305 21.7021277 52.3404255 14.6680488"></polygon>
                    <g id="Group-157" transform="translate(12.765957, 0.000000)">
                        <path d="M26.9767718,18.6139896 C26.9760437,18.0341421 26.5129369,17.5643549 25.9424272,17.5643549 C25.3704612,17.5643549 24.9073544,18.0341421 24.9066262,18.6139896 L24.9066262,18.6139896 L24.9066262,23.5345676 L26.9782282,22.3216893 L26.9782282,18.6139896 L26.9767718,18.6139896 Z" id="Fill-4" fill="#FFFFFF"></path>
                        <path d="M1.0856432,17.5644287 C0.524599515,17.5644287 0.0709587379,18.0172268 0.053118932,18.5819318 L0.049842233,18.5819318 L0.049842233,22.3177005 L2.11998786,23.5305789 L2.11998786,18.5819318 L2.11671117,18.5819318 C2.09887136,18.0172268 1.64523058,17.5644287 1.0856432,17.5644287" id="Fill-6" fill="#FFFFFF"></path>
                        <path d="M5.22757282,13.9421919 C4.65706311,13.9421919 4.1925,14.4116098 4.19177184,14.9918266 L4.19177184,14.9918266 L4.19177184,24.7454516 L6.26337379,25.9598073 L6.26337379,14.9918266 L6.26300971,14.9918266 C6.26264563,14.4116098 5.79953883,13.9421919 5.22757282,13.9421919" id="Fill-8" fill="#FFFFFF"></path>
                        <path d="M9.37074029,6.11270012 C8.80023058,6.11270012 8.33603155,6.58211802 8.3353034,7.16233481 L8.33493932,7.16233481 L8.33493932,27.1729811 L10.4065413,28.3877061 L10.4065413,7.16233481 L10.4065413,7.16233481 C10.4058131,6.58211802 9.94270631,6.11270012 9.37074029,6.11270012" id="Fill-10" fill="#FFFFFF"></path>
                        <path d="M13.5113956,10.6806054 C12.9405218,10.6806054 12.4755947,11.1507619 12.4755947,11.7317174 C12.4755947,11.7405813 12.4781432,11.7494452 12.4781432,11.7583091 L12.4781432,29.6009908 L13.5099393,30.2066913 L14.5497451,29.5995134 L14.5497451,11.7302401 L14.5468325,11.7302401 C14.5461044,11.1500233 14.0833617,10.6806054 13.5113956,10.6806054" id="Fill-12" fill="#FFFFFF"></path>
                        <path d="M17.655983,8.47655721 C17.0847451,8.47655721 16.620182,8.94671377 16.620182,9.52766921 L16.620182,28.3863766 L18.691784,27.1731289 L18.691784,9.52766921 C18.691784,8.94671377 18.2283131,8.47655721 17.655983,8.47655721" id="Fill-14" fill="#FFFFFF"></path>
                        <path d="M21.7991505,15.2139414 C21.2286408,15.2139414 20.7640777,15.6833593 20.7633495,16.2635761 L20.7633495,16.2635761 L20.7633495,25.959955 L22.8349515,24.7478153 L22.8349515,16.2635761 L22.8349515,16.2635761 C22.8342233,15.6833593 22.3711165,15.2139414 21.7991505,15.2139414" id="Fill-16" fill="#FFFFFF"></path>
                        <path d="M51.3290898,51.2603613 L51.3290898,56.2592373 C51.3290898,56.4553513 51.2755704,56.5428824 50.8557888,56.5428824 C50.4687743,56.5428824 50.3930461,56.4664312 50.3930461,56.2256283 C50.3930461,55.9534324 50.4148908,51.8391008 50.4148908,51.2382015 C50.4148908,50.965267 50.5113714,50.8895544 50.8667112,50.8895544 C51.189284,50.8895544 51.3290898,50.9442152 51.3290898,51.2603613 M51.5555461,49.2523163 C51.5555461,49.6670735 51.3290898,49.9721397 50.8881917,49.9721397 C50.4360073,49.9721397 50.1993568,49.6670735 50.1993568,49.2741068 C50.1993568,48.8593497 50.4258131,48.5642553 50.8881917,48.5642553 C51.3290898,48.5642553 51.5555461,48.8593497 51.5555461,49.2523163" id="Fill-18" fill="#D95A49"></path>
                        <path d="M57.438932,52.9086423 C57.438932,54.6330422 57.4498544,54.349397 57.4498544,56.2806214 C57.4498544,56.4663942 57.3420874,56.5325042 56.9117476,56.5325042 C56.5567718,56.5325042 56.5138107,56.4663942 56.5138107,56.1941983 C56.5138107,55.9862658 56.5028883,53.5848848 56.5028883,53.0175945 C56.5028883,52.0573376 56.1155097,51.6418418 55.4161165,51.6418418 C54.5878398,51.6418418 53.7486408,52.1659205 53.7486408,53.465222 L53.7486408,56.2484898 C53.7486408,56.4556837 53.7275243,56.5428454 53.2538592,56.5428454 C52.8985194,56.5428454 52.8344417,56.4556837 52.8344417,56.2592003 C52.8344417,53.3773216 52.8555583,51.6315006 52.8555583,51.2603244 C52.8555583,50.9441782 52.9633252,50.8895175 53.2429369,50.8895175 C53.5549515,50.8895175 53.6306796,50.932729 53.6627184,51.2278234 C53.7166019,51.6750815 53.7166019,51.7404528 53.8025243,51.7404528 C53.974733,51.7404528 54.2113835,50.7584055 55.5562864,50.7584055 C56.5028883,50.7584055 57.438932,51.1731626 57.438932,52.9086423" id="Fill-20" fill="#D95A49"></path>
                        <path d="M62.2778883,55.1238812 C62.2778883,54.709124 62.0412379,54.3929779 60.513568,54.152175 C59.093301,53.9339012 58.6305583,53.2362377 58.6305583,52.5367274 C58.6305583,51.4568077 59.4916019,50.769116 60.9657524,50.769116 C62.5469417,50.769116 63.1924515,51.5875504 63.1924515,52.1987908 C63.1924515,52.4935159 63.0096845,52.5917575 62.7621117,52.5917575 C62.5363835,52.5917575 62.3856553,52.4610149 62.2564078,52.2320305 C61.9877184,51.8276146 61.5784951,51.5986303 60.8255825,51.5986303 C60.0399029,51.5986303 59.6314078,51.9915969 59.6314078,52.4610149 C59.6314078,52.9629338 59.8680583,53.2244191 61.0946359,53.4430622 C62.7191505,53.7267073 63.246335,54.119674 63.246335,54.9927692 C63.246335,55.8222834 62.5899029,56.6625082 60.9439078,56.6625082 C59.3193932,56.6625082 58.4477913,55.7236724 58.4477913,54.9820586 C58.4477913,54.7966552 58.5766748,54.6330422 58.8031311,54.6330422 C59.4697573,54.6330422 59.2545874,55.8872854 60.9868689,55.8872854 C61.8799515,55.8872854 62.2778883,55.5600594 62.2778883,55.1238812" id="Fill-22" fill="#D95A49"></path>
                        <path d="M64.8682282,49.4378675 C64.8682282,49.1978033 64.9541505,49.0231104 65.3200485,49.0231104 C65.664466,49.0231104 65.739466,49.1978033 65.739466,49.4046279 L65.739466,50.6607178 C65.739466,50.8778836 65.7718689,50.8778836 65.9011165,50.8778836 C65.9870388,50.8778836 66.8156796,50.8897021 67.1167718,50.8897021 C67.2671359,50.8897021 67.4397087,50.9654147 67.4397087,51.2822995 C67.4397087,51.6206054 67.2780583,51.7077672 67.1167718,51.7077672 L65.9440777,51.7077672 C65.7933495,51.7077672 65.7613107,51.7513481 65.7613107,51.8824601 L65.7613107,55.0472453 C65.7613107,55.4841622 65.955,55.702436 66.4068204,55.702436 C66.6434709,55.702436 66.7832767,55.5495335 67.0304854,55.5495335 C67.2671359,55.5495335 67.3749029,55.7570967 67.3749029,55.9753705 C67.3749029,56.2697262 67.0523301,56.5755311 66.3314563,56.5755311 C65.191165,56.5755311 64.825267,55.9314203 64.825267,54.8947122 C64.825267,54.2945516 64.8573058,52.8316371 64.8573058,51.9046198 C64.8573058,51.7624279 64.8034223,51.7077672 64.6854612,51.7077672 L64.1367961,51.7077672 C63.9321845,51.7077672 63.8138592,51.6206054 63.8138592,51.4130422 C63.8138592,51.194399 63.8892233,51.1186865 64.1473544,51.0640257 C64.7393447,50.9439936 64.8682282,50.9439936 64.8682282,50.7803806 L64.8682282,49.4378675 Z" id="Fill-24" fill="#D95A49"></path>
                        <path d="M69.460449,51.2603613 L69.460449,56.2592373 C69.460449,56.4553513 69.4065655,56.5428824 68.9871481,56.5428824 C68.5997694,56.5428824 68.5244053,56.4664312 68.5244053,56.2256283 C68.5244053,55.9534324 68.5458859,51.8391008 68.5458859,51.2382015 C68.5458859,50.965267 68.6427306,50.8895544 68.9977063,50.8895544 C69.3206432,50.8895544 69.460449,50.9442152 69.460449,51.2603613 M69.6865413,49.2523163 C69.6865413,49.6670735 69.460449,49.9721397 69.0191869,49.9721397 C68.5673665,49.9721397 68.330716,49.6670735 68.330716,49.2741068 C68.330716,48.8593497 68.5568083,48.5642553 69.0191869,48.5642553 C69.460449,48.5642553 69.6865413,48.8593497 69.6865413,49.2523163" id="Fill-26" fill="#D95A49"></path>
                        <path d="M71.5355825,49.4378675 C71.5355825,49.1978033 71.6215049,49.0231104 71.9874029,49.0231104 C72.3318204,49.0231104 72.4071845,49.1978033 72.4071845,49.4046279 L72.4071845,50.6607178 C72.4071845,50.8778836 72.4395874,50.8778836 72.5684709,50.8778836 C72.6543932,50.8778836 73.4833981,50.8897021 73.7841262,50.8897021 C73.9348544,50.8897021 74.1070631,50.9654147 74.1070631,51.2822995 C74.1070631,51.6206054 73.9457767,51.7077672 73.7841262,51.7077672 L72.611432,51.7077672 C72.461068,51.7077672 72.428665,51.7513481 72.428665,51.8824601 L72.428665,55.0472453 C72.428665,55.4841622 72.6223544,55.702436 73.0741748,55.702436 C73.3108252,55.702436 73.4506311,55.5495335 73.6982039,55.5495335 C73.9348544,55.5495335 74.0422573,55.7570967 74.0422573,55.9753705 C74.0422573,56.2697262 73.7200485,56.5755311 72.9988107,56.5755311 C71.8585194,56.5755311 71.4926214,55.9314203 71.4926214,54.8947122 C71.4926214,54.2945516 71.5246602,52.8316371 71.5246602,51.9046198 C71.5246602,51.7624279 71.4711408,51.7077672 71.3528155,51.7077672 L70.8041505,51.7077672 C70.5995388,51.7077672 70.4812136,51.6206054 70.4812136,51.4130422 C70.4812136,51.194399 70.5565777,51.1186865 70.8150728,51.0640257 C71.406699,50.9439936 71.5355825,50.9439936 71.5355825,50.7803806 L71.5355825,49.4378675 Z" id="Fill-28" fill="#D95A49"></path>
                        <path d="M75.1270995,54.5237206 C75.1270995,52.777161 75.1161772,53.1154669 75.1161772,51.1731626 C75.1161772,50.9873898 75.1485801,50.8562778 75.5789199,50.8562778 C76.0092597,50.8562778 76.052585,50.9873898 76.052585,51.2710349 C76.052585,51.4568077 76.0631432,53.7813681 76.0631432,54.3268679 C76.0631432,55.408265 76.4825607,55.8222834 77.224915,55.8222834 C78.0102306,55.8222834 78.7959102,55.211043 78.7959102,53.7928173 C78.7959102,51.3918057 78.8064684,51.5875504 78.8064684,51.1942144 C78.8064684,50.96523 78.8497937,50.8780682 79.2797694,50.8780682 C79.7210316,50.8780682 79.7530704,50.998839 79.7530704,51.1942144 C79.7530704,54.0978836 79.7210316,55.7236724 79.7210316,56.095218 C79.7210316,56.4663942 79.6456675,56.5321349 79.3554976,56.5321349 C79.0540413,56.5321349 79.0110801,56.4663942 78.9571966,56.095218 C78.9142354,55.7676226 78.8818325,55.7572814 78.8064684,55.7572814 C78.5912985,55.7572814 78.462415,56.6732188 77.0097451,56.6732188 C76.0631432,56.6732188 75.1270995,56.2592003 75.1270995,54.5237206" id="Fill-30" fill="#D95A49"></path>
                        <path d="M81.7197816,49.4378675 C81.7197816,49.1978033 81.8057039,49.0231104 82.171966,49.0231104 C82.5160194,49.0231104 82.5913835,49.1978033 82.5913835,49.4046279 L82.5913835,50.6607178 C82.5913835,50.8778836 82.6234223,50.8778836 82.753034,50.8778836 C82.8389563,50.8778836 83.667233,50.8897021 83.9686893,50.8897021 C84.1186893,50.8897021 84.2908981,50.9654147 84.2908981,51.2822995 C84.2908981,51.6206054 84.1299757,51.7077672 83.9686893,51.7077672 L82.7956311,51.7077672 C82.645267,51.7077672 82.6132282,51.7513481 82.6132282,51.8824601 L82.6132282,55.0472453 C82.6132282,55.4841622 82.8065534,55.702436 83.2583738,55.702436 C83.4953883,55.702436 83.6351942,55.5495335 83.8824029,55.5495335 C84.1186893,55.5495335 84.2264563,55.7570967 84.2264563,55.9753705 C84.2264563,56.2697262 83.9035194,56.5755311 83.1830097,56.5755311 C82.0427184,56.5755311 81.6771845,55.9314203 81.6771845,54.8947122 C81.6771845,54.2945516 81.7092233,52.8316371 81.7092233,51.9046198 C81.7092233,51.7624279 81.6553398,51.7077672 81.5366505,51.7077672 L80.9883495,51.7077672 C80.7837379,51.7077672 80.6654126,51.6206054 80.6654126,51.4130422 C80.6654126,51.194399 80.7411408,51.1186865 80.9989078,51.0640257 C81.590534,50.9439936 81.7197816,50.9439936 81.7197816,50.7803806 L81.7197816,49.4378675 Z" id="Fill-32" fill="#D95A49"></path>
                        <path d="M92.1525364,53.6397302 C92.1525364,52.3958282 91.5394296,51.5663139 90.4526578,51.5663139 C89.2803277,51.5663139 88.7203762,52.41688 88.7203762,53.6722312 C88.7203762,54.8515006 89.3123665,55.8328093 90.4741383,55.8328093 C91.7003519,55.8328093 92.1525364,54.9061614 92.1525364,53.6397302 M88.2904005,48.5976427 C88.6446481,48.5976427 88.7418568,48.7501758 88.7418568,49.033821 C88.7418568,49.5578996 88.7316626,51.0747363 88.7316626,51.4673336 C88.7316626,51.555234 88.752415,51.5873657 88.8062985,51.5873657 C88.967585,51.5873657 89.1292354,50.7582208 90.6998665,50.7582208 C91.9694053,50.7582208 93.120983,51.7513481 93.120983,53.6068599 C93.120983,55.5931144 92.0771723,56.6519823 90.6998665,56.6519823 C89.1725607,56.6519823 88.967585,55.6584857 88.7957403,55.6584857 C88.6879733,55.6584857 88.7203762,55.702436 88.6340898,56.1711152 C88.5802063,56.455499 88.5700121,56.5323196 88.2791141,56.5323196 C87.9456189,56.5323196 87.8491383,56.4662096 87.8491383,56.1940136 C87.8491383,55.3094693 87.8276578,52.8205572 87.8276578,49.0556114 C87.8276578,48.7612557 87.9354248,48.5976427 88.2904005,48.5976427" id="Fill-34" fill="#D95A49"></path>
                        <path d="M96.7973665,51.8392485 C95.7429976,51.8392485 95.0756432,52.4822513 95.0756432,53.5525684 L95.0756432,56.225776 C95.0756432,56.5097904 94.9252791,56.5323196 94.5808617,56.5323196 C94.1290413,56.5323196 94.1290413,56.455499 94.1290413,56.0846921 C94.1290413,55.7238571 94.1505218,51.9589113 94.1505218,51.2383493 C94.1505218,50.9990237 94.2149636,50.8897021 94.5269782,50.8897021 C94.7101092,50.8897021 94.9147209,50.9107539 94.9252791,51.1079759 L94.9686044,51.7952983 C94.9791626,52.0346238 94.9897209,52.089654 95.0330461,52.089654 C95.1510073,52.089654 95.5063471,50.8897021 96.6681189,50.8897021 C97.0769782,50.8897021 97.2601092,51.0854468 97.2601092,51.3801718 C97.2601092,51.6966873 97.109017,51.8392485 96.7973665,51.8392485" id="Fill-36" fill="#D95A49"></path>
                        <path d="M98.0655947,54.5237206 C98.0655947,52.777161 98.0543083,53.1154669 98.0543083,51.1731626 C98.0543083,50.9873898 98.0870752,50.8562778 98.517051,50.8562778 C98.9477549,50.8562778 98.9903519,50.9873898 98.9903519,51.2710349 C98.9903519,51.4568077 99.0016383,53.7813681 99.0016383,54.3268679 C99.0016383,55.408265 99.4210558,55.8222834 100.16341,55.8222834 C100.948362,55.8222834 101.734041,55.211043 101.734041,53.7928173 C101.734041,51.3918057 101.7446,51.5875504 101.7446,51.1942144 C101.7446,50.96523 101.787925,50.8780682 102.218629,50.8780682 C102.659891,50.8780682 102.69193,50.998839 102.69193,51.1942144 C102.69193,54.0978836 102.659891,55.7236724 102.659891,56.095218 C102.659891,56.4663942 102.584163,56.5321349 102.293265,56.5321349 C101.992172,56.5321349 101.949211,56.4663942 101.895692,56.095218 C101.852367,55.7676226 101.820328,55.7572814 101.7446,55.7572814 C101.530158,55.7572814 101.40091,56.6732188 99.9478762,56.6732188 C99.0016383,56.6732188 98.0655947,56.2592003 98.0655947,54.5237206" id="Fill-38" fill="#D95A49"></path>
                        <path d="M108.520049,56.0515263 C108.659854,56.248379 108.70318,56.3137503 108.70318,56.4009121 C108.70318,56.4987844 108.639102,56.575605 108.423568,56.575605 L108.058034,56.575605 C107.788981,56.575605 107.691772,56.5323934 107.304393,55.9207836 C106.906456,55.2988326 106.659248,54.894786 106.497597,54.6218515 C106.346869,54.3707073 106.271869,54.2835456 106.17466,54.2835456 C106.067257,54.2835456 106.002816,54.3707073 105.809126,54.665063 C105.658398,54.9058659 105.088252,55.8221726 104.775874,56.2915905 C104.657913,56.4662834 104.571626,56.5534452 104.367743,56.5534452 L103.797233,56.5534452 C103.657427,56.5534452 103.625388,56.4555729 103.625388,56.3791216 C103.625388,56.2151393 103.765194,56.0733167 103.990922,55.7785917 C104.184612,55.5167371 105.13085,54.2174356 105.281942,53.9995311 C105.464345,53.7380458 105.497476,53.683385 105.497476,53.584774 C105.497476,53.4651112 105.389709,53.3772108 104.991408,52.831711 C104.539587,52.2101293 104.076845,51.6206792 103.893714,51.3584552 C103.786311,51.1944729 103.753908,51.1398121 103.753908,51.0201493 C103.753908,50.921169 103.829272,50.8565363 103.947597,50.8565363 L104.485704,50.8565363 C104.711796,50.8565363 104.78716,50.9108278 104.991408,51.2277126 C105.378422,51.8171626 105.658398,52.2644207 105.88449,52.6248864 C105.992257,52.7884994 106.056699,52.897821 106.142621,52.897821 C106.217985,52.897821 106.282427,52.7774195 106.486675,52.4716146 L107.31568,51.2384231 C107.509369,50.954778 107.62733,50.8894067 107.885461,50.8894067 L108.369684,50.8894067 C108.477451,50.8894067 108.541893,50.954778 108.541893,51.0640996 C108.541893,51.1627106 108.520049,51.2059221 108.283762,51.5010165 L106.970898,53.1700169 C106.84165,53.3454484 106.777209,53.421161 106.777209,53.519772 C106.777209,53.6398041 106.831092,53.683385 106.981456,53.8791297 C107.207913,54.1856732 107.380121,54.4146576 107.702694,54.8729956 C108.133034,55.484236 108.358762,55.8328832 108.520049,56.0515263" id="Fill-40" fill="#D95A49"></path>
                        <path d="M110.389478,52.897821 C110.389478,53.1375159 110.465206,53.1700169 110.701129,53.1700169 L113.272973,53.1700169 C113.445182,53.1700169 113.499066,53.0174837 113.499066,52.8645813 C113.499066,52.3076323 113.057803,51.6099687 111.970667,51.6099687 C110.88426,51.6099687 110.389478,52.4169538 110.389478,52.897821 M109.367512,53.683385 C109.367512,53.4318715 109.388993,53.1814661 109.431954,52.9192421 C109.625279,51.707841 110.4754,50.7582947 112.024551,50.7582947 C113.617027,50.7582947 114.423823,51.8710847 114.423823,53.0935656 C114.423823,53.5744328 114.251614,53.7698081 113.8646,53.7698081 C113.584988,53.7698081 110.787415,53.7594669 110.561687,53.7594669 C110.335595,53.7594669 110.325036,53.8580779 110.325036,54.0324014 C110.325036,55.0691096 110.959988,55.8443324 112.003799,55.8443324 C113.391299,55.8443324 113.337415,54.8515745 113.8646,54.8515745 C114.101614,54.8515745 114.230133,54.9823171 114.230133,55.2445411 C114.230133,55.6803501 113.563143,56.6623974 111.970667,56.6623974 C110.195789,56.6623974 109.367512,55.4620763 109.367512,53.683385" id="Fill-42" fill="#D95A49"></path>
                        <path d="M116.530085,49.0338948 L116.530085,55.1898804 C116.530085,55.5599486 116.55193,55.7785917 116.852658,55.7785917 C117.013944,55.7785917 117.067828,55.7025098 117.250959,55.7025098 C117.422803,55.7025098 117.53057,55.8557816 117.53057,56.084766 C117.53057,56.3351714 117.21892,56.5323934 116.702294,56.5323934 C115.819769,56.5323934 115.6046,56.0618675 115.6046,55.2877527 C115.6046,55.0691096 115.582755,49.5140233 115.582755,49.0556853 C115.582755,48.7613296 115.690522,48.5973473 116.045862,48.5973473 C116.400837,48.5973473 116.530085,48.7498804 116.530085,49.0338948" id="Fill-44" fill="#D95A49"></path>
                        <path d="M119.229393,49.0338948 L119.229393,55.1898804 C119.229393,55.5599486 119.251238,55.7785917 119.551602,55.7785917 C119.713252,55.7785917 119.767136,55.7025098 119.949903,55.7025098 C120.122112,55.7025098 120.229879,55.8557816 120.229879,56.084766 C120.229879,56.3351714 119.917864,56.5323934 119.401238,56.5323934 C118.519078,56.5323934 118.303908,56.0618675 118.303908,55.2877527 C118.303908,55.0691096 118.282063,49.5140233 118.282063,49.0556853 C118.282063,48.7613296 118.38983,48.5973473 118.744806,48.5973473 C119.100146,48.5973473 119.229393,48.7498804 119.229393,49.0338948" id="Fill-46" fill="#D95A49"></path>
                        <path d="M125.027257,53.7926327 C125.027257,52.3729297 124.39267,51.6313159 123.31682,51.6313159 C122.33818,51.6313159 121.573981,52.2203966 121.573981,53.7926327 C121.573981,54.9272132 122.165607,55.8328093 123.262937,55.8328093 C124.39267,55.8328093 125.027257,54.9382931 125.027257,53.7926327 M126.028471,53.6722312 C126.028471,55.2330181 125.167063,56.6626929 123.294976,56.6626929 C121.520097,56.6626929 120.605898,55.3970004 120.605898,53.7383412 C120.605898,52.0682328 121.466214,50.7582208 123.274223,50.7582208 C125.350194,50.7582208 126.028471,52.253267 126.028471,53.6722312" id="Fill-48" fill="#D95A49"></path>
                        <path d="M128.111796,51.2603613 L128.111796,56.2592373 C128.111796,56.4553513 128.057913,56.5428824 127.638495,56.5428824 C127.251117,56.5428824 127.175752,56.4664312 127.175752,56.2256283 C127.175752,55.9534324 127.197597,51.8391008 127.197597,51.2382015 C127.197597,50.965267 127.293714,50.8895544 127.649053,50.8895544 C127.97199,50.8895544 128.111796,50.9442152 128.111796,51.2603613 M128.337524,49.2523163 C128.337524,49.6670735 128.111796,49.9721397 127.670898,49.9721397 C127.219078,49.9721397 126.982063,49.6670735 126.982063,49.2741068 C126.982063,48.8593497 127.208155,48.5642553 127.670898,48.5642553 C128.111796,48.5642553 128.337524,48.8593497 128.337524,49.2523163" id="Fill-50" fill="#D95A49"></path>
                        <path d="M133.049235,55.1238812 C133.049235,54.709124 132.812221,54.3929779 131.284915,54.152175 C129.864284,53.9339012 129.402269,53.2362377 129.402269,52.5367274 C129.402269,51.4568077 130.262949,50.769116 131.736371,50.769116 C133.318289,50.769116 133.963799,51.5875504 133.963799,52.1987908 C133.963799,52.4935159 133.781032,52.5917575 133.533823,52.5917575 C133.307002,52.5917575 133.157002,52.4610149 133.027755,52.2320305 C132.758701,51.8276146 132.350206,51.5986303 131.596566,51.5986303 C130.811614,51.5986303 130.402755,51.9915969 130.402755,52.4610149 C130.402755,52.9629338 130.639405,53.2244191 131.865983,53.4430622 C133.490133,53.7267073 134.017682,54.119674 134.017682,54.9927692 C134.017682,55.8222834 133.360886,56.6625082 131.715255,56.6625082 C130.091104,56.6625082 129.219138,55.7236724 129.219138,54.9820586 C129.219138,54.7966552 129.348386,54.6330422 129.574478,54.6330422 C130.241104,54.6330422 130.025934,55.8872854 131.758216,55.8872854 C132.651663,55.8872854 133.049235,55.5600594 133.049235,55.1238812" id="Fill-52" fill="#D95A49"></path>
                        <path d="M138.209964,53.7486455 C138.209964,54.9271762 138.758629,55.8331417 139.909842,55.8331417 C140.974769,55.8331417 141.631201,55.0475777 141.631201,53.6618531 C141.631201,52.3625516 140.953653,51.5766182 140.038726,51.5766182 C138.694551,51.5766182 138.209964,52.6247756 138.209964,53.7486455 M142.061905,48.5976058 C142.416881,48.5976058 142.513362,48.7612188 142.513362,49.0452332 C142.513362,49.4045909 142.5454,55.4187539 142.5454,56.2486375 C142.5454,56.4883324 142.5454,56.564045 142.147828,56.564045 C141.814333,56.564045 141.771007,56.5322826 141.738604,56.2153978 C141.696007,55.80101 141.696007,55.6691594 141.609357,55.6691594 C141.437512,55.6691594 141.211784,56.662656 139.565425,56.662656 C138.220522,56.662656 137.284478,55.506285 137.284478,53.6500345 C137.284478,51.7952613 138.425133,50.7581839 139.716517,50.7581839 C141.351226,50.7581839 141.448799,51.6419896 141.577318,51.6419896 C141.631201,51.6419896 141.642124,51.6098579 141.642124,51.4347957 C141.642124,51.172941 141.599163,50.2677142 141.599163,49.0555745 C141.599163,48.7612188 141.706566,48.5976058 142.061905,48.5976058" id="Fill-54" fill="#D95A49"></path>
                        <path d="M144.694551,52.897821 C144.694551,53.1375159 144.769915,53.1700169 145.006201,53.1700169 L147.578046,53.1700169 C147.750255,53.1700169 147.804138,53.0174837 147.804138,52.8645813 C147.804138,52.3076323 147.362876,51.6099687 146.276104,51.6099687 C145.189333,51.6099687 144.694551,52.4169538 144.694551,52.897821 M143.672585,53.683385 C143.672585,53.4318715 143.694066,53.1814661 143.737027,52.9192421 C143.930352,51.707841 144.780473,50.7582947 146.329624,50.7582947 C147.9221,50.7582947 148.728896,51.8710847 148.728896,53.0935656 C148.728896,53.5744328 148.556687,53.7698081 148.169672,53.7698081 C147.889697,53.7698081 145.092488,53.7594669 144.86676,53.7594669 C144.640667,53.7594669 144.630109,53.8580779 144.630109,54.0324014 C144.630109,55.0691096 145.264697,55.8443324 146.308871,55.8443324 C147.696007,55.8443324 147.642488,54.8515745 148.169672,54.8515745 C148.406323,54.8515745 148.535206,54.9823171 148.535206,55.2445411 C148.535206,55.6803501 147.868216,56.6623974 146.276104,56.6623974 C144.501226,56.6623974 143.672585,55.4620763 143.672585,53.683385" id="Fill-56" fill="#D95A49"></path>
                        <path d="M155.783301,55.1238812 C155.783301,54.709124 155.546286,54.3929779 154.018617,54.152175 C152.59835,53.9339012 152.135971,53.2362377 152.135971,52.5367274 C152.135971,51.4568077 152.99665,50.769116 154.470801,50.769116 C156.052354,50.769116 156.697864,51.5875504 156.697864,52.1987908 C156.697864,52.4935159 156.515097,52.5917575 156.267524,52.5917575 C156.041432,52.5917575 155.890704,52.4610149 155.761456,52.2320305 C155.492403,51.8276146 155.084272,51.5986303 154.330631,51.5986303 C153.54568,51.5986303 153.136456,51.9915969 153.136456,52.4610149 C153.136456,52.9629338 153.373471,53.2244191 154.599684,53.4430622 C156.224199,53.7267073 156.751383,54.119674 156.751383,54.9927692 C156.751383,55.8222834 156.094951,56.6625082 154.44932,56.6625082 C152.824806,56.6625082 151.95284,55.7236724 151.95284,54.9820586 C151.95284,54.7966552 152.082451,54.6330422 152.30818,54.6330422 C152.97517,54.6330422 152.759636,55.8872854 154.491917,55.8872854 C155.385364,55.8872854 155.783301,55.5600594 155.783301,55.1238812" id="Fill-58" fill="#D95A49"></path>
                        <path d="M158.373422,49.4378675 C158.373422,49.1978033 158.459345,49.0231104 158.825607,49.0231104 C159.16966,49.0231104 159.245024,49.1978033 159.245024,49.4046279 L159.245024,50.6607178 C159.245024,50.8778836 159.277063,50.8778836 159.406675,50.8778836 C159.492233,50.8778836 160.320874,50.8897021 160.62233,50.8897021 C160.772694,50.8897021 160.944539,50.9654147 160.944539,51.2822995 C160.944539,51.6206054 160.783617,51.7077672 160.62233,51.7077672 L159.449272,51.7077672 C159.298908,51.7077672 159.266869,51.7513481 159.266869,51.8824601 L159.266869,55.0472453 C159.266869,55.4841622 159.460194,55.702436 159.912015,55.702436 C160.149029,55.702436 160.288835,55.5495335 160.536044,55.5495335 C160.772694,55.5495335 160.880461,55.7570967 160.880461,55.9753705 C160.880461,56.2697262 160.55716,56.5755311 159.83665,56.5755311 C158.696359,56.5755311 158.330825,55.9314203 158.330825,54.8947122 C158.330825,54.2945516 158.362864,52.8316371 158.362864,51.9046198 C158.362864,51.7624279 158.308981,51.7077672 158.190291,51.7077672 L157.64199,51.7077672 C157.437379,51.7077672 157.319053,51.6206054 157.319053,51.4130422 C157.319053,51.194399 157.394782,51.1186865 157.652913,51.0640257 C158.244175,50.9439936 158.373422,50.9439936 158.373422,50.7803806 L158.373422,49.4378675 Z" id="Fill-60" fill="#D95A49"></path>
                        <path d="M165.547973,54.4472694 C165.547973,54.2836564 165.483532,54.2072051 165.354284,54.2072051 C165.106711,54.2072051 165.074308,54.2836564 164.084381,54.3929779 C163.094818,54.5019301 162.750036,54.7855753 162.750036,55.1781726 C162.750036,55.5825885 163.040934,55.8872854 163.75125,55.8872854 C164.773216,55.8872854 165.547973,55.2442826 165.547973,54.4472694 M165.795546,56.1280883 C165.720182,55.7783332 165.697973,55.6804609 165.623337,55.6804609 C165.440206,55.6804609 165.128556,56.684668 163.53608,56.684668 C162.384867,56.684668 161.771396,56.0084255 161.771396,55.3199952 C161.771396,54.4251096 162.309138,53.9671409 164.052706,53.8360289 C165.343362,53.7381566 165.536687,53.6177551 165.536687,53.2362377 L165.536687,52.8646921 C165.536687,52.0030462 165.063386,51.5768398 164.192512,51.5768398 C163.148701,51.5768398 162.847245,52.0462577 162.729284,52.8750333 C162.707439,53.0615448 162.546153,53.2140779 162.255255,53.2140779 C161.911566,53.2140779 161.813993,53.0504649 161.813993,52.6682088 C161.813993,51.8937246 162.438386,50.7469562 164.267148,50.7469562 C165.891663,50.7469562 166.494575,51.6315006 166.494575,53.1269161 C166.494575,53.7595777 166.516056,55.8555231 166.516056,56.3027812 C166.516056,56.5096058 166.430133,56.5638972 166.16108,56.5638972 C165.913507,56.5638972 165.859624,56.4663942 165.795546,56.1280883" id="Fill-62" fill="#D95A49"></path>
                        <path d="M168.428228,49.4378675 C168.428228,49.1978033 168.51415,49.0231104 168.880413,49.0231104 C169.224466,49.0231104 169.29983,49.1978033 169.29983,49.4046279 L169.29983,50.6607178 C169.29983,50.8778836 169.331869,50.8778836 169.461481,50.8778836 C169.547039,50.8778836 170.37568,50.8897021 170.677136,50.8897021 C170.8275,50.8897021 170.999345,50.9654147 170.999345,51.2822995 C170.999345,51.6206054 170.838422,51.7077672 170.677136,51.7077672 L169.504078,51.7077672 C169.353714,51.7077672 169.321675,51.7513481 169.321675,51.8824601 L169.321675,55.0472453 C169.321675,55.4841622 169.515,55.702436 169.96682,55.702436 C170.203835,55.702436 170.343641,55.5495335 170.59085,55.5495335 C170.8275,55.5495335 170.935267,55.7570967 170.935267,55.9753705 C170.935267,56.2697262 170.611966,56.5755311 169.891456,56.5755311 C168.751165,56.5755311 168.385631,55.9314203 168.385631,54.8947122 C168.385631,54.2945516 168.418034,52.8316371 168.418034,51.9046198 C168.418034,51.7624279 168.363786,51.7077672 168.245097,51.7077672 L167.696796,51.7077672 C167.492184,51.7077672 167.373859,51.6206054 167.373859,51.4130422 C167.373859,51.194399 167.449587,51.1186865 167.707718,51.0640257 C168.298981,50.9439936 168.428228,50.9439936 168.428228,50.7803806 L168.428228,49.4378675 Z" id="Fill-64" fill="#D95A49"></path>
                        <path d="M173.020449,51.2603613 L173.020449,56.2592373 C173.020449,56.4553513 172.96693,56.5428824 172.547148,56.5428824 C172.159769,56.5428824 172.084405,56.4664312 172.084405,56.2256283 C172.084405,55.9534324 172.105886,51.8391008 172.105886,51.2382015 C172.105886,50.965267 172.202367,50.8895544 172.557706,50.8895544 C172.880643,50.8895544 173.020449,50.9442152 173.020449,51.2603613 M173.246177,49.2523163 C173.246177,49.6670735 173.020449,49.9721397 172.579187,49.9721397 C172.127731,49.9721397 171.890716,49.6670735 171.890716,49.2741068 C171.890716,48.8593497 172.116444,48.5642553 172.579187,48.5642553 C173.020449,48.5642553 173.246177,48.8593497 173.246177,49.2523163" id="Fill-66" fill="#D95A49"></path>
                        <path d="M177.957888,55.1238812 C177.957888,54.709124 177.721238,54.3929779 176.193568,54.152175 C174.772937,53.9339012 174.310558,53.2362377 174.310558,52.5367274 C174.310558,51.4568077 175.171602,50.769116 176.645388,50.769116 C178.226942,50.769116 178.872451,51.5875504 178.872451,52.1987908 C178.872451,52.4935159 178.689684,52.5917575 178.442112,52.5917575 C178.216019,52.5917575 178.065655,52.4610149 177.936044,52.2320305 C177.66699,51.8276146 177.258859,51.5986303 176.505218,51.5986303 C175.720267,51.5986303 175.311044,51.9915969 175.311044,52.4610149 C175.311044,52.9629338 175.548058,53.2244191 176.774272,53.4430622 C178.398786,53.7267073 178.925971,54.119674 178.925971,54.9927692 C178.925971,55.8222834 178.269539,56.6625082 176.623908,56.6625082 C174.999393,56.6625082 174.127791,55.7236724 174.127791,54.9820586 C174.127791,54.7966552 174.257039,54.6330422 174.482767,54.6330422 C175.149757,54.6330422 174.934223,55.8872854 176.666505,55.8872854 C177.559951,55.8872854 177.957888,55.5600594 177.957888,55.1238812" id="Fill-68" fill="#D95A49"></path>
                        <path d="M180.548046,49.4378675 C180.548046,49.1978033 180.633968,49.0231104 181.000231,49.0231104 C181.344284,49.0231104 181.420012,49.1978033 181.420012,49.4046279 L181.420012,50.6607178 C181.420012,50.8778836 181.451687,50.8778836 181.581299,50.8778836 C181.667221,50.8778836 182.495862,50.8897021 182.796954,50.8897021 C182.947318,50.8897021 183.119163,50.9654147 183.119163,51.2822995 C183.119163,51.6206054 182.95824,51.7077672 182.796954,51.7077672 L181.623896,51.7077672 C181.473532,51.7077672 181.441493,51.7513481 181.441493,51.8824601 L181.441493,55.0472453 C181.441493,55.4841622 181.634818,55.702436 182.086638,55.702436 C182.323653,55.702436 182.463459,55.5495335 182.710667,55.5495335 C182.947318,55.5495335 183.055085,55.7570967 183.055085,55.9753705 C183.055085,56.2697262 182.732148,56.5755311 182.011274,56.5755311 C180.871347,56.5755311 180.505449,55.9314203 180.505449,54.8947122 C180.505449,54.2945516 180.537852,52.8316371 180.537852,51.9046198 C180.537852,51.7624279 180.483604,51.7077672 180.364915,51.7077672 L179.816614,51.7077672 C179.612002,51.7077672 179.493677,51.6206054 179.493677,51.4130422 C179.493677,51.194399 179.569405,51.1186865 179.827536,51.0640257 C180.419163,50.9439936 180.548046,50.9439936 180.548046,50.7803806 L180.548046,49.4378675 Z" id="Fill-70" fill="#D95A49"></path>
                        <path d="M185.140267,51.2603613 L185.140267,56.2592373 C185.140267,56.4553513 185.086748,56.5428824 184.666966,56.5428824 C184.279587,56.5428824 184.204223,56.4664312 184.204223,56.2256283 C184.204223,55.9534324 184.225704,51.8391008 184.225704,51.2382015 C184.225704,50.965267 184.322184,50.8895544 184.677524,50.8895544 C185.000461,50.8895544 185.140267,50.9442152 185.140267,51.2603613 M185.365995,49.2523163 C185.365995,49.6670735 185.140267,49.9721397 184.699005,49.9721397 C184.247549,49.9721397 184.010534,49.6670735 184.010534,49.2741068 C184.010534,48.8593497 184.236626,48.5642553 184.699005,48.5642553 C185.140267,48.5642553 185.365995,48.8593497 185.365995,49.2523163" id="Fill-72" fill="#D95A49"></path>
                        <path d="M189.022791,55.832957 C189.979951,55.832957 190.712112,55.0806327 190.712112,53.769882 C190.712112,52.3730775 190.152888,51.5875134 188.979466,51.5875134 C187.839539,51.5875134 187.301068,52.4934789 187.301068,53.6720096 C187.301068,54.8076981 187.741966,55.832957 189.022791,55.832957 M188.893908,50.7583685 C190.356772,50.7583685 190.539903,51.6096732 190.712112,51.6096732 C190.787476,51.6096732 190.787476,51.5660923 190.883592,51.1941774 C190.95932,50.8894805 191.002282,50.8237399 191.304102,50.8237399 C191.52983,50.8237399 191.615752,50.9001911 191.615752,51.139886 L191.615752,58.0489346 C191.615752,58.2339687 191.561869,58.3218691 191.163568,58.3218691 C190.808956,58.3218691 190.701189,58.2675777 190.701189,57.9835632 L190.701189,57.7652894 C190.701189,56.6410502 190.722306,56.2698739 190.722306,55.9862288 C190.722306,55.7897455 190.712112,55.7350847 190.668786,55.7350847 C190.528617,55.7350847 190.388811,56.6521301 188.731893,56.6521301 C187.440874,56.6521301 186.354466,55.5493119 186.354466,53.7813312 C186.354466,51.99156 187.258471,50.7583685 188.893908,50.7583685" id="Fill-74" fill="#D95A49"></path>
                        <path d="M192.990328,54.5237206 C192.990328,52.777161 192.979041,53.1154669 192.979041,51.1731626 C192.979041,50.9873898 193.012172,50.8562778 193.441784,50.8562778 C193.872488,50.8562778 193.915085,50.9873898 193.915085,51.2710349 C193.915085,51.4568077 193.926007,53.7813681 193.926007,54.3268679 C193.926007,55.408265 194.345789,55.8222834 195.088143,55.8222834 C195.873095,55.8222834 196.658774,55.211043 196.658774,53.7928173 C196.658774,51.3918057 196.669333,51.5875504 196.669333,51.1942144 C196.669333,50.96523 196.713022,50.8780682 197.142998,50.8780682 C197.58426,50.8780682 197.616663,50.998839 197.616663,51.1942144 C197.616663,54.0978836 197.58426,55.7236724 197.58426,56.095218 C197.58426,56.4663942 197.508896,56.5321349 197.217998,56.5321349 C196.916905,56.5321349 196.874308,56.4663942 196.820425,56.095218 C196.776735,55.7676226 196.745061,55.7572814 196.669333,55.7572814 C196.454891,55.7572814 196.325279,56.6732188 194.872609,56.6732188 C193.926007,56.6732188 192.990328,56.2592003 192.990328,54.5237206" id="Fill-76" fill="#D95A49"></path>
                        <path d="M199.743896,52.897821 C199.743896,53.1375159 199.819624,53.1700169 200.055546,53.1700169 L202.627755,53.1700169 C202.7996,53.1700169 202.853483,53.0174837 202.853483,52.8645813 C202.853483,52.3076323 202.412221,51.6099687 201.325449,51.6099687 C200.238677,51.6099687 199.743896,52.4169538 199.743896,52.897821 M198.72193,53.683385 C198.72193,53.4318715 198.743774,53.1814661 198.786371,52.9192421 C198.979697,51.707841 199.829818,50.7582947 201.378968,50.7582947 C202.971444,50.7582947 203.77824,51.8710847 203.77824,53.0935656 C203.77824,53.5744328 203.606032,53.7698081 203.219017,53.7698081 C202.939041,53.7698081 200.141833,53.7594669 199.916104,53.7594669 C199.690376,53.7594669 199.679454,53.8580779 199.679454,54.0324014 C199.679454,55.0691096 200.314405,55.8443324 201.358216,55.8443324 C202.745716,55.8443324 202.691833,54.8515745 203.219017,54.8515745 C203.455667,54.8515745 203.584551,54.9823171 203.584551,55.2445411 C203.584551,55.6803501 202.917925,56.6623974 201.325449,56.6623974 C199.550206,56.6623974 198.72193,55.4620763 198.72193,53.683385" id="Fill-78" fill="#D95A49"></path>
                        <path d="M208.132245,52.897821 C208.132245,53.1375159 208.207609,53.1700169 208.443896,53.1700169 L211.01574,53.1700169 C211.187949,53.1700169 211.241468,53.0174837 211.241468,52.8645813 C211.241468,52.3076323 210.800206,51.6099687 209.713434,51.6099687 C208.627027,51.6099687 208.132245,52.4169538 208.132245,52.897821 M207.109915,53.683385 C207.109915,53.4318715 207.13176,53.1814661 207.174357,52.9192421 C207.368046,51.707841 208.218167,50.7582947 209.767318,50.7582947 C211.359794,50.7582947 212.166226,51.8710847 212.166226,53.0935656 C212.166226,53.5744328 211.994381,53.7698081 211.607367,53.7698081 C211.327391,53.7698081 208.529818,53.7594669 208.30409,53.7594669 C208.078362,53.7594669 208.067803,53.8580779 208.067803,54.0324014 C208.067803,55.0691096 208.702391,55.8443324 209.746566,55.8443324 C211.133701,55.8443324 211.080182,54.8515745 211.607367,54.8515745 C211.844017,54.8515745 211.9729,54.9823171 211.9729,55.2445411 C211.9729,55.6803501 211.30591,56.6623974 209.713434,56.6623974 C207.938556,56.6623974 207.109915,55.4620763 207.109915,53.683385" id="Fill-80" fill="#D95A49"></path>
                        <path d="M213.842294,49.4378675 C213.842294,49.1978033 213.928216,49.0231104 214.294478,49.0231104 C214.638532,49.0231104 214.71426,49.1978033 214.71426,49.4046279 L214.71426,50.6607178 C214.71426,50.8778836 214.745934,50.8778836 214.875546,50.8778836 C214.961468,50.8778836 215.789745,50.8897021 216.091201,50.8897021 C216.241566,50.8897021 216.41341,50.9654147 216.41341,51.2822995 C216.41341,51.6206054 216.252488,51.7077672 216.091201,51.7077672 L214.918143,51.7077672 C214.767779,51.7077672 214.735376,51.7513481 214.735376,51.8824601 L214.735376,55.0472453 C214.735376,55.4841622 214.929066,55.702436 215.380886,55.702436 C215.6179,55.702436 215.757706,55.5495335 216.004915,55.5495335 C216.241566,55.5495335 216.348968,55.7570967 216.348968,55.9753705 C216.348968,56.2697262 216.026032,56.5755311 215.305522,56.5755311 C214.165231,56.5755311 213.799697,55.9314203 213.799697,54.8947122 C213.799697,54.2945516 213.831735,52.8316371 213.831735,51.9046198 C213.831735,51.7624279 213.777852,51.7077672 213.659163,51.7077672 L213.110862,51.7077672 C212.90625,51.7077672 212.787925,51.6206054 212.787925,51.4130422 C212.787925,51.194399 212.863653,51.1186865 213.121784,51.0640257 C213.713046,50.9439936 213.842294,50.9439936 213.842294,50.7803806 L213.842294,49.4378675 Z" id="Fill-82" fill="#D95A49"></path>
                        <path d="M220.563167,53.7486455 C220.563167,54.9271762 221.111833,55.8331417 222.26341,55.8331417 C223.327973,55.8331417 223.984041,55.0475777 223.984041,53.6618531 C223.984041,52.3625516 223.306857,51.5766182 222.391566,51.5766182 C221.047755,51.5766182 220.563167,52.6247756 220.563167,53.7486455 M224.414745,48.5976058 C224.770085,48.5976058 224.866566,48.7612188 224.866566,49.0452332 C224.866566,49.4045909 224.898604,55.4187539 224.898604,56.2486375 C224.898604,56.4883324 224.898604,56.564045 224.500667,56.564045 C224.167172,56.564045 224.124211,56.5322826 224.091808,56.2153978 C224.049211,55.80101 224.049211,55.6691594 223.962561,55.6691594 C223.790716,55.6691594 223.564988,56.662656 221.918629,56.662656 C220.573362,56.662656 219.637682,55.506285 219.637682,53.6500345 C219.637682,51.7952613 220.778337,50.7581839 222.069721,50.7581839 C223.704794,50.7581839 223.802002,51.6419896 223.930522,51.6419896 C223.984041,51.6419896 223.995692,51.6098579 223.995692,51.4347957 C223.995692,51.172941 223.952367,50.2677142 223.952367,49.0555745 C223.952367,48.7612188 224.059769,48.5976058 224.414745,48.5976058" id="Fill-84" fill="#D95A49"></path>
                        <path d="M227.488799,51.8172365 C227.478604,52.1333826 227.338434,52.2534147 227.058095,52.2534147 C226.800328,52.2534147 226.7246,52.0894324 226.714405,51.8393962 C226.682002,50.976273 226.649235,49.5790992 226.649235,49.3719053 C226.649235,49.0771802 226.800328,48.9685974 227.090862,48.9685974 C227.45676,48.9685974 227.574721,49.0997094 227.574721,49.3833545 C227.574721,49.7763212 227.521201,50.9988021 227.488799,51.8172365" id="Fill-86" fill="#D95A49"></path>
                        <path d="M232.899502,54.4472694 C232.899502,54.2836564 232.835425,54.2072051 232.706177,54.2072051 C232.458604,54.2072051 232.426201,54.2836564 231.436274,54.3929779 C230.446711,54.5019301 230.10193,54.7855753 230.10193,55.1781726 C230.10193,55.5825885 230.392828,55.8872854 231.102779,55.8872854 C232.125109,55.8872854 232.899502,55.2442826 232.899502,54.4472694 M233.147075,56.1280883 C233.071711,55.7783332 233.049867,55.6804609 232.975231,55.6804609 C232.7921,55.6804609 232.480449,56.684668 230.887973,56.684668 C229.736396,56.684668 229.123289,56.0084255 229.123289,55.3199952 C229.123289,54.4251096 229.660667,53.9671409 231.4046,53.8360289 C232.694891,53.7381566 232.88858,53.6177551 232.88858,53.2362377 L232.88858,52.8646921 C232.88858,52.0030462 232.415279,51.5768398 231.544041,51.5768398 C230.500231,51.5768398 230.199138,52.0462577 230.081177,52.8750333 C230.059333,53.0615448 229.898046,53.2140779 229.607148,53.2140779 C229.263095,53.2140779 229.165886,53.0504649 229.165886,52.6682088 C229.165886,51.8937246 229.790279,50.7469562 231.618677,50.7469562 C233.243556,50.7469562 233.846468,51.6315006 233.846468,53.1269161 C233.846468,53.7595777 233.867949,55.8555231 233.867949,56.3027812 C233.867949,56.5096058 233.782027,56.5638972 233.512973,56.5638972 C233.2654,56.5638972 233.211153,56.4663942 233.147075,56.1280883" id="Fill-88" fill="#D95A49"></path>
                        <path d="M239.81483,52.9086423 C239.81483,54.6330422 239.825388,54.349397 239.825388,56.2806214 C239.825388,56.4663942 239.717621,56.5325042 239.287282,56.5325042 C238.93267,56.5325042 238.889345,56.4663942 238.889345,56.1941983 C238.889345,55.9862658 238.878786,53.5848848 238.878786,53.0175945 C238.878786,52.0573376 238.491408,51.6418418 237.79165,51.6418418 C236.963374,51.6418418 236.124539,52.1659205 236.124539,53.465222 L236.124539,56.2484898 C236.124539,56.4556837 236.103058,56.5428454 235.629757,56.5428454 C235.274417,56.5428454 235.209612,56.4556837 235.209612,56.2592003 C235.209612,53.3773216 235.231092,51.6315006 235.231092,51.2603244 C235.231092,50.9441782 235.338859,50.8895175 235.618471,50.8895175 C235.93085,50.8895175 236.00585,50.932729 236.037888,51.2278234 C236.091408,51.6750815 236.091408,51.7404528 236.178422,51.7404528 C236.350267,51.7404528 236.586553,50.7584055 237.931456,50.7584055 C238.878786,50.7584055 239.81483,51.1731626 239.81483,52.9086423" id="Fill-90" fill="#D95A49"></path>
                        <path d="M244.815218,54.4472694 C244.815218,54.2836564 244.750777,54.2072051 244.621893,54.2072051 C244.37432,54.2072051 244.341917,54.2836564 243.35199,54.3929779 C242.362427,54.5019301 242.017646,54.7855753 242.017646,55.1781726 C242.017646,55.5825885 242.308544,55.8872854 243.018495,55.8872854 C244.040825,55.8872854 244.815218,55.2442826 244.815218,54.4472694 M245.062791,56.1280883 C244.987427,55.7783332 244.965583,55.6804609 244.890947,55.6804609 C244.707816,55.6804609 244.396165,56.684668 242.803689,56.684668 C241.652112,56.684668 241.039005,56.0084255 241.039005,55.3199952 C241.039005,54.4251096 241.576383,53.9671409 243.320316,53.8360289 C244.610607,53.7381566 244.804296,53.6177551 244.804296,53.2362377 L244.804296,52.8646921 C244.804296,52.0030462 244.330995,51.5768398 243.459757,51.5768398 C242.415947,51.5768398 242.114854,52.0462577 241.996893,52.8750333 C241.975049,53.0615448 241.813762,53.2140779 241.522864,53.2140779 C241.178811,53.2140779 241.081602,53.0504649 241.081602,52.6682088 C241.081602,51.8937246 241.705995,50.7469562 243.534393,50.7469562 C245.159272,50.7469562 245.762184,51.6315006 245.762184,53.1269161 C245.762184,53.7595777 245.783665,55.8555231 245.783665,56.3027812 C245.783665,56.5096058 245.697743,56.5638972 245.428689,56.5638972 C245.181117,56.5638972 245.126869,56.4663942 245.062791,56.1280883" id="Fill-92" fill="#D95A49"></path>
                        <path d="M248.126396,49.0338948 L248.126396,55.1898804 C248.126396,55.5599486 248.14824,55.7785917 248.448604,55.7785917 C248.609891,55.7785917 248.664138,55.7025098 248.846905,55.7025098 C249.01875,55.7025098 249.126517,55.8557816 249.126517,56.084766 C249.126517,56.3351714 248.814867,56.5323934 248.29824,56.5323934 C247.41608,56.5323934 247.200546,56.0618675 247.200546,55.2877527 C247.200546,55.0691096 247.178701,49.5140233 247.178701,49.0556853 C247.178701,48.7613296 247.286468,48.5973473 247.641808,48.5973473 C247.997148,48.5973473 248.126396,48.7498804 248.126396,49.0338948" id="Fill-94" fill="#D95A49"></path>
                        <g id="Group-98" transform="translate(249.029126, 50.598153)">
                            <mask id="mask-2" fill="white">
                                <use xlink:href="#path-1"></use>
                            </mask>
                            <g id="Clip-97"></g>
                            <path d="M0.946092233,0.291437977 C1.16162621,0.291437977 1.24754854,0.323200321 1.31199029,0.52042232 L2.59245146,4.71157447 C2.63541262,4.84194781 2.68893204,4.91839904 2.82873786,4.91839904 C2.9798301,4.91839904 3.02242718,4.82089603 3.05446602,4.7219157 L4.19548544,0.61903332 C4.25992718,0.389310317 4.35677184,0.291437977 4.59342233,0.291437977 L5.01320388,0.291437977 C5.18541262,0.291437977 5.23893204,0.3778611 5.23893204,0.498631875 C5.23893204,0.67295544 5.17412621,0.836937776 5.13152913,0.989470895 L3.45313107,6.26091208 C3.17351942,7.14545644 2.67837379,7.75595825 1.73104369,7.75595825 C1.30143204,7.75595825 1.16162621,7.58126536 1.16162621,7.28690967 C1.16162621,7.03613489 1.32291262,6.87215255 1.64548544,6.87215255 C2.31211165,6.87215255 2.60300971,6.35878442 2.60300971,6.09803774 C2.60300971,5.98871618 2.2476699,6.08621919 2.0325,5.51819029 C1.89305825,5.15920193 1.60288835,4.29681734 1.3331068,3.57625532 C0.741480583,1.99330871 0.634441748,1.52462947 0.429466019,0.978391008 C0.354101942,0.781907668 0.322063107,0.67295544 0.322063107,0.541843436 C0.322063107,0.389310317 0.397427184,0.291437977 0.601674757,0.291437977 L0.946092233,0.291437977 Z" id="Fill-96" fill="#D95A49" mask="url(#mask-2)"></path>
                        </g>
                        <path d="M258.633823,55.1238812 C258.633823,54.709124 258.397172,54.3929779 256.869502,54.152175 C255.449235,53.9339012 254.986857,53.2362377 254.986857,52.5367274 C254.986857,51.4568077 255.847536,50.769116 257.321323,50.769116 C258.902876,50.769116 259.548386,51.5875504 259.548386,52.1987908 C259.548386,52.4935159 259.365983,52.5917575 259.11841,52.5917575 C258.891954,52.5917575 258.74159,52.4610149 258.612342,52.2320305 C258.343289,51.8276146 257.934794,51.5986303 257.181517,51.5986303 C256.396201,51.5986303 255.987342,51.9915969 255.987342,52.4610149 C255.987342,52.9629338 256.224357,53.2244191 257.45057,53.4430622 C259.075085,53.7267073 259.602269,54.119674 259.602269,54.9927692 C259.602269,55.8222834 258.945473,56.6625082 257.300206,56.6625082 C255.675692,56.6625082 254.803726,55.7236724 254.803726,54.9820586 C254.803726,54.7966552 254.933337,54.6330422 255.159066,54.6330422 C255.825692,54.6330422 255.610522,55.8872854 257.342803,55.8872854 C258.23625,55.8872854 258.633823,55.5600594 258.633823,55.1238812" id="Fill-99" fill="#D95A49"></path>
                        <path d="M261.38574,52.897821 C261.38574,53.1375159 261.461104,53.1700169 261.697391,53.1700169 L264.269235,53.1700169 C264.441444,53.1700169 264.494964,53.0174837 264.494964,52.8645813 C264.494964,52.3076323 264.053701,51.6099687 262.96693,51.6099687 C261.880522,51.6099687 261.38574,52.4169538 261.38574,52.897821 M260.36341,53.683385 C260.36341,53.4318715 260.385255,53.1814661 260.427852,52.9192421 C260.621541,51.707841 261.471663,50.7582947 263.020813,50.7582947 C264.613289,50.7582947 265.419721,51.8710847 265.419721,53.0935656 C265.419721,53.5744328 265.247876,53.7698081 264.860862,53.7698081 C264.580886,53.7698081 261.783313,53.7594669 261.557585,53.7594669 C261.331857,53.7594669 261.321299,53.8580779 261.321299,54.0324014 C261.321299,55.0691096 261.955886,55.8443324 263.000061,55.8443324 C264.387197,55.8443324 264.333677,54.8515745 264.860862,54.8515745 C265.097512,54.8515745 265.226396,54.9823171 265.226396,55.2445411 C265.226396,55.6803501 264.559405,56.6623974 262.96693,56.6623974 C261.192051,56.6623974 260.36341,55.4620763 260.36341,53.683385" id="Fill-101" fill="#D95A49"></path>
                        <path d="M283.46432,36.2649892 C282.041505,34.0327611 279.15182,30.9052782 275.938107,30.9052782 C273.809709,30.9052782 271.695146,32.5295897 271.695146,35.2508101 C271.695146,37.88967 274.104248,39.5306014 276.198058,39.5306014 C278.501942,39.5306014 279.612743,38.7963741 281.554369,39.1963581 C283.073301,39.5077029 283.889927,40.2578113 284.298058,40.6559486 C284.493568,40.8461534 284.73932,40.8675745 284.911165,40.752713 C285.079369,40.6411754 285.192233,40.425487 285.079369,39.9180281 C284.816869,38.7239855 284.189199,37.3962457 283.46432,36.2649892" id="Fill-103" fill="#9B9B9B"></path>
                        <path d="M295.632852,30.90321 C292.422051,30.90321 289.532367,34.0318009 288.109187,36.2651369 C287.384672,37.3982401 286.761007,38.7274572 286.491954,39.9137439 C286.380182,40.4252654 286.491954,40.6409538 286.662342,40.7528607 C286.834551,40.8673529 287.081396,40.8463011 287.2729,40.6527724 C287.681032,40.2575897 288.503119,39.5078507 290.018046,39.1976138 C291.958216,38.7998458 293.073022,39.5296411 295.374357,39.5296411 C297.469624,39.5296411 299.875813,37.8898177 299.875813,35.2505885 C299.875813,32.5319534 297.764891,30.90321 295.632852,30.90321" id="Fill-105" fill="#9B9B9B"></path>
                        <path d="M289.822536,32.413731 C290.753119,31.5886487 291.350206,31.0099093 291.800934,30.3414227 C292.201056,29.7527114 292.639405,28.9176572 292.639405,27.8111457 C292.639405,25.2875167 290.665012,23.5509289 288.512221,23.5509289 C287.324235,23.5509289 286.338313,24.0569105 285.786735,24.7974163 C285.236614,24.0569105 284.250692,23.5509289 283.060158,23.5509289 C280.909915,23.5509289 278.93807,25.2875167 278.93807,27.8111457 C278.93807,28.9176572 279.375328,29.7527114 279.767803,30.3414227 C280.223265,31.0099093 280.81926,31.5886487 281.749842,32.413731 C283.108944,33.6062963 284.223386,34.7733778 285.286493,37.0565733 C285.3746,37.2360674 285.554454,37.4421534 285.786735,37.4421534 C286.02193,37.4421534 286.197779,37.2360674 286.286978,37.0565733 C287.350449,34.7733778 288.464891,33.6062963 289.822536,32.413731 M285.786735,35.5552485 C284.30858,32.3099494 282.278847,31.6429402 280.78358,29.5702625 C280.404211,29.0469225 280.190498,28.4663364 280.190498,27.8351521 C280.190498,26.1716917 281.521566,24.7974163 283.16392,24.7974163 C284.588192,24.7974163 285.475813,25.8880466 285.786735,26.665116 C286.098022,25.8880466 286.985279,24.7974163 288.412464,24.7974163 C290.050813,24.7974163 291.381881,26.1716917 291.381881,27.8351521 C291.381881,28.4663364 291.16926,29.0469225 290.788434,29.5702625 C289.294624,31.6429402 287.268896,32.3099494 285.786735,35.5552485" id="Fill-107" fill="#9B9B9B"></path>
                        <path d="M255.678859,37.7459269 C255.432015,37.7459269 255.316602,37.7906158 255.158956,37.7906158 C254.866238,37.7906158 254.778131,37.6325428 254.778131,37.1952565 C254.778131,36.0784039 254.866238,25.9879502 254.866238,24.6417439 C254.866238,23.6345821 254.419879,23.3660795 253.335291,23.3660795 C252.169515,23.3660795 251.739175,23.7981951 251.739175,24.594839 L251.739175,37.3570229 C251.739175,39.0932413 252.643544,40.2562601 254.533835,40.2562601 C255.906044,40.2562601 256.557015,39.7539719 256.557015,38.7951923 C256.557015,38.1119326 256.265388,37.7459269 255.678859,37.7459269" id="Fill-109" fill="#9B9B9B"></path>
                        <path d="M244.653786,27.8843838 C240.918714,27.8843838 238.822354,30.3725572 238.822354,33.8649378 C238.822354,37.7672742 241.051238,40.2347652 244.631214,40.2347652 C248.434733,40.2347652 249.827694,38.1779687 249.827694,37.0400642 C249.827694,36.2618868 249.29068,35.8534083 248.702694,35.8534083 C247.061432,35.8534083 247.574782,37.6978402 244.767015,37.6978402 C243.054757,37.6978402 241.883883,36.5303894 241.883883,34.9825291 C241.883883,34.6180008 241.93085,34.3897551 242.423447,34.3897551 C242.944806,34.3897551 248.23267,34.4126536 248.86034,34.4126536 C249.737039,34.4126536 250.166286,34.1404576 250.166286,32.7687676 C250.166286,29.6423926 248.164587,27.8843838 244.653786,27.8843838 M246.881578,32.7687676 L242.470777,32.7687676 C242.066286,32.7687676 241.973083,32.6306383 241.973083,32.2897471 C241.973083,31.4908872 242.760947,30.2576957 244.741893,30.2576957 C246.65585,30.2576957 247.44335,31.4011401 247.44335,32.2432116 C247.44335,32.6106945 247.309733,32.7687676 246.881578,32.7687676" id="Fill-111" fill="#9B9B9B"></path>
                        <path d="M233.245449,33.2717575 C230.701638,32.8152662 230.320813,32.404941 230.320813,31.5373858 C230.320813,30.7163661 231.037682,30.304933 232.322876,30.304933 C233.402002,30.304933 234.123968,30.6450855 234.63841,31.5373858 C234.820813,31.8575945 235.17943,32.2657037 235.81074,32.2657037 C236.731129,32.2657037 237.270692,31.8575945 237.270692,31.0786784 C237.270692,29.4362698 235.81074,27.905768 232.346177,27.905768 C229.800546,27.905768 227.323362,29.1153224 227.323362,31.7663701 C227.323362,33.3615046 228.00091,34.802998 231.242294,35.3481285 C233.828701,35.783568 234.550667,35.9634316 234.550667,36.7630301 C234.550667,37.3317977 234.123968,37.9075825 232.547148,37.9075825 C229.531857,37.9075825 229.756129,35.9416411 228.315837,35.9416411 C227.528337,35.9416411 227.189381,36.3327611 227.189381,37.1534115 C227.189381,38.2931626 228.516808,40.2561493 232.230765,40.2561493 C235.988046,40.2561493 237.653701,38.5886263 237.653701,36.6278555 C237.653701,35.0083452 236.979066,33.9350735 233.245449,33.2717575" id="Fill-113" fill="#9B9B9B"></path>
                        <path d="M188.684672,27.7682296 C185.850328,27.7682296 185.400328,29.4135929 185.016954,29.4135929 C184.838556,29.4135929 184.792318,29.3219992 184.792318,28.9124127 C184.792318,28.52277 184.838556,28.1560257 184.838556,26.9918988 L184.838556,24.6414853 C184.838556,23.8422561 184.658337,23.3661903 183.239163,23.3661903 C181.956881,23.3661903 181.553847,23.7731915 181.553847,24.6414853 C181.553847,32.4727499 181.5746,36.9907587 181.5746,38.7949338 C181.5746,39.5487354 181.864769,39.9605379 182.860158,39.9605379 C183.622536,39.9605379 184.0729,39.7780891 184.203968,39.0704536 C184.389284,38.1330951 184.364527,37.9735448 184.565498,37.9735448 C184.995837,37.9735448 184.972172,40.123043 188.507731,40.123043 C191.499357,40.123043 193.342682,37.5395825 193.342682,33.8636451 C193.342682,29.8460779 191.545231,27.7682296 188.684672,27.7682296 M187.3354,37.6766038 C185.75858,37.6766038 184.680546,36.3303974 184.680546,34.0929988 C184.680546,31.4666961 185.871444,30.6268406 187.469017,30.6268406 C189.091711,30.6268406 190.105303,31.4666961 190.105303,33.9349257 C190.105303,36.3529265 188.997051,37.6766038 187.3354,37.6766038" id="Fill-115" fill="#9B9B9B"></path>
                        <path d="M263.084527,33.2717575 C260.537439,32.8152662 260.15807,32.404941 260.15807,31.5373858 C260.15807,30.7163661 260.877488,30.304933 262.16159,30.304933 C263.23926,30.304933 263.962682,30.6450855 264.47858,31.5373858 C264.659527,31.8575945 265.017051,32.2657037 265.649818,32.2657037 C266.571299,32.2657037 267.110862,31.8575945 267.110862,31.0786784 C267.110862,29.4362698 265.649818,27.905768 262.183799,27.905768 C259.640716,27.905768 257.164988,29.1153224 257.164988,31.7663701 C257.164988,33.3615046 257.837075,34.802998 261.079551,35.3481285 C263.667415,35.783568 264.387925,35.9634316 264.387925,36.7630301 C264.387925,37.3317977 263.962682,37.9075825 262.383313,37.9075825 C259.37057,37.9075825 259.59375,35.9416411 258.153459,35.9416411 C257.367051,35.9416411 257.031007,36.3327611 257.031007,37.1534115 C257.031007,38.2931626 258.358434,40.2561493 262.068386,40.2561493 C265.82676,40.2561493 267.493871,38.5886263 267.493871,36.6278555 C267.493871,35.0083452 266.818143,33.9350735 263.084527,33.2717575" id="Fill-117" fill="#9B9B9B"></path>
                        <path d="M221.607379,33.2717575 C219.06466,32.8152662 218.683835,32.404941 218.683835,31.5373858 C218.683835,30.7163661 219.404345,30.304933 220.690995,30.304933 C221.767573,30.304933 222.488447,30.6450855 223.004345,31.5373858 C223.186748,31.8575945 223.541359,32.2657037 224.17267,32.2657037 C225.097063,32.2657037 225.639175,31.8575945 225.639175,31.0786784 C225.639175,29.4362698 224.17267,27.905768 220.708107,27.905768 C218.167937,27.905768 215.690752,29.1153224 215.690752,31.7663701 C215.690752,33.3615046 216.365388,34.802998 219.606772,35.3481285 C222.191359,35.783568 222.917694,35.9634316 222.917694,36.7630301 C222.917694,37.3317977 222.488447,37.9075825 220.913083,37.9075825 C217.894879,37.9075825 218.122063,35.9416411 216.68068,35.9416411 C215.891723,35.9416411 215.556772,36.3327611 215.556772,37.1534115 C215.556772,38.2931626 216.883835,40.2561493 220.595243,40.2561493 C224.356529,40.2561493 226.019636,38.5886263 226.019636,36.6278555 C226.019636,35.0083452 225.347549,33.9350735 221.607379,33.2717575" id="Fill-119" fill="#9B9B9B"></path>
                        <path d="M200.791675,28.1577615 C198.474684,28.1577615 198.066189,30.1665452 197.688277,30.1665452 C197.530631,30.1665452 197.462184,30.0538996 197.348228,29.2764609 C197.216796,28.4089057 196.988519,28.1577615 196.047015,28.1577615 C195.09932,28.1577615 194.807694,28.4089057 194.807694,29.160122 C194.807694,29.9349755 194.715947,32.7452043 194.715947,38.7951923 C194.715947,39.6424344 195.143738,40.0058547 196.334636,40.0058547 C197.61983,40.0058547 197.933301,39.616212 197.933301,38.7951923 L197.933301,34.552334 C197.933301,32.2432854 198.924684,31.103165 200.814976,31.103165 C201.964005,31.103165 202.11983,30.3493633 202.11983,29.5047065 C202.11983,28.4997607 201.714612,28.1577615 200.791675,28.1577615" id="Fill-121" fill="#9B9B9B"></path>
                        <path d="M212.405898,28.1577615 C211.212816,28.1577615 210.808325,28.4543332 210.808325,29.160122 C210.808325,29.891764 210.851286,30.8738113 210.851286,33.702876 C210.851286,36.2169024 210.063786,37.4715151 208.463665,37.4715151 C207.161359,37.4715151 206.418277,36.4673079 206.418277,34.4592629 C206.418277,33.2943974 206.465607,29.5944536 206.465607,29.1852365 C206.465607,28.2921975 205.995583,28.0890662 204.844005,28.0890662 C203.558811,28.0890662 203.243883,28.475385 203.243883,29.2291867 C203.243883,33.2718683 203.271553,31.5821855 203.271553,35.2367017 C203.271553,38.5887371 204.550194,40.2562601 207.185024,40.2562601 C210.402743,40.2562601 210.517063,37.9043693 210.898617,37.9043693 C211.101044,37.9043693 211.101044,38.3383316 211.212816,38.8413585 C211.368641,39.548994 211.662816,39.9604271 212.652743,39.9604271 C213.595704,39.9604271 214.003835,39.5024585 214.003835,38.7501341 C214.003835,37.973434 214.070461,30.5790863 214.070461,29.2096122 C214.070461,28.3645861 213.553471,28.1577615 212.405898,28.1577615" id="Fill-123" fill="#9B9B9B"></path>
                        <path d="M177.964296,36.6776042 C175.982257,37.0565363 176.289175,39.6754524 177.964296,39.8819077 C180.567451,40.2017471 180.596578,36.1756853 177.964296,36.6776042" id="Fill-125" fill="#9B9B9B"></path>
                        <path d="M52.3045267,17.7595456 C51.0189684,17.7595456 50.6286772,17.4334275 50.6286772,16.5485138 C50.6286772,15.9431827 50.6974879,8.04987073 50.6974879,6.7686664 C50.6974879,5.90702047 50.9272209,5.60490887 52.3045267,5.60490887 C53.4979733,5.60490887 53.8423908,6.04699639 53.8423908,6.90864231 C53.8423908,8.30544681 53.8653277,15.4770887 53.8653277,16.6415849 C53.8653277,17.5028615 53.5897209,17.7595456 52.3045267,17.7595456 M52.2586529,4.30117543 C51.0189684,4.30117543 50.2616869,3.48606503 50.2616869,2.36773505 C50.2616869,1.25014372 50.904284,0.31906383 52.235716,0.31906383 C53.7047694,0.31906383 54.3014927,1.22724528 54.3014927,2.50771096 C54.3014927,3.53260056 53.4062257,4.30117543 52.2586529,4.30117543" id="Fill-127" fill="#D95A49"></path>
                        <path d="M64.7441505,11.4957527 C64.7441505,8.98061823 63.7112621,8.1189723 62.0587136,8.1189723 C60.4287379,8.1189723 59.2123544,8.98061823 59.2123544,11.6586271 C59.2123544,13.9399759 60.3140534,15.3146206 61.9210922,15.3146206 C63.6195146,15.3146206 64.7441505,13.9643517 64.7441505,11.4957527 L64.7441505,11.4957527 Z M59.3732767,4.41681253 C59.3732767,5.6049458 59.3270388,5.97723003 59.3270388,6.37315134 C59.3270388,6.79234043 59.3732767,6.88541148 59.5564078,6.88541148 C59.946699,6.88541148 60.405801,5.20865516 63.298034,5.20865516 C66.2132039,5.20865516 68.0496117,7.32823766 68.0496117,11.4259494 C68.0496117,15.1746447 66.1673301,17.8064874 63.1145388,17.8064874 C59.5108981,17.8064874 59.5334709,15.6167322 59.0976699,15.6167322 C58.8908738,15.6167322 58.9138107,15.7803452 58.7303155,16.7343236 C58.5926942,17.4567322 58.1335922,17.642505 57.3530097,17.642505 C56.3430583,17.642505 56.0448786,17.2236853 56.0448786,16.4554797 C56.0448786,14.6151104 56.0215777,10.0055078 56.0215777,2.01838619 C56.0215777,1.13384183 56.4351699,0.71465275 57.743301,0.71465275 C59.1894175,0.71465275 59.3732767,1.20327579 59.3732767,2.01838619 L59.3732767,4.41681253 Z" id="Fill-129" fill="#D95A49"></path>
                        <path d="M74.5891748,15.5475568 C76.1962136,15.5475568 76.6323786,14.965124 76.6323786,14.3830606 C76.6323786,13.5679502 75.8976699,13.3818081 73.2581068,12.9393513 C69.9526456,12.3809249 69.2641748,10.9132092 69.2641748,9.28298836 C69.2641748,6.58245042 71.7890534,5.34852027 74.3827427,5.34852027 C77.9175728,5.34852027 79.4095631,6.90856845 79.4095631,8.58495544 C79.4095631,9.37642874 78.8587136,9.79598715 77.9175728,9.79598715 C77.2749757,9.79598715 76.9076214,9.37642874 76.7241262,9.05068005 C76.1962136,8.14249859 75.4615049,7.79274348 74.3598058,7.79274348 C73.0516748,7.79274348 72.316966,8.21267122 72.316966,9.05068005 C72.316966,9.93559374 72.7072573,10.3551521 75.3013107,10.8197688 C79.1110194,11.4956419 79.7998544,12.5895961 79.7998544,14.2430847 C79.7998544,16.2455897 78.101068,17.9452445 74.2680583,17.9452445 C70.4805583,17.9452445 69.1261893,15.9431088 69.1261893,14.7793513 C69.1261893,13.9398651 69.4706068,13.5446825 70.2737621,13.5446825 C71.7431796,13.5446825 71.5134466,15.5475568 74.5891748,15.5475568" id="Fill-131" fill="#D95A49"></path>
                        <path d="M88.727585,12.6131224 C88.4290413,12.6131224 87.9470024,13.1024841 86.5238228,13.4049651 C85.2153277,13.6845476 84.2974879,13.7078153 84.2974879,14.6392646 C84.2974879,15.2678635 84.8712743,15.7332188 85.7436044,15.7332188 C87.8781917,15.7332188 88.9336529,14.033564 88.9336529,12.9861453 C88.9336529,12.7530984 88.8644782,12.6131224 88.727585,12.6131224 L88.727585,12.6131224 Z M89.0024636,10.1445235 C89.0024636,8.81863027 88.3139927,7.95698434 86.7531917,7.95698434 C84.3662985,7.95698434 84.4351092,9.88894741 84.3204248,10.4244753 C84.2286772,10.9130984 83.8380218,11.1926809 82.7592597,11.1926809 C81.5195752,11.1926809 81.1984587,10.68079 81.1984587,9.67953754 C81.1984587,7.93260859 82.2087743,5.30187395 86.7990655,5.30187395 C90.2425121,5.30187395 92.1473665,6.79211883 92.1473665,10.4942786 C92.1473665,10.4942786 92.1244296,16.105503 92.1244296,16.6414002 C92.1244296,17.3401718 91.8946966,17.7131947 90.70125,17.7131947 C89.9206675,17.7131947 89.6454248,17.3401718 89.5311044,16.7806375 C89.3472451,15.8968318 89.3472451,15.7568559 89.1863228,15.7568559 C88.7963956,15.7568559 88.1530704,17.9687708 84.687415,17.9687708 C82.5528277,17.9687708 81.0837743,16.7584777 81.0837743,15.0115488 C81.0837743,10.7040578 89.0024636,13.1253826 89.0024636,10.7040578 L89.0024636,10.1445235 Z" id="Fill-133" fill="#D95A49"></path>
                        <path d="M59.2365655,33.9090727 C59.2365655,31.8134966 58.1348665,30.6497391 56.4819539,30.6497391 C55.1505218,30.6497391 53.8653277,31.8371337 53.8653277,33.9556082 C53.8653277,36.6339864 54.9211529,37.7977439 56.5507646,37.7977439 C58.1807403,37.7977439 59.2365655,36.8197591 59.2365655,33.9090727 L59.2365655,33.9090727 Z M53.796517,40.9647451 C53.796517,41.5697069 53.8427549,42.3848173 53.8427549,42.850542 C53.8427549,43.5958491 53.5438471,43.9681333 52.2127791,43.9681333 C51.2487015,43.9681333 50.5369296,43.7587234 50.5369296,42.850542 C50.5369296,36.6339864 50.6057403,29.8346287 50.6057403,29.042786 C50.6057403,28.2513127 50.7666626,27.9248254 51.9604733,27.9248254 C52.8553762,27.9248254 53.0621723,28.1346046 53.3144782,29.1827619 C53.4291626,29.6481172 53.5209102,29.7880931 53.6818325,29.7880931 C54.2093811,29.7880931 54.5996723,27.7855881 57.4693325,27.7855881 C60.4300121,27.7855881 62.5190898,29.9978723 62.5190898,34.1886552 C62.5190898,38.1707668 60.0630218,40.4059494 57.3313471,40.4059494 C54.9211529,40.4059494 54.3703034,39.1018466 54.002949,39.1018466 C53.8653277,39.1018466 53.796517,39.1949177 53.796517,39.3810598 L53.796517,40.9647451 Z" id="Fill-135" fill="#9B9B9B"></path>
                        <path d="M71.9277306,32.7451674 C72.3638956,32.7451674 72.501517,32.5822931 72.501517,32.2100088 C72.501517,31.3483629 71.6983617,30.1834974 69.7472694,30.1834974 C67.7270024,30.1834974 66.9238471,31.441434 66.9238471,32.2565444 C66.9238471,32.6051915 67.0155947,32.7451674 67.4288228,32.7451674 L71.9277306,32.7451674 Z M69.6322209,40.3592662 C65.9827063,40.3592662 63.7101335,37.844501 63.7101335,33.8623894 C63.7101335,30.3002055 65.845085,27.762542 69.6551578,27.762542 C73.2358617,27.762542 75.2790655,29.5548984 75.2790655,32.7451674 C75.2790655,34.1419719 74.8429005,34.4219237 73.9476335,34.4219237 C73.3050364,34.4219237 67.9108617,34.398656 67.382949,34.398656 C66.8779733,34.398656 66.8320995,34.6305949 66.8320995,35.0036178 C66.8320995,36.5869338 68.0259102,37.7743284 69.7702063,37.7743284 C72.6395024,37.7743284 72.1115898,35.8889008 73.7870752,35.8889008 C74.3837985,35.8889008 74.9346481,36.3077206 74.9346481,37.0991939 C74.9346481,38.2629514 73.5118325,40.3592662 69.6322209,40.3592662 L69.6322209,40.3592662 Z" id="Fill-137" fill="#9B9B9B"></path>
                        <path d="M80.0058859,38.8925106 C80.0058859,39.7305195 79.6844053,40.1264408 78.3759102,40.1264408 C77.1595267,40.1264408 76.7233617,39.7534179 76.7233617,38.8925106 C76.7233617,32.7217519 76.8151092,29.8579703 76.8151092,29.066497 C76.8151092,28.2975528 77.1132888,28.0412381 78.0777306,28.0412381 C79.0418083,28.0412381 79.2711772,28.2975528 79.4087985,29.1828358 C79.5238471,29.9746784 79.5926578,30.0902786 79.753216,30.0902786 C80.1431432,30.0902786 80.5567354,28.0412381 82.9210558,28.0412381 C83.8618325,28.0412381 84.2750607,28.3909932 84.2750607,29.4151441 C84.2750607,30.27679 84.1145024,31.0453649 82.9439927,31.0453649 C81.0158374,31.0453649 80.0058859,32.2098611 80.0058859,34.5610132 L80.0058859,38.8925106 Z" id="Fill-139" fill="#9B9B9B"></path>
                        <path d="M90.5630825,37.9843292 C92.1704854,37.9843292 92.6062864,37.4022658 92.6062864,36.819833 C92.6062864,36.0047226 91.8715777,35.8189498 89.2320146,35.3761236 C85.9265534,34.817328 85.2380825,33.3503509 85.2380825,31.7204994 C85.2380825,29.0195921 87.7629612,27.785662 90.3566505,27.785662 C93.8914806,27.785662 95.3834709,29.3449715 95.3834709,31.0217278 C95.3834709,31.8135705 94.8326214,32.2331289 93.8914806,32.2331289 C93.2488835,32.2331289 92.8818932,31.8135705 92.698034,31.4878218 C92.1704854,30.5796403 91.4354126,30.2302545 90.3337136,30.2302545 C89.0255825,30.2302545 88.2908738,30.6498129 88.2908738,31.4878218 C88.2908738,32.3723661 88.681165,32.7915552 91.2752184,33.2572798 C95.0845631,33.9324143 95.7741262,35.0271072 95.7741262,36.6805957 C95.7741262,38.6827314 94.0753398,40.3827555 90.241966,40.3827555 C86.4548301,40.3827555 85.1000971,38.3795118 85.1000971,37.2157543 C85.1000971,36.3773762 85.4445146,35.9810855 86.248034,35.9810855 C87.7170874,35.9810855 87.4877184,37.9843292 90.5630825,37.9843292" id="Fill-141" fill="#9B9B9B"></path>
                        <path d="M105.986432,33.9090727 C105.986432,31.8134966 104.885097,30.6497391 103.232184,30.6497391 C101.900752,30.6497391 100.615194,31.8371337 100.615194,33.9556082 C100.615194,36.6339864 101.671019,37.7977439 103.300267,37.7977439 C104.930971,37.7977439 105.986432,36.8197591 105.986432,33.9090727 L105.986432,33.9090727 Z M100.546019,40.9647451 C100.546019,41.5697069 100.592257,42.3848173 100.592257,42.850542 C100.592257,43.5958491 100.294078,43.9681333 98.9626456,43.9681333 C97.998568,43.9681333 97.286432,43.7587234 97.286432,42.850542 C97.286432,36.6339864 97.3559709,29.8346287 97.3559709,29.042786 C97.3559709,28.2513127 97.516165,27.9248254 98.7103398,27.9248254 C99.6048786,27.9248254 99.8124029,28.1346046 100.064345,29.1827619 C100.179029,29.6481172 100.270413,29.7880931 100.432063,29.7880931 C100.959612,29.7880931 101.349539,27.7855881 104.219199,27.7855881 C107.179515,27.7855881 109.268592,29.9978723 109.268592,34.1886552 C109.268592,38.1707668 106.812888,40.4059494 104.081578,40.4059494 C101.671019,40.4059494 101.119806,39.1018466 100.752816,39.1018466 C100.615194,39.1018466 100.546019,39.1949177 100.546019,39.3810598 L100.546019,40.9647451 Z" id="Fill-143" fill="#9B9B9B"></path>
                        <path d="M118.677925,32.7451674 C119.114454,32.7451674 119.251711,32.5822931 119.251711,32.2100088 C119.251711,31.3483629 118.44892,30.1834974 116.497464,30.1834974 C114.477561,30.1834974 113.674041,31.441434 113.674041,32.2565444 C113.674041,32.6051915 113.766153,32.7451674 114.179017,32.7451674 L118.677925,32.7451674 Z M116.382415,40.3592662 C112.7329,40.3592662 110.460328,37.844501 110.460328,33.8623894 C110.460328,30.3002055 112.594915,27.762542 116.405352,27.762542 C119.986056,27.762542 122.028896,29.5548984 122.028896,32.7451674 C122.028896,34.1419719 121.593095,34.4219237 120.697828,34.4219237 C120.055231,34.4219237 114.66142,34.398656 114.133143,34.398656 C113.628167,34.398656 113.582294,34.6305949 113.582294,35.0036178 C113.582294,36.5869338 114.77574,37.7743284 116.5204,37.7743284 C119.389697,37.7743284 118.861056,35.8889008 120.537633,35.8889008 C121.133629,35.8889008 121.684842,36.3077206 121.684842,37.0991939 C121.684842,38.2629514 120.262027,40.3592662 116.382415,40.3592662 L116.382415,40.3592662 Z" id="Fill-145" fill="#9B9B9B"></path>
                        <path d="M123.0371,33.8160016 C123.0371,30.393055 125.171687,27.7623204 129.119381,27.7623204 C132.814769,27.7623204 134.445473,29.7415576 134.445473,32.0232758 C134.445473,32.8383862 133.848022,33.2572059 132.906881,33.2572059 C132.310158,33.2572059 131.85142,33.0237896 131.667561,32.5351666 C131.139648,31.1150943 130.955789,30.4166921 129.005061,30.4166921 C127.283337,30.4166921 126.1354,31.4877479 126.1354,34.0490486 C126.1354,36.2842312 127.2604,37.7744761 129.234794,37.7744761 C132.103362,37.7744761 131.55324,35.8886792 133.228362,35.8886792 C133.825085,35.8886792 134.375934,36.307499 134.375934,37.0993416 C134.375934,38.2630992 132.998629,40.3594139 129.119381,40.3594139 C125.057002,40.3594139 123.0371,37.4948936 123.0371,33.8160016" id="Fill-147" fill="#9B9B9B"></path>
                        <path d="M140.686493,30.5097262 C140.227755,30.5097262 140.181881,30.6497021 140.181881,30.9983493 C140.181881,32.2791843 140.158944,35.7955713 140.158944,36.5176106 C140.158944,37.402155 140.45676,37.8442425 141.191833,37.8442425 C141.857731,37.8442425 141.903604,37.5650293 142.45409,37.5650293 C143.050813,37.5650293 143.486614,37.9609506 143.486614,38.7989595 C143.486614,39.8234797 142.477027,40.3826447 140.480425,40.3826447 C138.093167,40.3826447 136.991104,39.0781726 136.991104,37.0062336 C136.991104,34.8408543 136.968532,32.8383493 136.968532,30.9983493 C136.968532,30.6497021 136.922658,30.5097262 136.647051,30.5097262 L135.820595,30.5097262 C135.384066,30.5097262 135.177998,30.3003163 135.177998,29.4615688 C135.177998,28.8562377 135.361857,28.4606857 135.911978,28.3676146 C136.66926,28.2512758 136.968532,28.0880321 136.968532,27.7161172 C136.968532,27.0631425 136.991104,25.9928254 136.991104,25.3871248 C136.991104,24.4556756 137.472779,24.059385 138.620716,24.059385 C139.768653,24.059385 140.204818,24.4324079 140.204818,25.3405893 L140.204818,27.6692124 C140.204818,27.9716933 140.318774,28.0411273 140.548871,28.0411273 L142.615012,28.0411273 C143.188799,28.0411273 143.464405,28.2745436 143.464405,29.2757961 C143.464405,30.2534115 143.211735,30.5097262 142.545473,30.5097262 L140.686493,30.5097262 Z" id="Fill-149" fill="#9B9B9B"></path>
                        <path d="M146.630133,40.1963179 C145.344575,40.1963179 144.954284,39.8698306 144.954284,38.9852862 C144.954284,38.3795857 145.023459,30.4866431 145.023459,29.2058081 C145.023459,28.3441622 145.252464,28.0413119 146.630133,28.0413119 C147.82358,28.0413119 148.168362,28.4841381 148.168362,29.3450454 C148.168362,30.7425885 148.19057,37.9142304 148.19057,39.0783573 C148.19057,39.9400032 147.915328,40.1963179 146.630133,40.1963179 M146.58426,26.7375785 C145.344575,26.7375785 144.58693,25.9228374 144.58693,24.8052461 C144.58693,23.6872854 145.229891,22.7554669 146.561323,22.7554669 C148.030376,22.7554669 148.626735,23.6636483 148.626735,24.9444833 C148.626735,25.9693729 147.732197,26.7375785 146.58426,26.7375785" id="Fill-151" fill="#9B9B9B"></path>
                        <path d="M159.57517,28.041275 C160.080874,28.041275 160.332816,28.2975897 160.332816,28.7633143 C160.332816,28.9727242 160.286578,29.2057712 160.19483,29.4617166 C159.965097,30.1601188 159.781238,30.8817888 158.748714,33.9324512 C157.762427,36.8427684 157.578568,37.3092316 157.302961,38.1472405 C156.752112,39.7534548 156.177961,40.2195488 154.938641,40.2195488 C153.401141,40.2195488 153.01085,39.7301871 152.459636,38.1007049 C152.184029,37.2855945 152.115218,37.1227202 151.03682,33.8161124 C150.600291,32.4887419 150.118252,31.1617407 149.865583,30.3702674 C149.544102,29.4151811 149.476019,29.1127001 149.476019,28.7164095 C149.476019,28.3441253 149.682087,28.041275 150.233301,28.041275 L151.334636,28.041275 C152.023471,28.041275 152.345316,28.3441253 152.505874,29.0192597 C152.735607,29.7878346 152.964612,30.5331417 153.447015,32.3022304 C154.616796,36.6104601 154.570922,36.7496973 155.007451,36.7496973 C155.305995,36.7496973 155.351869,36.4006809 155.971893,34.0956949 C156.522015,32.0001188 157.02699,29.974346 157.256723,28.9963613 C157.417646,28.2746913 157.83051,28.041275 158.519709,28.041275 L159.57517,28.041275 Z" id="Fill-153" fill="#9B9B9B"></path>
                        <path d="M169.374684,32.7451674 C169.811214,32.7451674 169.948107,32.5822931 169.948107,32.2100088 C169.948107,31.3483629 169.14568,30.1834974 167.194223,30.1834974 C165.17432,30.1834974 164.371165,31.441434 164.371165,32.2565444 C164.371165,32.6051915 164.462913,32.7451674 164.875777,32.7451674 L169.374684,32.7451674 Z M167.079175,40.3592662 C163.42966,40.3592662 161.157087,37.844501 161.157087,33.8623894 C161.157087,30.3002055 163.291675,27.762542 167.102476,27.762542 C170.682816,27.762542 172.725655,29.5548984 172.725655,32.7451674 C172.725655,34.1419719 172.289854,34.4219237 171.394587,34.4219237 C170.751626,34.4219237 165.35818,34.398656 164.829903,34.398656 C164.324927,34.398656 164.279053,34.6305949 164.279053,35.0036178 C164.279053,36.5869338 165.4725,37.7743284 167.216796,37.7743284 C170.086092,37.7743284 169.557816,35.8889008 171.234393,35.8889008 C171.830388,35.8889008 172.381602,36.3077206 172.381602,37.0991939 C172.381602,38.2629514 170.958786,40.3592662 167.079175,40.3592662 L167.079175,40.3592662 Z" id="Fill-155" fill="#9B9B9B"></path>
                    </g>
                </g>
            </g>
        </g>
    </g>
</svg>