<svg xmlns="http://www.w3.org/2000/svg" width="208" height="29" viewBox="0 0 208 29">
    <g fill="none" fill-rule="evenodd">
        <path fill="#3B1A00" d="M119.386 7.44c1.61 0 2.275.28 2.275 1.492 0 .561-.063 5.601-.063 7.187 0 2.738 1.042 4.107 2.874 4.107 2.244 0 3.35-1.711 3.35-5.133 0-3.857-.065-5.195-.065-6.192 0-.964.57-1.368 2.245-1.368 1.61 0 2.337.28 2.337 1.431 0 1.867-.096 11.946-.096 13.003 0 1.028-.568 1.65-1.895 1.65-1.39 0-1.8-.56-2.02-1.525-.159-.683-.159-1.275-.445-1.275-.537 0-.695 3.204-5.212 3.204-3.697 0-5.496-2.272-5.496-6.843v-.636c-.002-4.149-.031-2.29-.031-7.547 0-1.026.44-1.555 2.242-1.555m80.504-.25c4.864 0 6.918 2.086 6.918 4.325 0 1.058-.759 1.618-2.054 1.618-.885 0-1.39-.56-1.642-.995-.727-1.214-1.739-1.68-3.253-1.68-1.802 0-2.812.56-2.812 1.68 0 1.182.536 1.742 4.107 2.364 5.243.9 6.19 2.363 6.19 4.573 0 2.674-2.337 4.946-7.612 4.946-5.214 0-7.076-2.675-7.076-4.231 0-1.12.472-1.65 1.58-1.65 2.022 0 1.705 2.677 5.938 2.677 2.211 0 2.811-.778 2.811-1.555 0-1.09-1.01-1.338-4.643-1.93-4.55-.746-5.497-2.707-5.497-4.884 0-3.609 3.475-5.258 7.045-5.258m-58.23 0c4.865 0 6.92 2.086 6.92 4.325 0 1.058-.76 1.618-2.055 1.618-.886 0-1.39-.56-1.642-.995-.727-1.214-1.739-1.68-3.254-1.68-1.801 0-2.812.56-2.812 1.68 0 1.182.538 1.742 4.107 2.364 5.244.9 6.191 2.363 6.191 4.573 0 2.674-2.337 4.946-7.613 4.946-5.213 0-7.076-2.675-7.076-4.231 0-1.12.473-1.65 1.579-1.65 2.023 0 1.705 2.677 5.94 2.677 2.211 0 2.81-.778 2.81-1.555 0-1.09-1.01-1.338-4.642-1.93-4.55-.746-5.498-2.707-5.498-4.884 0-3.609 3.475-5.258 7.045-5.258m16.334 0c4.866 0 6.92 2.086 6.92 4.325 0 1.058-.76 1.618-2.054 1.618-.885 0-1.39-.56-1.643-.995-.727-1.214-1.737-1.68-3.254-1.68-1.801 0-2.811.56-2.811 1.68 0 1.182.537 1.742 4.106 2.364 5.243.9 6.191 2.363 6.191 4.573 0 2.674-2.336 4.946-7.613 4.946-5.212 0-7.074-2.675-7.074-4.231 0-1.12.473-1.65 1.579-1.65 2.02 0 1.705 2.677 5.937 2.677 2.212 0 2.812-.778 2.812-1.555 0-1.09-1.01-1.338-4.644-1.93-4.55-.746-5.496-2.707-5.496-4.884 0-3.609 3.475-5.258 7.044-5.258M187.472 1c1.517 0 2.15.374 2.15 1.742v.24c-.009 2.563-.127 15.4-.127 16.87 0 .592.127.809.537.809.221 0 .38-.063.728-.063.82 0 1.231.497 1.231 1.432 0 1.306-.917 1.99-2.845 1.99-2.652 0-3.916-1.586-3.916-3.95V2.68c0-1.09.6-1.68 2.242-1.68M175.277 7.16c4.928 0 7.74 2.395 7.74 6.657 0 1.866-.6 2.239-1.832 2.239h-.338c-1.707-.004-8.03-.03-8.697-.03-.696 0-.759.31-.759.807 0 2.118 1.643 3.704 4.045 3.704 3.948 0 3.221-2.52 5.528-2.52.82 0 1.579.56 1.579 1.618 0 1.555-1.96 4.354-7.297 4.354-5.024 0-8.151-3.358-8.151-8.678 0-4.761 2.939-8.151 8.182-8.151M81 19.106c2.179 0 2.748.84 2.748 2.332 0 1.68-1.041 2.427-2.653 2.427-1.675 0-2.623-.933-2.623-2.427 0-1.648 1.01-2.332 2.528-2.332m8.055-18.104c1.99 0 2.244.652 2.244 1.74v3.205c0 1.586-.064 2.083-.064 2.614 0 .56.064.684.318.684.536 0 1.167-2.24 5.148-2.24 4.012 0 6.54 2.83 6.54 8.306 0 5.008-2.592 8.524-6.791 8.524-4.961 0-4.93-2.925-5.53-2.925-.284 0-.253.219-.506 1.493-.189.964-.821 1.213-1.895 1.213-1.39 0-1.8-.56-1.8-1.586 0-2.458-.032-8.617-.032-19.288 0-1.182.57-1.74 2.368-1.74m24.645 6.53c1.294 0 1.863.467 1.863 1.837 0 1.151-.221 2.179-1.832 2.179-2.654 0-4.044 1.554-4.044 4.695v5.787c0 1.118-.442 1.65-2.242 1.65-1.674 0-2.276-.498-2.276-1.65l.001-.898c.008-7.626.126-11.211.126-12.23 0-1.027.41-1.37 1.737-1.37 1.327 0 1.644.343 1.832 1.525.16 1.058.254 1.214.475 1.214.536 0 1.105-2.738 4.36-2.738m-18.704 3.36c-2.245 0-3.917 1.15-3.917 4.729 0 3.049 1.515 4.884 3.728 4.884 2.337 0 3.885-1.806 3.885-5.102 0-3.36-1.422-4.51-3.696-4.51m80.408-.499c-2.78 0-3.886 1.68-3.886 2.77 0 .465.128.652.696.652h6.192c.6 0 .79-.218.79-.715 0-1.152-1.106-2.707-3.792-2.707" transform="translate(0 .387)"/>
        <path fill="#C32F1B" d="M26.18 5.458c4.055 0 6.914 3.159 6.914 9.14 0 5.684-3.363 8.874-7.103 8.874-3.3 0-4.054-1.862-4.557-1.862-.188 0-.283.133-.283.4v2.26c0 .864.064 2.027.064 2.692 0 1.063-.408 1.596-2.231 1.596-1.32 0-2.295-.3-2.295-1.596 0-8.874.094-18.58.094-19.708 0-1.132.22-1.597 1.854-1.597 1.226 0 1.509.3 1.855 1.797.156.663.282.863.503.863.722 0 1.257-2.859 5.185-2.859m-18.985 0c4.841 0 6.883 2.228 6.883 4.62 0 1.13-.753 1.729-2.042 1.729-.88 0-1.383-.598-1.635-1.064-.721-1.297-1.727-1.794-3.236-1.794-1.79 0-2.797.597-2.797 1.794 0 1.263.534 1.862 4.085 2.527 5.217.962 6.16 2.525 6.16 4.885 0 2.858-2.325 5.284-7.574 5.284-5.184 0-7.04-2.857-7.04-4.52 0-1.196.472-1.761 1.572-1.761 2.011 0 1.697 2.859 5.908 2.859 2.2 0 2.797-.832 2.797-1.663 0-1.163-1.005-1.43-4.62-2.06C1.13 15.494.187 13.401.187 11.074c0-3.856 3.457-5.617 7.007-5.617M68.865.141c1.57 0 2.167.53 2.167 1.828v3.324c0 .432.158.531.472.531h2.828c.785 0 1.163.332 1.163 1.762 0 1.396-.347 1.761-1.258 1.761h-2.545c-.629 0-.692.2-.692.698 0 1.827-.03 6.847-.03 7.876 0 1.264.408 1.895 1.414 1.895.912 0 .974-.4 1.728-.4.817 0 1.414.566 1.414 1.762 0 1.463-1.383 2.261-4.117 2.261-3.269 0-4.777-1.861-4.777-4.82 0-3.091-.03-5.95-.03-8.574 0-.499-.064-.698-.441-.698h-1.13c-.599 0-.882-.3-.882-1.495 0-.863.252-1.43 1.007-1.562 1.036-.167 1.445-.4 1.445-.932 0-.93.031-2.46.031-3.323 0-1.329.66-1.894 2.232-1.894M42.87 5.426c5.312 0 8.297 2.925 8.297 9.04 0 4.719-2.923 8.94-8.107 8.94-5.123 0-8.328-3.456-8.328-8.874 0-5.916 2.765-9.04 8.138-9.106m18.859.398c1.289 0 1.854.499 1.854 1.96 0 1.231-.22 2.328-1.823 2.328-2.64 0-4.022 1.662-4.022 5.017v6.182c0 1.197-.44 1.763-2.231 1.763-1.666 0-2.263-.532-2.263-1.763 0-8.807.125-12.895.125-14.025 0-1.097.41-1.462 1.73-1.462 1.318 0 1.633.365 1.82 1.629.16 1.13.253 1.296.474 1.296.533 0 1.1-2.925 4.336-2.925m-36.9 3.722c-1.822 0-3.582 1.696-3.582 4.719 0 3.823 1.446 5.485 3.677 5.485 2.232 0 3.677-1.397 3.677-5.55 0-2.991-1.51-4.654-3.772-4.654m18.01 0c-2.858 0-3.896 2.561-3.896 5.251 0 2.827 1.288 4.785 4.022 4.785 2.766 0 4.118-2.325 4.118-4.785 0-2.891-.912-5.25-4.244-5.25" transform="translate(0 .387)"/>
    </g>
</svg>
