<svg xmlns:xlink="http://www.w3.org/1999/xlink" xmlns="http://www.w3.org/2000/svg" viewBox="0 0 255.1 272.1" width="255.1"  height="272.1" ><g fill="#000"><path d="M135.9 192c-.3.5-.6 1.1-.6 1.6.6 0 1.5-1.1 1.3-1.7-.1 0-.4.2-.7.1zM27.1 242.6h-5.8l-4.2-16.1-4.3 16.1H7.1l-7-26.5h6.5l3.9 17.5 4.3-17.5H20l4.3 17.6 4-17.6h5.9l-7.1 26.5zM53 232v10.6h-6.4V232l-8.5-15.9H45l5.1 10.6 4.9-10.6h6.5L53 232zM67.7 242.6v-26.5h17.8v5.2H74v5.6h8.1v4.1H74v6.3h11.5v5.3H67.7zM118.1 242.6h-6l-8.6-26.5h6.7l5.2 18.2 5.3-18.2h6.2l-8.8 26.5zM145.8 242.6l-1.5-5.3h-7.4l-1.6 5.3h-5.9l8-26.5h7l8 26.5h-6.6zm-5.2-19.3l-2.6 9.6h5.1l-2.5-9.6zM158.8 242.6v-26.5h6.4v21.2h11.5v5.3h-17.9zM183.7 242.6v-26.5h6.3v21.2h11.5v5.3h-17.8zM208.5 242.6v-26.5h17.9v5.2h-11.5v5.6h8v4.1h-8v6.3h11.5v5.3h-17.9zM246.5 232v10.6h-6.4V232l-8.4-15.9h6.8l5.1 10.6 4.9-10.6h6.6l-8.6 15.9zM55.6 262.9c1.9.6 2.9 2.1 2.9 4.2 0 2.9-2.1 4.4-6.3 4.4H38.8v-16.7h13.5c1.7 0 3 .4 4 1.2 1 .8 1.5 1.9 1.5 3.3 0 1.6-.7 2.8-2.2 3.6zm-3.2-1.1c.8 0 1.4-.2 1.9-.7.5-.4.8-1 .8-1.6 0-.7-.2-1.2-.7-1.6-.5-.4-1.1-.6-1.9-.6H41.6v4.5h10.8zm-.2 7.3c2.3 0 3.5-.8 3.5-2.3 0-1.6-1-2.5-3-2.5h-11v4.7h10.5v.1zM86.9 271.6h-3.2l-4.5-6.4h-8.4v6.4H68v-16.7h13.2c1.8 0 3.1.5 4.1 1.4 1 .9 1.5 2.2 1.5 3.8 0 1.4-.4 2.6-1.2 3.4-.8.8-1.8 1.3-3.1 1.5l4.4 6.6zm-6.2-8.9c2.1 0 3.2-.9 3.2-2.6 0-1.8-1.2-2.8-3.5-2.8h-9.8v5.4h10.1zM113.3 271.6H95.8v-16.8h16.9v2.5H98.6v4.3h9.8v2.5h-9.8v5h14.7v2.5zM146.9 254.8l-5.5 16.8h-3.6l-4.2-14-4.1 14h-3.6l-5.5-16.8h3.1l4.2 14 4.2-14h3.5l4.2 14.1 4.2-14.1h3.1zM172.5 271.6h-17.6v-16.8h16.9v2.5h-14.1v4.3h9.8v2.5h-9.8v5h14.8v2.5zM200.2 271.6H197l-4.5-6.4H184v6.4h-2.8v-16.7h13.2c1.8 0 3.1.5 4.1 1.4 1 .9 1.5 2.2 1.5 3.8 0 1.4-.4 2.6-1.2 3.4-.8.8-1.8 1.3-3.1 1.5l4.5 6.6zm-6.1-8.9c2.1 0 3.2-.9 3.2-2.6 0-1.8-1.2-2.8-3.5-2.8H184v5.4h10.1zM226.6 254.8l-9.2 10.2v6.6h-2.8V265l-9.1-10.2h3.5l7 7.8 7.1-7.8h3.5zM166.1 180.3c1.7.2 3.8-.5 5.1-2.2 1.3-1.7.4-4 1.2-5.6l-1.8.7c-3.1 1.6-2.6 4.7-4.5 7.1zM160.8 179.9c1.6 0 5.3-.8 4.8-4.8-1.9.3-5.7 1-4.8 4.8zM175.1 172.2c-1.5.1-1.5 1.9-1.3 3 .2 1.3.6 3.8 2.1 4.2.5.2.3-.7.2-1 0-.2 0-.4.1-.6.1-.7.5-1.4.8-2.1.3-.8.6-2.2.3-3-.3-.7-1.4-.5-2.2-.5zM57.3 161.5c-.5.4-1 .8-1.1 1.3.6.2 1.8-.6 1.8-1.2 0 0-.4.1-.7-.1zM55.5 157.4c.5-.2 1.3-1.1 1.1-1.4-.1-.2-.3-.3-.4-.4-.2-.3 0-.5-.2-.8-.5.5-1 1.3-1.2 1.9 0 .3.1.9.7.7zM56.3 156.9c.1.3.1.6.2 1 .1.3.3.8.5 1 .5.5 1.8-.8 1.6-1.3-.1-.3-.4-.6-.6-.9-.1-.3-.2-.6-.5-.8-.4.1-.9.7-1.2 1zM57.5 151.9c-.2-.1-.3-.2-.5-.1-.8.3-1.5 1.2-1.7 2 0 .1-.1.3-.1.4 0 .2-.1.5.1.6.1.1.3-.1.4-.2.2-.2.4-.5.6-.7.2-.2.6-.3.8-.5.3-.2.5-.4.7-.6.1-.1.2-.2.2-.3 0-.1-.1-.2-.1-.3-.2-.1-.3-.2-.4-.3zM57.8 154.3c0-.4 0-.7-.1-1-.4.3-.9.5-1.2.8-.5.4 0 1.7.6 1.6.8-.1.7-1 .7-1.4zM58.1 152.9c-.2.1-.2 1.2-.1 1.7.2 1.1 1.1.9 1.8.2 0-.3-.2-.7-.4-1-.3-.3-1.1-1-1.3-.9zM60.4 154.8c.2.1.4.1.6.1.2 0 .5.2.6.1 0-.2 0-.7-.2-1.1-.2-.4-.7-1.1-1-1-.3 0-.4.3-.8.5 0 .5.4 1.2.8 1.4z"/><path d="M59.8 158.3h-.6s-.4-.2-.3-.2c-.5.3-.9 1.3-1.7 1.2-.1.2.1.4 0 .6-.1-.3-.3-.8-.5-.7-.5.2-1.6 1.8-1.6 1.8s.1.3.1.4c.1.3.2.5.3.7.1.1.2.3.4.2l.3-.3c.5-.5 1-1.2 1.1-1.9 0 .2.1.4.1.6 0 .1 0 .4.2.5.1.1.2-.1.3-.1.2-.1.3-.3.5-.4 0 .1 0 .1-.1.2v.2c.1.1.2.1.3 0 .5-.3.8-.9 1.1-1.4.1-.2.7-1 .7-1.2-.1-.1-.4-.2-.6-.2zM56.7 158.9c-.4-.6-.3-1.1-.6-1.6-.2 0-.3.2-.5.3-.2.1-.6.1-.7.3-.3.2-.2 1-.2 1.3 0 .5 0 1 .3 1.4 0 0 0 .1.1 0 .1-.2 1.7-1.7 1.6-1.7zM62 156.3c0-.3-.1-.6-.2-.8-.2-.2-.4-.1-.7-.2-.1 0-.3-.1-.4-.2-.2-.1-.3-.1-.5-.2s-.3 0-.5.1c-.2.2-.4.3-.6.4-.2.1-.4 0-.6 0-.1 0-.4-.1-.4.2 0 .3.2.6.3.9.1.3.3.5.5.7l.1.1c.1.1.3.2.4.3.2.1.3.2.5.3.2.1.5.3.7.5.2.1.5.2.6 0 .1-.1.2-.3.2-.5.3-.5.7-1 .6-1.6zM197.8 161s-.1.4-.4.5c.1.6.2 1.2.6 1.6.4-.4.4-1.7-.2-2.1zM192.2 159.4c-.2 0-.4.1-.6.1-.3 0-.5-.3-.8-.3.2.7.6 1.5 1.1 2 .3.2.8.4.9-.1.2-.5-.2-1.7-.6-1.7zM195.1 160.5c.7-.2.2-1.9-.3-2.1-.4-.1-.7 0-1.1 0-.3 0-.6-.1-1 0-.2.5.1 1.2.2 1.7.3.1.6.2 1 .3.3.1.8.2 1.2.1zM190.3 158.8c-.1-.3 0-.7 0-1 0-.3-.1-.6-.2-.9 0-.1-.1-.3-.1-.4-.1-.1-.2-.1-.3 0-.2 0-.3.1-.5.1-.2.1-.3.2-.4.4-.1.9.3 1.9.8 2.5l.3.3c.1.1.4.4.5.2.1-.1.1-.3.1-.5s-.2-.5-.2-.7z"/><path d="M191.3 157.5c-.3-.2-.6-.4-.9-.4v1.4c.1.7 1.4.8 1.7.3.5-.7-.3-1.1-.8-1.3zM190.4 156.6c0 .2.9.7 1.4.9 1.1.4 1.3-.5 1-1.4-.2-.1-.7-.2-1.1-.1-.4 0-1.3.3-1.3.6zM191.5 154.5c-.1.3.1.5 0 1 .4.3 1.2.3 1.6 0 .2-.1.3-.3.4-.4.2-.2.4-.3.4-.5-.2-.2-.6-.4-1.1-.4-.3-.1-1.1 0-1.3.3zM196.3 160.9c.2.1.4.2.6.2.1 0 .4.2.5.1.1-.1 0-.2 0-.3 0-.2-.1-.4-.1-.6 0 .1.1.1.1.1.1.1.1.1.2.1.2 0 .2-.1.2-.2 0-.6-.4-1.1-.7-1.6-.1-.2-.5-1.2-.7-1.2-.2 0-.4.2-.5.3-.1.2-.2.3-.3.5l-.3.2c.1.6.7 1.4.2 2.1.1.1.4.1.5.3-.3-.1-.8-.2-.9.1-.1.5.8 2.3.8 2.3s.3.1.4.1c.3.1.5.1.8.1.2 0 .3 0 .4-.2 0-.2-.1-.3-.1-.4-.2-.8-.5-1.6-1.1-2zM194.8 160.7c-.7.1-1.1-.2-1.7-.3-.1.2 0 .4 0 .6 0 .3-.2.5-.1.7.1.3.7.7 1 .8.4.3.9.5 1.3.5 0 0 .1 0 .1-.1s-.5-2.3-.5-2.3l-.1.1z"/><path d="M192.7 157.5c-.1.1-.2.3 0 .4.3.1.6.2.9.2.3 0 .6 0 .8-.1h.1c.2 0 .3-.1.5-.2s.4-.2.5-.3c.3-.1.5-.3.8-.4.2-.1.4-.3.3-.6-.1-.2-.2-.3-.3-.4-.3-.5-.6-1-1.2-1.3-.2-.1-.5-.3-.8-.2-.2.1-.3.3-.5.5l-.3.3c-.1.1-.3.2-.4.3-.2.1-.2.3-.1.5 0 .2.1.5 0 .7 0 .3-.1.5-.3.6zM214 55.7c.1 0 .1 0 0 0 .2-.1.2-.3.3-.4.1-.1.2-.3.3-.4l.2-.5c-.4 0-.7.1-1 .4l-.4.4c-.3.4.3.6.6.5zM211.9 59c.2 0 .4.1.6-.1.1-.1.1-.3.1-.4 0-.4.1-.7.2-1 0-.2.1-.5.1-.7 0-.1.1-.2.1-.4 0-.1.1-.3 0-.4 0-.1-.1-.1-.2 0-.2.1-.3.3-.4.5-.2.3-.3.5-.4.8-.3.6-.5 1.2-.7 1.6-.1 0 .5.1.6.1zM215.2 61c.3-.3.5-.7.6-1-.1-.4-.3-.7-.5-1-.2-.3-.4-.8-.7-.9-.7-.1-1.4 1-1.3 1.5 0 .3.3.4.5.6.1.2.2.3.3.5.1.2.4.6.5.6.2.1.5-.1.6-.3zM216.6 59.5c-.3.2-.5.4-.7.7-.1.2-.4.7-.2.9l.3.3c.1.1.2.2.2.3.1.1.1.5.3.5.2 0 .2-.3.3-.4.1-.2.2-.4.3-.7.2-.4.2-.9.2-1.3 0-.1-.1-.2-.1-.3-.2-.1-.4-.2-.6 0zM200 61.8c0-.6-.1-1.2-.4-1.6-.5.4-.5 1.8 0 2.1-.1 0 .1-.4.4-.5zM214.8 63.6c0 .1.1.2.1.2.2.2.5-.4.7-.5.2-.1.3-.3.4-.4.3-.7-.4-1.5-1.1-1.4-.2 0-.4.3-.5.5-.1.4 0 .8.2 1.2.2.1.2.2.2.4zM216.7 62.6c-.3.4-.6.6-.9 1-.1.1-.6.8-.5 1 0 .2.8.6 1 .6.3 0 .6-.4.7-.6.2-.3.5-1 .7-1.5.1-.5.2-1.1-.1-1.5-.5.1-.7.6-.9 1z"/><path d="M213.7 64c.3.2.7.3 1.1.3-.1-.7-.2-1.8-.6-2.2-.5-.4-1.5.5-1.4.9 0 .3.5.8.9 1zM210.8 62.7c-.2.7.7 2 1.3 1.9.3 0 .5-.5.8-.6-.1-.9-.8-1.3-2.1-1.3zM205 64.4c.2 0 .4-.1.6-.1.3 0 .4.3.8.3-.1-.7-.5-1.6-.9-2.1-.2-.3-.8-.5-.9 0-.3.6 0 1.8.4 1.9z"/><path d="M203.4 63.2c-.3-.1-.8-.2-1.1-.2-.7.1-.4 1.9.2 2.1.3.1.7 0 1.1.1.3 0 .6.2 1 .1.2-.5 0-1.2-.1-1.7-.5-.1-.7-.3-1.1-.4zM206.7 64.3c0 .3.2.6.2.9 0 .3 0 .7-.1 1 0 .3 0 .6.1.9 0 .1 0 .3.1.4.1.1.2.1.3.1.2 0 .3 0 .5-.1.2 0 .3-.1.4-.4.2-.9-.1-1.9-.6-2.6-.1-.1-.2-.2-.3-.4-.1-.1-.3-.4-.5-.3-.1.1-.1.4-.1.5zM206.7 65.4c-.1-.7-1.4-1-1.7-.4-.4.7.3 1.1.7 1.3.3.2.6.4.9.5.1-.4.2-1 .1-1.4zM205.3 67.9c.4 0 1.4-.3 1.4-.5s-.8-.8-1.3-1c-1-.5-1.4.4-1.2 1.3.2.1.6.2 1.1.2z"/><path d="M200.7 66c.2 0 .4-.1.5-.3.1-.1.2-.3.3-.5l.3-.2c0-.6-.5-1.5-.1-2.1-.1-.1-.3-.2-.5-.3.3.1.8.2.9 0 .1-.5-.6-2.4-.6-2.4s-.3-.1-.4-.1c-.3-.1-.5-.1-.8-.2-.2 0-.3 0-.4.2 0 .2.1.3.1.4.2.7.4 1.5.9 2-.1-.1-.4-.2-.6-.3-.1-.1-.4-.2-.5-.1-.1.1-.1.2-.1.3 0 .2 0 .4.1.6 0-.1-.1-.1-.1-.2s-.1-.1-.2-.1-.2.1-.2.2c-.1.6.3 1.1.5 1.7.3.4.7 1.3.9 1.4zM203.5 61c-.4-.3-.8-.6-1.3-.6 0 0-.1 0-.1.1s.3 2.3.3 2.3h.1c.7 0 1.1.3 1.7.4.2-.2 0-.4.1-.6 0-.3.2-.5.2-.7-.1-.3-.7-.7-1-.9zM204.3 66.2c.1-.1.3-.3.1-.4-.3-.2-.6-.2-.9-.3-.3 0-.6-.1-.8 0h-.1c-.2 0-.3.1-.5.1-.2.1-.4.2-.6.2-.3.1-.5.2-.8.3-.2.1-.4.3-.3.5.1.2.2.3.2.4.3.5.5 1.1 1.1 1.4.2.1.5.3.8.3.2 0 .3-.3.5-.4.1-.1.2-.1.4-.2.1-.1.3-.2.4-.3.2-.1.2-.3.2-.5v-.7c.1-.1.2-.3.3-.4zM212.7 58.5c0 .2 0 .6.2.6s.3-.3.4-.4c.2-.3.4-.5.6-.7.2-.2.4-.4.4-.6v-.2c.1.4.4.6.8.5 0 0 0 .1-.1.1 0 .1-.1.1-.1.2 0 .2.2.3.3.4.2.2.3.5.4.7.1.1.1.3.3.3.1 0 .3-.1.4-.2.1-.1.2-.1.3-.2.2-.1.3-.2.3-.4v-.5c0-.2 0-.4-.1-.6-.1-.4-.2-.8-.4-1.2-.1 0-.2.2-.3.3 0 .1-.1.1-.2.2l-.1.1c.1 0 .1-.2.1-.3 0-.1.1-.2.1-.3v-.6c-.1-.4-.3-.8-.5-1-.5-.5-1 .6-1.2.9-.1.1-.1.2-.2.3v.1l-.2.4c-.1-.2-.2-.3-.4-.3-.4 0-.6.5-.6.8 0 .3-.1.5-.1.8 0 .1-.1.5-.1.8zM211.3 62.3c.2 0 .3 0 .5.1s.4.2.6.2c.2 0 .3-.2.4-.3l.4-.4c.2-.1.3-.2.5-.2.1 0 .4 0 .5-.1v-.1c0-.2-.1-.4-.2-.6-.4-.5-.8-1-1.4-1.3-.2-.1-.4-.2-.5-.3-.3-.1-.6-.3-.8-.4-.1 0-.3-.1-.4 0-.1.1-.2.2-.2.3-.1.2-.2.5-.3.8-.1.5-.2 1 0 1.5 0 .6.4.7.9.8zM140.1 1.7s.1 0 0 0c.2-.1.3-.2.4-.3.1-.1.3-.2.4-.4l.3-.5c-.4-.1-.8-.1-1.1.1-.2.1-.3.2-.5.3-.4.6.1.9.5.8zM137.1 4.4c.2.1.4.2.6.1.1-.1.2-.3.2-.4.1-.3.3-.6.5-1 .1-.2.2-.4.3-.7.1-.1.1-.2.2-.3 0-.1.1-.3.1-.4 0-.1-.1-.1-.2-.1-.2.1-.4.2-.5.4-.2.2-.4.4-.6.7-.4.5-.8 1-1 1.3-.1.2.4.4.4.4zM139.8 7.2c.3-.2.6-.5.9-.8 0-.4-.1-.7-.2-1.1-.1-.3-.2-.9-.5-1-.6-.3-1.6.6-1.7 1.1-.1.3.2.5.3.8.1.2.1.4.2.5.1.2.2.7.4.7s.5-.1.6-.2zM142.1 6.2c-.1-.1-.2-.2-.4-.2-.3.1-.6.3-.9.5-.2.2-.6.5-.5.8 0 .1.1.2.2.3.1.1.1.2.1.4 0 .1-.1.5.1.6.2 0 .3-.2.4-.3.2-.2.3-.4.5-.6.3-.4.5-.8.5-1.2.1-.1 0-.2 0-.3zM125 4.1c.1-.6.2-1.2 0-1.7-.5.2-1 1.6-.6 2 0 .1.2-.2.6-.3z"/><path d="M138.9 9.6c0 .1 0 .2.1.2.2.2.6-.2.8-.3.2-.1.4-.2.5-.3.4-.6 0-1.6-.7-1.6-.2 0-.5.1-.6.4-.2.4-.2.8-.1 1.2v.4zM139.8 11.4c.3 0 .7-.2.9-.4.3-.2.8-.8 1-1.3.2-.4.5-1.1.3-1.5-.5.1-.7.5-1.1.8-.4.3-.7.4-1.1.7-.1.1-.8.7-.8.8 0 .3.6.9.8.9zM137 8.5c0 .3.4.9.7 1.2.3.3.6.5.9.6.1-.7.3-1.8 0-2.3-.4-.6-1.6 0-1.6.5zM135.2 7.7s-.1 0-.1.1c-.2.6.2 2.1.9 2.1.3 0 .6-.3.9-.4.1-.9-.5-1.5-1.7-1.8zM129.1 6c-.2.5-.3 1.7.1 1.8.2.1.4 0 .6.1.3.1.3.4.7.5.1-.7-.1-1.6-.4-2.2-.3-.3-.8-.6-1-.2zM127.9 6.4c-.3-.2-.7-.4-1.1-.5-.7 0-.9 1.7-.4 2.1.3.2.7.2 1 .3.3.1.5.3.9.3.3-.5.3-1.2.3-1.7-.1-.1-.4-.4-.7-.5zM130.3 10.9v.4c.1.1.2.1.3.1.2 0 .3 0 .5.1.2 0 .4-.1.5-.3.4-.8.3-1.8 0-2.6-.1-.1-.1-.3-.2-.4-.1-.1-.2-.5-.4-.4-.2 0-.2.3-.2.4-.1.3 0 .6 0 .9 0 .3-.2.6-.3.9-.1.3-.1.6-.2.9zM129 8.4c-.6.5 0 1.1.4 1.5l.7.7c.1-.4.4-.9.4-1.4.2-.6-1-1.2-1.5-.8zM127.5 10.8c.2.2.6.4 1 .5.4.1 1.4.1 1.5-.2.1-.2-.6-1-1-1.3-.9-.7-1.4 0-1.5 1z"/><path d="M124.6 8.3c.2.1.4 0 .6-.1.2-.1.3-.3.4-.4l.4-.1c.1-.6-.2-1.6.5-2-.1-.2-.3-.3-.4-.4.3.2.7.4.9.2.2-.5 0-2.5 0-2.5l-.3-.2c-.2-.1-.5-.3-.7-.4-.1 0-.3-.1-.4.1-.1.1 0 .3 0 .5 0 .7 0 1.5.4 2.1-.1-.1-.3-.3-.5-.4-.1-.1-.3-.3-.5-.3-.1 0-.1.2-.1.3 0 .2-.1.4-.1.6 0-.1-.1-.1-.1-.2s-.1-.1-.1-.2c-.1-.1-.2.1-.2.2-.2.6 0 1.2.1 1.7-.2.4-.1 1.4.1 1.5zM128.7 6.6c.2-.1.1-.3.2-.6s.3-.5.4-.7c.1-.3-.5-.9-.7-1.1-.3-.4-.7-.7-1.1-.9 0 0-.1-.1-.1.1 0 .1-.3 2.3-.3 2.3h.1c.7.2.9.6 1.5.9zM124.9 11.1c.2.2.4.4.7.5.2 0 .4-.2.6-.3.1-.1.3-.1.4-.1.2-.1.3-.1.5-.2.2 0 .2-.2.3-.4.1-.2.1-.5.2-.7.1-.2.3-.3.5-.4.1-.1.3-.2.2-.4-.2-.2-.6-.4-.8-.5-.3-.1-.5-.2-.8-.2h-.6c-.2 0-.4.1-.6.1-.3.1-.6.1-.9.1-.3 0-.5.1-.5.4 0 .2.1.3.1.5.1.6.2 1.2.7 1.6zM138.5 3.2c-.2.3-.4.6-.5.9 0 .2-.1.6.1.7.2.1.4-.2.5-.3.2-.2.5-.4.8-.5.2-.1.5-.2.6-.5v-.2c0 .4.3.7.7.7l-.1.1c-.1 0-.1.1-.2.1-.1.2.1.3.2.5.1.3.1.5.2.8 0 .2.1.3.3.3.2 0 .3-.1.4-.1.1 0 .2-.1.4-.1.2-.1.3-.1.4-.3.1-.2.1-.3.1-.5s.1-.4.1-.6c0-.4 0-.8-.1-1.2-.1 0-.2.1-.3.2-.1 0-.1.1-.2.1h-.1c.1 0 .2-.2.2-.2.1-.1.1-.2.2-.3.1-.2.1-.4.1-.6 0-.4-.1-.8-.2-1.1-.3-.6-1.1.3-1.4.6-.1.1-.2.2-.3.2l-.1.1-.3.3c0-.2-.1-.4-.3-.4-.3-.1-.7.4-.8.6-.1.2-.2.5-.4.7zM135.8 7.4c.2.1.3.1.5.2s.3.3.5.3.3-.1.4-.2c.2-.1.3-.2.5-.2s.4-.1.6 0c.1 0 .4.2.5.1 0 0 .1 0 .1-.1.1-.2 0-.4-.1-.6-.2-.6-.6-1.1-1-1.6-.1-.1-.3-.3-.5-.4-.2-.2-.5-.4-.7-.6-.1-.1-.3-.2-.4-.1-.1 0-.2.2-.3.3-.2.2-.4.4-.5.7-.3.3-.4.8-.4 1.3s.3.8.8.9zM36.6 62.8c.2.5.7.1.8-.3v-.1c0-.1-.1-.3-.1-.4-.1-.2-.1-.3-.2-.5l-.3-.4c-.2.3-.3.7-.3 1.1 0 .2 0 .4.1.6zM38.9 66.2c.1-.1.3-.3.3-.5 0-.1-.2-.3-.3-.3-.3-.2-.5-.5-.8-.8l-.5-.5-.3-.3c-.1-.1-.2-.2-.4-.2-.1 0-.1 0-.1.2s.1.4.2.6c.1.3.3.6.4.8.3.5.7 1.1.9 1.4.2.1.6-.3.6-.4zM41.1 65.3h.6c.2 0 .7 0 .8-.1.1-.1.1-.5 0-.6-.1-.4-.3-.8-.5-1.1-.4-.1-.7-.2-1.2-.2-.3 0-.9-.1-1.1.1-.5.5.1 1.7.5 1.9.3.3.5.1.9 0zM42.8 64.2c.1 0 .3-.1.4-.1h.4c.1 0 .5.2.6.1.1-.1-.1-.3-.2-.5s-.2-.4-.4-.6c-.3-.4-.6-.7-1-.9-.1 0-.2-.1-.3-.1-.2 0-.3.1-.3.4 0 .3.1.7.2 1 .1.2.3.7.6.7zM34.7 78.3s-.2-.3-.1-.7c-.5-.3-1.1-.6-1.6-.6 0 .6 1.2 1.5 1.7 1.3zM43.9 66.2c.1 0 .3.1.4.2h.3c.3-.1 0-.6 0-.9 0-.2 0-.4-.1-.6-.4-.6-1.5-.5-1.8.1-.1.2 0 .5.1.7.3.2.7.3 1.1.5zM44.9 65.5c0 .2.4 1 .5 1 .2.1 1-.3 1.1-.5.1-.2 0-.7-.1-.9-.1-.4-.5-1-.9-1.4-.3-.4-.8-.8-1.3-.8-.1.5.2.9.4 1.3.2.5.2.9.3 1.3zM44.9 66.8c-.6-.3-1.6-.9-2.2-.7-.6.2-.5 1.5 0 1.7.3.1 1 0 1.3-.2.4-.3.7-.5.9-.8zM43.7 69.1c.1-.3-.1-.7-.1-1-.9-.3-1.6 0-2.3 1v.1c.6.5 2.1.5 2.4-.1zM39.5 74.9c.1-.1.1-.4.3-.5.2-.3.5-.2.7-.5-.7-.3-1.6-.5-2.2-.4-.3 0-.9.4-.5.8.3.5 1.5.9 1.7.6zM36.9 76.4c-.3.7 1.3 1.4 1.8 1 .3-.2.4-.6.6-.8.2-.2.5-.4.6-.7-.3-.5-1-.7-1.5-.9-.3.2-.5.3-.8.6-.2.2-.6.5-.7.8zM43.4 74.7c.1-.2.2-.3.2-.5.1-.2.1-.4-.1-.5-.6-.6-1.6-.9-2.5-.9h-.4c-.2 0-.5.1-.5.3 0 .2.2.3.3.3.3.1.6.2.8.3.3.2.5.4.8.6.2.2.5.3.8.4.1 0 .2.1.4.1.1.1.2 0 .2-.1z"/><path d="M40 75.2c.3.7 1.1.3 1.5.1.4-.2.7-.3.9-.5-.4-.3-.8-.6-1.1-.9-.5-.2-1.5.7-1.3 1.3zM42.5 76.6c.2-.4.5-1.3.3-1.4-.2-.1-1.2.2-1.6.5-.9.6-.4 1.3.5 1.7.3-.1.6-.4.8-.8zM33.7 76.8c.7.3 1.4.6 2.2.3-.2.1-.4.2-.5.3-.1.1-.4.2-.4.3 0 .1.2.2.2.2l.6.3h-.2c-.1 0-.2 0-.2.1-.1.1 0 .2.1.3.5.4 1.1.4 1.7.5.2 0 1.2.3 1.4.2.2-.1.1-.4.1-.6-.1-.2-.2-.3-.2-.5v-.4c-.5-.3-1.5-.4-1.8-1.1-.2 0-.3.2-.5.2.3-.2.7-.5.4-.7-.4-.4-2.3-.8-2.3-.8l-.3.2-.6.6c-.1.1-.2.3 0 .4-.1.1.1.2.3.2z"/><path d="M36.8 76.2c.4-.7.9-.8 1.3-1.3 0-.2-.3-.2-.5-.4s-.3-.5-.5-.6c-.3-.2-1 .2-1.3.3-.5.2-.9.4-1.2.7 0 0-.1.1 0 .1.2.2 2.2 1.2 2.2 1.2zM38.9 80.1h.5c.6 0 1.2.2 1.7-.1.2-.1.5-.3.7-.5.1-.2-.1-.5-.1-.7v-.4-.5c.1-.2-.1-.3-.3-.4-.2-.1-.4-.2-.6-.4-.1-.2-.2-.4-.2-.6 0-.1-.1-.4-.3-.3-.3.1-.5.4-.7.6-.2.2-.4.4-.5.7v.1c-.1.2-.1.3-.2.5 0 .2-.1.4-.1.6 0 .3-.1.6-.2.8 0 .3 0 .5.3.6zM37.7 62.4s0 .1 0 0l.2.5c-.2 0-.4 0-.5.1-.2.3.1.8.3 1 .2.2.4.3.5.5.2.3.5.5.7.7.1.1.5.3.7.2.1-.1-.1-.4-.1-.6-.1-.3-.2-.6-.2-.9 0-.2-.1-.6-.3-.7-.1 0-.1-.1-.2-.1.4.1.8 0 .8-.4 0 0 0 .1.1.1 0 .1 0 .1.1.2s.4 0 .5 0c.3 0 .6 0 .8.1.2 0 .3 0 .4-.1v-.4-.4c0-.2 0-.4-.1-.5-.1-.1-.3-.2-.4-.3-.2-.1-.4-.2-.5-.3-.4-.2-.8-.3-1.2-.3 0 .1 0 .3.1.4 0 .1 0 .2.1.2v.1c0-.1-.1-.2-.2-.3-.1-.1-.1-.2-.2-.2-.1-.1-.3-.3-.5-.3-.4-.1-.8-.2-1.1-.2-.7.1-.1 1.1.1 1.5 0 .2 0 .3.1.4zM41.6 68.2c.2-.1.4-.2.5-.4.1-.2 0-.3 0-.5s-.1-.4-.1-.6c0-.2.1-.4.1-.5.1-.1.3-.3.3-.5 0 0 0-.1-.1-.1-.1-.1-.4-.1-.6-.1-.7 0-1.3.2-1.9.4l-.6.3c-.3.1-.6.3-.8.5-.1.1-.2.2-.2.3 0 .1.1.3.1.4.1.2.3.5.5.7.3.4.7.7 1.2.9.5.2.8-.1 1.1-.4.3-.2.4-.3.5-.4zM121 188.6c-.1-.1-.1-.1 0 0-.2 0-.4.1-.5.1-.2 0-.3.1-.5.2 0 0-.5.3-.4.3.3.3.7.3 1.1.3.2 0 .4-.1.6-.1.4-.2 0-.7-.3-.8zM124.2 186.9c-.1 0-.3.2-.4.3-.2.3-.5.5-.8.7-.2.2-.4.3-.5.5-.1.1-.2.2-.3.2-.1.1-.2.2-.3.4 0 .1 0 .1.2.1s.4-.1.6-.2c.3-.1.6-.3.8-.4.5-.3 1.1-.6 1.5-.9.1-.1-.3-.5-.3-.5-.1-.1-.3-.3-.5-.2zM123.9 183.6c-.1-.1-.5-.1-.6-.1-.4.1-.8.2-1.1.4-.1.4-.2.7-.2 1.1 0 .3-.2.9.1 1.1.5.5 1.7 0 2-.4.2-.3 0-.5 0-.8v-.6c-.2-.1-.1-.5-.2-.7zM120.9 183.3c-.1.1-.1.2-.1.3 0 .2.1.3.3.4.3.1.7 0 1-.2.2-.1.7-.3.7-.6 0-.1-.1-.3-.1-.4v-.4c0-.1.3-.4.1-.6-.1-.1-.4.1-.5.2-.2.1-.4.2-.7.4-.2.2-.5.5-.7.9zM124.9 182.2c0-.1.1-.3.2-.4v-.3c-.1-.3-.6 0-.9 0-.2 0-.4 0-.6.1-.6.4-.6 1.5 0 1.8.2.1.5.1.7-.1.3-.3.4-.7.6-1.1zM124.9 179.7c-.2-.1-.7 0-.9 0-.4.1-1 .4-1.4.8-.4.3-.8.8-.8 1.3.5.1.9-.2 1.3-.3.5-.2.9-.1 1.3-.2.2 0 1-.3 1-.5 0-.3-.3-1.1-.5-1.1z"/><path d="M126.4 183.5c.1-.3 0-1-.2-1.3-.2-.4-.4-.7-.7-.9-.4.6-1 1.6-.8 2.2.2.5 1.5.4 1.7 0zM127.8 182.5c-.3-.2-.7.1-1 0-.4.8-.1 1.6.9 2.3h.1c.5-.4.6-2 0-2.3zM132.8 188.7c.4-.3.9-1.5.6-1.7-.1-.1-.4-.2-.5-.3-.2-.2-.2-.5-.4-.7-.3.7-.6 1.5-.5 2.2 0 .3.4.9.8.5zM133.5 188c.2.3.3.6.5.9.2.3.5.7.8.8.7.3 1.4-1.3 1.1-1.8-.2-.3-.6-.4-.8-.7-.2-.2-.4-.5-.7-.7-.5.4-.8 1-.9 1.5zM133 184.5c.2-.2.3-.5.5-.8 0-.1.1-.2.1-.4 0-.1-.1-.2-.2-.2-.1-.1-.3-.2-.5-.2-.2-.1-.4-.1-.5.1-.7.6-1 1.6-1 2.4v.4c0 .2 0 .5.2.5s.3-.2.4-.3c.2-.3.2-.6.4-.8.1-.3.4-.5.6-.7z"/><path d="M132.6 185.1c-.3.6.5 1.6 1.1 1.4.7-.3.4-1.1.2-1.5-.1-.4-.3-.7-.4-1-.2.4-.6.8-.9 1.1zM136 184.9c-.1-.3-.4-.6-.7-.8-.3-.2-1.2-.6-1.4-.4-.1.1.2 1.2.4 1.6.5.9 1.3.5 1.7-.4zM137.2 188.2c-.2 0-.3.2-.5.2 0 0-.4 0-.4-.1-.3.5-.4 1.5-1.2 1.7 0 .2.2.3.2.5-.2-.3-.5-.7-.7-.5-.4.4-.9 2.3-.9 2.3l.2.3c.2.2.3.4.5.6.1.1.3.2.4.1.1-.1.1-.3.2-.4.3-.6.6-1.4.4-2.1.1.2.2.4.3.5.1.1.2.4.3.4.1 0 .2-.1.2-.2l.3-.6v.2c0 .1 0 .2.1.2.1.1.2 0 .3-.1.4-.4.4-1.1.6-1.7.1-.2.4-1.2.2-1.4 0 0-.3.1-.5.1zM134.5 189.7c-.6-.4-.7-.9-1.1-1.3-.2 0-.2.3-.4.4-.2.2-.5.3-.6.5-.2.3.1 1 .2 1.3.2.5.3.9.7 1.2 0 0 .1.1.1 0 .1-.1 1.1-2 1.1-2.1z"/><path d="M138.1 184.9c-.2-.1-.5 0-.7 0h-.9c-.2-.1-.3.1-.4.3-.1.2-.3.4-.5.6-.2.1-.4.1-.6.2-.1 0-.4.1-.3.3.1.3.4.6.6.8.2.2.4.4.7.5h.1c.2.1.3.1.5.2s.4.1.6.1c.3.1.6.1.8.2.3.1.5.1.6-.2.1-.2 0-.3.1-.5.1-.6.2-1.2 0-1.7-.2-.3-.3-.6-.6-.8zM123 187.8c.3-.2.6-.4.8-.7.1-.1.3-.5.2-.7-.1-.2-.5 0-.6.1-.3.1-.6.1-.9.2-.2 0-.6 0-.7.2 0 .1-.1.1-.1.2.1-.4 0-.7-.4-.9h.1c.1 0 .1 0 .2-.1s0-.4 0-.5c0-.3.1-.6.1-.8 0-.2.1-.3-.1-.4-.1-.1-.3 0-.4-.1h-.4c-.2 0-.3 0-.5.1-.1.1-.2.3-.3.4-.1.2-.2.3-.3.5-.2.4-.4.8-.4 1.2.1 0 .3 0 .4-.1H120c-.1 0-.2.1-.3.1-.1.1-.2.1-.3.2-.2.1-.3.3-.4.5-.2.3-.2.8-.2 1.1.1.7 1.1.1 1.5 0 .1 0 .2-.1.4-.1h.1l.4-.2c0 .2 0 .4.1.5.3.3.8-.1 1-.3.3-.1.5-.3.7-.4zM126.8 184.6c-.1-.2-.2-.4-.4-.5-.1-.1-.3 0-.5 0s-.4.1-.6 0c-.2 0-.4-.1-.5-.2-.1-.1-.3-.3-.5-.3h-.1c-.1.1-.1.4-.2.6 0 .6.1 1.3.3 1.9l.3.6c.1.3.3.6.4.8.1.1.2.3.3.3.1 0 .3-.1.4-.1.3-.1.5-.3.7-.4.4-.3.7-.7.9-1.2.2-.5 0-.8-.4-1.1.1-.2 0-.3-.1-.4z"/><path d="M222 97.3c-.3-.3-.6-.7-.8-1l.7.1c-.3-.6-1.4-1-1.4-1 .2-.3.7-.3.7-.3-.7-1-2.1-1.4-2.1-1.4.7-1 1.7-1.1 1.7-1.1-.5-.6-1.6-.7-1.6-.7l.4-.4c-.4-.4-1.8 0-1.8 0-.1-.2.1-.4.1-.6.1 0 .2-.1.3-.1-.2-.2-.5-.2-.8-.4-.3-.1-.5-.2-.8-.4-.1-1.3 2-2.3 2-2.3-.3.1-1.1-.1-1.1-.1 0-.2 1.2-1.2 1.2-1.2h-.6c.3-.1.4-.5.5-.8.1-.2.7-.7.6-.9v-.1c-.2-.2-.9.5-1 .6-.4.2-.8.3-1.2.5l.3-.7c-.7.1-1.4 1-1.4 1-.2-.3 0-.7 0-.7-1.2.3-2 1.6-2 1.6-.7-1-.6-2-.6-2-.7.3-1.2 1.4-1.2 1.4l-.2-.5c-.5.3-.6 1.7-.6 1.7-.3 0-.5-.4-.5-.4-.4.9.1 2.2.1 2.2-.6 0-.9-.7-.9-.7-.3 2.8 1 3.7 1.3 3.8-.2.3-.5.6-.8.9h-.1l-.4.2c-.6.2-1.1 0-1.7.1-.6-.2-1.4-.5-2.1-.7-.1 0-.4-.1-.6-.2l-.1-.1c-.3-3.9-.9-7.7-1.7-11.3.7-.6 1.4-1.3 2.1-1.8.1 0 .2.1.2.1.6-.6 1.3-1.2 2.4-1.2.5 0 .9.1 1.3.3.8.6 1.6.5 1.6.5-.6 1.5 1.4 3.2 1.4 3.2.2-.3.2-1 .2-1 .1.6.9 1.4 1.8 1.4.4 0 .8 0 1.2.2.2.1.5.2.7.3 0-.3-.1-.6-.2-.8-.1-.3-.1-.6-.2-.9 1-.8 3 .3 3 .3-.3-.1-.5-.9-.5-.9.1-.1 1.7.2 1.7.2l-.3-.5c.3.2.7 0 1 0 .3 0 .9.1 1.1-.1v-.1c.1-.3-.9-.4-1.1-.5-.4-.2-.7-.4-1.1-.7l.7-.1c-.5-.5-1.7-.5-1.7-.5.1-.3.6-.5.6-.5-.9-.8-2.4-.7-2.4-.7.4-1.1 1.3-1.6 1.3-1.6-.7-.4-1.8-.2-1.8-.2l.3-.5c-.5-.2-1.7.6-1.7.6-.2-.2 0-.7 0-.7-1 .2-1.7 1.3-1.7 1.3-.3-.5.1-1.1.1-1.1-2.8 1.6-2.3 3.4-2.3 3.4-.6 0-.9-.1-1.2-.2l-.1-.1c-.1-.1-.2-.1-.3-.2-.6-.3-1.3-.5-2.2-.3 2.7-2.8 5-6 6.2-10.4.8.1 1.6 0 2-.6.8-1.1 1.1-1.5.8-1.5-.3 0-.6.4-1.1.4-.2-.2-.8-.8-1-.9-.3-.2-1.1-.4-1.3-.3-.3 0-1.1.4-1.4.7-.7-.4-1.2-1.1-1.5-1.8-.1-.1-.1-.4-.2-.5-.2-.1-.2.6-.2.6 0 .3 0 .6-.1.9 0 .7 0 1.5.4 2.1.2.3.6.5.9.6.1 0 .3.1.5.1.3.1.6.1.9.2v.4c-.1.7-.4 1.4-.7 2-.5 1.3-1.1 2.5-1.8 3.5-.3.6-.7 1.1-1.1 1.5.1-.7.2-1.5 0-2.3-.1-.6-.4-1.2-.8-1.8-.2-.3-.5-.5-.7-.7.1-.1.2-.1.3-.2l.3-.3c.2-.2.4-.4.5-.7.1-.1.2-.3.2-.5 0 0 .1-.3-.1-.8-.1-.2-.1-.3-.2-.5 0-.1-.1-.2-.1-.3-.1-.2-.2.2-.2.2 0 .1-.1.2-.1.3-.1.2-.3.4-.5.4h-.9c-.2 0-.5.1-.7.1-.2.1-.4.1-.6.2-.3.1-.6 0-.9 0-.3 0-.6 0-.9.1-.4.1-.6.4-.9.7l-.3.3-.1.1v.1c-.1.1.2.3.2.4.2.2.3.3.5.4 0 0 1.3 1.8 2.6 1.3.4-.1.9-.3 1.2-.6.1-.1.2-.2.2-.3 0 .1.1.2.2.2l.3.3c.2.2.3.4.5.6.3.5.5 1.1.6 1.6v1.1c-.2 1.5-1.1 2.2-1.9 3.1-1 1-2 1.8-3 2.7-.1.1-.2.2-.3.2-2.3-9.5-6.2-18.3-11.6-26 .8-1 1.3-2.1 1.3-3-.1-.7-.4-1.3-.7-1.8-.3-.5-.4-1.2-.5-1.8v-.3c.5.2.9.6 1.4.8.8.5 1.6 1 2.4 1.6.2.1.5.3.6.5-2.4 2.4-1.6 5.5 1.1 7.5.3-.6.4-1.2.5-1.8.3-1.4 0-2.8-.3-4.1.5.6 1.6 1.2 1.9 2 .1.3-.1.6-.1 1 .1 1.5 1 3 2.3 4 1.5 1 3.3 1 4.8 1.1-.1-1.1-1-2.8-1.9-4.1-1.1-1.6-2.9-2-4.2-2.1-1-.9-1.7-1.7-2.5-2.6 2.8 1.3 5.9-.5 8-3.1-.1-.4-.5-.2-.8-.2-.5-.1-1.1-.5-1.6-.7-2.1-.4-5.9.1-6.3 3.2 0-.1-.7-.5-.7-.6-.6-.6-1.3-1.1-2.1-1.6 1.2 0 2.4-.4 3.3-1.1 1.4-1.2 2.2-3.9 1.6-5.4-2 .3-4.2 1.2-4.5 3.6-.1.7-.2 1.4-.5 2-.1.2-.2.3-.4.5l-.1.1c-1.3-.7-2.8-1.3-4.3-1.6-.3-.1-.6-.1-.9-.1l1.2-.7c2.7-1.9 1.8-4.9 3.2-7.5-1.7 0-3.7 1-4.6 2.8-.9 1.8.1 3.8-.2 5.4-1-.1-2.1 0-2.9.5-.5-.5-.9-1-1.4-1.5-.5-2.2-1.9-4.9-4.3-5-.2.1-.3.2-.4.3-1-.9-1.9-1.7-2.9-2.5 1.2-.8 2.8-2.1 3.8-3l-.1 1.3c0 3.3 3 4.2 4.3 6.7.9-1.5 1.3-3.6.4-5.3-.9-1.7-3-2-4.2-3 .4-.3.7-.6.7-.6 1 1.3 3.3.3 3.3.3-.1-.3-.8-.7-.8-.7.6.3 1.7-.1 2.1-.8.2-.4.4-.7.8-1 .2-.2.4-.3.6-.4-.2-.2-.5-.2-.8-.3-.3-.1-.6-.2-.8-.3-.2-1.2 1.7-2.5 1.7-2.5-.2.2-1.1 0-1.1 0-.1-.2 1-1.3 1-1.3l-.6.1c.3-.2.4-.6.5-.8.1-.2.6-.7.5-1v-.1c-.2-.2-.8.6-1 .7-.4.2-.8.4-1.1.6l.2-.7c-.7.2-1.3 1.2-1.3 1.2-.2-.3-.1-.7-.1-.7-1.1.4-1.8 1.7-1.8 1.7-.8-.9-.7-1.9-.7-1.9-.7.4-1.1 1.5-1.1 1.5l-.3-.5c-.4.3-.4 1.8-.4 1.8-.2 0-.6-.3-.6-.3-.3.9.3 2.2.3 2.2-.6.1-.9-.6-.9-.6 0 3.2 1.7 3.7 1.7 3.7-.3.5-.5.8-.7.9-1.2-1.7-3-3.2-5.3-2.5-.5.2-1 .3-1.6.4-.5.1-1-.2-1.6-.2-.1.5.5 1.1.7 1.5.5.9 1.1 1.3 2 1.7 1.3.6 3.3.4 4.6-.2-.8.7-2.1 1.7-2.9 2.3-4.1-3.3-8.6-6.2-13.3-8.6 0-.2-.1-.4-.1-.6l.4.3c0-.5-.5-1.1-.5-1.1.2-.1.5.1.5.1-.1-.9-.8-1.6-.8-1.6.8-.3 1.5-.1 1.5-.1-.1-.5-.8-1-.8-1l.4-.1c-.1-.4-1.2-.6-1.2-.6 0-.2.3-.3.3-.3-.6-.4-1.6-.3-1.6-.3.1-.4.6-.5.6-.5-2.3-.7-3 .3-3 .3-.3-.3-.4-.5-.4-.6.4-.2.7-.4 1.1-.5.7-.2 1.8.4 2.4.8 1 .6 2 1.2 2.9 1.9-.7 1.7 1.1 4 1.1 4 .3-.3.6-1.3.6-1.3-.1.8.8 2 1.9 2.2 1.1.2 2.5 1.7 2.5 1.7-.4-.5-.2-2.8-.2-2.8 1.4-.8 3.7 1 3.7 1-.3-.2-.4-1.3-.4-1.3.2-.1 2.1.7 2.1.7l-.3-.7c.3.2 3 .3 3 .3-.8 0-2.8-2.1-2.8-2.1h.9c-.5-.8-2-1.1-2-1.1.2-.4.8-.4.8-.4-1-1.2-2.9-1.4-2.9-1.4.8-1.3 2-1.7 2-1.7-.8-.6-2.2-.7-2.2-.7l.5-.5c-.6-.4-2.3.3-2.3.3-.2-.3.1-.8.1-.8-1.3 0-2.5 1.3-2.5 1.3-.3-.6.4-1.4.4-1.4-3.6 1.3-3.8 3.3-3.8 3.7-.6-.3-1.1-.6-1.7-.9-.9-.5-1.9-.9-2.8-1.4h-.1c.1-.1.2-.2.4-.3 0 0 .5 1.2 2.9.9 0 0-.5-.2-.5-.6 0 0 1 .3 1.6 0 0 0-.3-.2-.3-.4 0 0 1.1-.1 1.3-.4l-.4-.1s.8-.4 1-.9c0 0-.7.1-1.5-.3 0 0 .9-.6 1.1-1.4 0 0-.3.1-.6 0 0 0 .7-.5.8-1l-.5.2.3-.9c0-.1.6-.6.4-.7h-.1c-.2 0-.5.3-.7.4-.2.1-.5.2-.6.4v-.4s-.8.9-.9.9c0 0-.2-.5-.1-.7 0 0-.8 1.5-1.7 1.4-.1-.2-.2-.4-.3-.5-.1-.2-.1-.4-.3-.5-.1.2-.2.3-.3.5-.2.2-.4.4-.7.6-.5.4-.7 1.2-.4 1.5 0 0-.4-.4-.6-.5 0 0-.4 1.8.6 2.3 0 0-.2.1-.5.4-.9-.5-1.8-1.2-2.9-1.5-1.4-.4-2.9-.6-4.2 0-.6.2-1.1.6-1.6 1-.2.1-.4.3-.7.3-.2 0-.3-.2-.5-.2s-.4.1-.6.1c-.6-.1-1.2-.3-1.7-.6-.9-.4-1.9-.5-2.8-.5h-1.3c-.4 0-1.2 0-1.4-.5-.1-.2 0-.4.1-.6.2-.2.4-.2.6-.2.5 0 .9.1 1.3.3.5.2 1.1.3 1.7.2.4-.1.8-.2 1.3-.4.4-.1.9-.2 1.3-.3.4-.1.9-.4 1.2-.8.8 1.7 3.8 1.4 3.8 1.4-.1-.4-.7-1-.7-1 .6.5 1.9.4 2.6-.4.3-.3.7-.7 1.1-.9.3-.1.6-.2.8-.3-.2-.2-.6-.4-.8-.5-.3-.2-.6-.4-.9-.5.1-1.4 2.6-2.3 2.6-2.3-.3.1-1.2-.3-1.2-.3 0-.2 1.5-1.2 1.5-1.2l-.6-.1c.3-.1.5-.5.7-.8.2-.2.8-.6.8-1v-.1c-.2-.3-1.1.4-1.3.5-.5.2-1 .3-1.5.4l.5-.7c-.8 0-1.8.9-1.8.9-.2-.4.1-.8.1-.8-1.4.2-2.5 1.4-2.5 1.4-.6-1.2-.3-2.3-.3-2.3-.9.3-1.6 1.3-1.6 1.3l-.2-.6c-.6.3-.9 1.8-.9 1.8-.3 0-.6-.5-.6-.5-.6 1-.2 2.5-.2 2.5-.6-.1-.9-.9-.9-.9 0 .2-.1.3-.1.5-2.3-1-5-1.9-7.4-.7-1.1.5-1.9 1.4-2.7 2.2-.8.9-1.7 1.8-2.6 2.6l-3.3 3c1.4.4 2.8.1 4.2-.1 1.4-.2 2.7.1 4.1.1 2.4 0 5 .6 6.9 2.2.3.2.5.5.8.7-5.9-1.6-12-2.6-18.4-2.8 2.6-1.8 5-4.1 6.9-7.4.8.3 1.6.4 2.1-.1 1.1-.9 1.5-1.2 1.2-1.3-.3-.1-.7.2-1.1.1-.2-.3-.6-1-.7-1.2-.3-.3-1-.6-1.2-.6-.3 0-1.2.1-1.5.3-.6-.6-.8-1.4-1-2.1 0-.1 0-.4-.1-.5-.1-.1-.3.5-.3.6-.1.3-.2.5-.3.8-.2.7-.4 1.5-.1 2.2.1.3.4.6.7.8.1.1.3.2.4.2.3.1.5.3.8.4 0 .1-.1.2-.1.4-.3.6-.7 1.2-1.1 1.8-.8 1.1-1.7 2.1-2.6 3-.5.5-1 .9-1.4 1.2.3-.7.6-1.4.6-2.2 0-.6-.1-1.3-.3-1.9-.1-.3-.3-.6-.5-.9.1-.1.3-.1.4-.1.1 0 .2-.1.4-.2s.5-.3.6-.5c.1-.1.2-.3.3-.4 0 0 .1-.3.1-.8v-.5c0-.1 0-.2-.1-.3-.1-.2-.2.1-.3.2-.1.1-.1.2-.2.2-.2.2-.4.3-.6.2-.3 0-.6-.2-.8-.2H127.8c-.3 0-.6-.1-.9-.2-.3-.1-.6-.1-.9-.1-.4 0-.7.2-1.1.4-.1.1-.2.1-.3.2l-.1.1v.1c-.1.1.1.4.1.4.1.2.2.4.4.5 0 0 .8 2 2.2 2 .4 0 .9-.1 1.3-.3.1 0 .2-.1.3-.2 0 .1.1.2.1.3.1.1.1.2.2.3.1.2.2.5.3.7.2.6.2 1.1.1 1.7 0 .4-.1.7-.3 1-.3.9-.9 1.4-1.5 1.8h-1.4c-2.6 0-5.1.1-7.6.4v-.2c0-.4.3-.8.5-1.1.1-.1.1-.3.2-.5 0 .1.1.1.1.2.3.3.9.7 2.4.5 0 0-.5-.2-.5-.5 0 0 .8.3 1.4 0 0 0-.3-.2-.2-.3 0 0 .9-.1 1.1-.4l-.3-.1s.7-.3.9-.8c0 0-.7.1-1.3-.3 0 0 .8-.5 1-1.2 0 0-.3.1-.5 0 0 0 .6-.5.7-.9l-.4.2c.1-.3.2-.5.3-.7 0-.1.5-.5.4-.6-.2 0-.5.3-.6.4-.2.1-.4.2-.5.4v-.3s-.7.8-.8.7c0 0-.2-.5-.1-.6 0 0-.7 1.3-1.5 1.3-.1-.2-.2-.3-.3-.5-.1-.2-.1-.3-.2-.5-.1.1-.1.3-.2.4-.1.2-.4.4-.6.5-.5.3-.6 1-.4 1.3 0 0-.3-.4-.5-.4 0 0-.3 1.2.3 1.8.1 0 .2.1.3.2-.2.4-.5 1.1-.8 1.3l-.3-.6c-.2-.5-.7-.8-1-1.2-.1-.1-.3-.4-.4-.6.1 0 .3-.1.4-.1.5-.2 1.4-.9 1.9-2.8 0 0-.5.5-.9.4 0 0 .8-1 .8-1.9 0 0-.4.2-.6.2 0 0 .4-1.3.1-1.6l-.3.4s-.1-1-.5-1.5c0 0-.2.9-1.1 1.5 0 0-.3-1.3-1.1-1.9 0 0 0 .4-.3.6 0 0-.3-1-.8-1.3v.7c-.3-.2-.6-.5-.8-.8-.1-.1-.4-.9-.7-.8l-.1.1c-.2.2.1.7.2 1 0 .3 0 .6.2.8l-.5-.2s.7 1.2.6 1.4c0 0-.7 0-.9-.2 0 0 1.4 1.5.9 2.6-.3 0-.5.1-.8.1-.2 0-.5 0-.7.1.1.2.3.3.4.5.2.3.3.7.4 1 .2.7 1 1.3 1.6 1.2 0 0-.6.2-.8.5 0 0 1.5 1 2.6.6.1-.1.2-.1.3-.2.1.1.2.3.2.3l.6.6c.5.7.9 1.4 1.1 2.2-5.8.6-11.3 1.9-16.6 3.7-1.3-.1-5.2-.9-6.3-1.2-1.6-.1-3.1-.3-4.8 0 2.7-1.1 5-3.1 7.9-3.6 1.3 1.3 2.5 3 4.4 3.5 1.2.3 2.5.1 3.7-.2.9-.3 2.2-.7 2.7-1.6.5-.9-.4-1.8-1-2.3-1.2-.9-2.6-1.3-4.1-1.5-.7-.1-1.9.1-2.6-.3 1-.7 2.5-1.8 3-2.3-.2.6.3 1.3.6 1.8.1 0 .2-.2.2-.1.1.4.4.7.6 1 .1-.1.1-.4.2-.5.2.3.4.6.7.7.2-.1.2-.4.3-.6.2.1.5.1.8.1.1-.2-.1-.3 0-.4.3.1.7.1 1 .1.1-.3-.1-.3-.1-.5.4 0 .6-.1.9-.1 0-.1-.1-.2-.1-.2.2-.1.5-.1.6-.4 0-.1-.1-.2-.2-.4.3-.2.6-.3.7-.5-.1-.2-.2-.3-.3-.5.2-.2.4-.4.5-.7-.2 0-.4-.1-.5-.2.2-.3.5-.6.4-1.1-.4 0-.6.4-1 .4 0-.2 0-.4-.1-.5-.3-.1-.6.3-.8.3 0-.2.2-.2.3-.4-.5-.2-1.1.1-1.4.1.3-.4.9-.4 1.1-.8-.1 0-.2 0-.3-.1.4-.1.8-.1 1-.4 0-.1-.2-.1-.2-.3.3-.1.6-.2.7-.5-.1-.2-.3-.2-.4-.3.2-.3.4-.5.5-.7-.2 0-.4 0-.5-.1.1-.4.1-1 .1-1.3-.6.1-1 .3-1.5.5 0-.1-.1-.2 0-.3-.4.2-.6.7-1.1.8-.1-.2-.3-.4-.4-.6-.2.2-.4.5-.6.8-.2-.2-.3-.4-.5-.5-.2.5-.1 1.3-.3 1.8-.1-.6-.1-1.3-.5-1.6-.1 0-.1.1-.2.1-.1-.5-.3-.9-.5-1.3-.3.1-.5.4-.7.7-.2-.1-.3-.2-.4-.3l-.3.9c-.3 0-.6-.2-.9-.1 0 .2.1.5.1.6-.2-.1-.3-.1-.5-.1-.3.3 0 .7.1.9-.3 0-.6.1-.8.3 0 .3.2.4.3.6-.2.1-.3.2-.4.3 0 .3.3.4.5.6-.2.2-.5.2-.7.5.3.1.6.1.8.3-.1.2-.3.4-.4.6.2.3.6.3.9.5 0 .3-.1.4-.2.6.2.1.6 0 .9 0v.4c.4-.2.8.2 1.1.2.1 0 .2 0 .3-.1-.5.5-2 1.5-3 2.2-.5-.6-.4-1.8-.5-2.5-.5-2.6-2.2-4.1-3.9-5.9-1 1.5-1.7 3.1-1.7 4.9 0 1.5.5 3.4 2 4.2.8.4 1.8.4 2.7.4-.3.2-.6.2-1 .3-.4.1-.5.3-.8.6-.9.7-1.9 1-2.9 1.4-1.7.7-3.2 1.8-4.8 2.6-1.9 1-3.8 1.6-5.8 2.4-1.1.5-2.2 1-3.3 1.6-.8.5-1.5 1-2.1 1.7-.5.5-.8 1.1-1 1.8-.4 1.1-.4 2.2-1.1 3.2-.4.6-1 .8-1.6 1.2-.6.4-1 .9-1.5 1.4-.5.5-1.1.8-1.6 1.4-.5.5-.7.9-1.5 1 .9-1.5 2-2.5 3.4-3.5.6-.5 1.3-1 1.6-1.8.3-.8.1-1.7 0-2.5-.1-1.2.2-2.2.6-3.3-1 .2-2.1.4-2.8 1.1-.7.7-.8 1.7-.8 2.7 0 1.1.1 2.2-.3 3.2-.4 1.1-1.2 2-2 2.9-.2.2-.4.5-.6.7.1-.9-.2-1.5-.2-1.5 1.6-.1 2.3-2.6 2.3-2.6-.3-.1-1 .2-1 .2.6-.3.9-1.4.5-2.2-.2-.4-.3-.8-.3-1.2v-.8c-.3.1-.5.3-.7.5-.2.2-.5.4-.7.5-1.1-.5-1-2.8-1-2.8 0 .3-.6.9-.6.9-.2-.1-.5-1.6-.5-1.6l-.3.5c0-.3-.3-.6-.4-.9-.1-.2-.2-.9-.5-.9h-.1c-.3.1 0 1 0 1.2 0 .4-.1.9-.2 1.3l.8-1.9c-.3.7.2 1.7.2 1.7-.3 0-.6-.3-.6-.3-.3 1.2.4 2.5.4 2.5-1.2.1-2-.5-2-.5-.1.8.6 1.7.6 1.7l-.6-.1c0 .5 1.2 1.3 1.2 1.3-.1.2-.6.3-.6.3.6.8 1.9 1 1.9 1-.3.5-1 .4-1 .4 2.6 1.8 4 .6 4 .6.4.7.3 1 .2 1.3v.6c-.4.7-.8 1.3-1.2 2.1-.5 1.2-.9 2.5-1.4 3.8-.4 1.1-1 2.1-1.5 3.1-.2.3-1.2 2.7-.8 3.1-1.8 2.3-3.4 4.7-5 7.2.8-1.4 1.6-2.9 2.5-4.1-2-.1-3.9.4-5.2 2 .4-1.3.6-2.4 1.2-3.8.1 0 .1-.1.2-.1.7.3 2.3.5 4.8-1.4 0 0-1 .2-1.3-.4 0 0 1.7-.4 2.4-1.4 0 0-.6 0-.7-.3 0 0 1.5-1.1 1.5-1.8l-.7.1s.8-1.3.7-2.2c0 0-1 .8-2.5.8 0 0 .9-1.7.5-3.1 0 0-.4.5-.8.5 0 0 .6-1.4.3-2.2l-.5.7c-.1-.5-.2-1.1-.2-1.6 0-.2.3-1.4 0-1.5h-.1c-.4.1-.5 1-.7 1.2-.2.3-.5.7-.5 1.1l-.3-.6s-.4 2-.6 2.1c0 0-.8-.6-.8-1 0 0 .2 2.9-1.3 3.7l-.9-.6c-.3-.2-.5-.4-.9-.6 0 .3.1.6 0 1 0 .5-.2 1-.4 1.5-.5 1 0 2.4.7 2.7 0 0-.9-.3-1.3-.2 0 0 .7 2.2 2.1 2.9.2.3.5.6.5.9v.5c-.1.8-.7 1.7-.9 2.4-.4-1.5-.8-2.9-1.8-4.2-.4-.5-.9-1.1-1.4-1.6-1.7 3.3-1 6.7 2.6 7.9-.2 1.1-.8 2.4-1.1 3.6-.1-.8-.5-1.3-.8-2.1-.2-.5-.3-1.1-.5-1.3-.1-.1-.5-.2-.7-.4-.3-.3-.4-.8-.6-1-.3-.3-.8-.3-1.2-.6-.5-.4-.8-1.5-1.7-1.1-.7 3.7.8 6.3 4.6 8.1 1 1.4.4 3.6.3 5.5-1-.7-.7-1.8-.8-2.8 0-.5-.1-1-.3-1.5-.1-.3-.3-.8-.5-1-1.3-2.1-4.9-2.7-7-1.8.3 2 1.2 4.8 3.4 6 1.2.6 2.6.5 4.1 1.1.6.6.7 1.5.7 2.3-1.1 2.8-2 5.6-2.8 8.5-.8-3.3-2.2-6.5-4.8-9.5.5-.7.9-1.4.7-2-.5-1.3-.6-1.8-.8-1.5-.2.2 0 .7-.3 1.1-.3.1-1.1.2-1.3.3-.4.1-.9.7-1 .9-.1.3-.3 1.2-.2 1.5-.7.4-1.6.3-2.3.2-.1 0-.4-.2-.5-.1-.2.1.4.5.4.5.2.2.4.4.7.5.6.4 1.3.8 2 .8.3 0 .7-.2 1-.4l.3-.3c.2-.2.4-.4.7-.6.1.1.2.1.3.2.5.5.9 1.1 1.3 1.7.8 1.2 1.4 2.3 1.9 3.4.3.6.5 1.2.6 1.7-.5-.5-1.2-1-1.9-1.3-.6-.2-1.3-.4-1.9-.3-.3 0-.7.1-1 .2v-.4-.4c0-.3-.1-.5-.3-.8-.1-.1-.2-.3-.3-.4 0 0-.2-.2-.7-.4-.2 0-.3-.1-.5-.1-.1 0-.2-.1-.3-.1-.2 0 0 .2.1.3.1.1.1.2.2.3.1.2.1.4 0 .6-.1.3-.3.5-.5.7-.1.2-.2.4-.3.7-.1.2-.1.4-.2.6-.1.3-.3.5-.5.8-.2.2-.3.5-.4.8-.1.4 0 .8 0 1.2 0 .1 0 .3.1.4 0 0 0 .1.1.1l.1.1c0 .1.4.1.4 0 .2 0 .4-.1.6-.2 0 0 2.2-.1 2.6-1.4.1-.4.2-.9.2-1.3 0-.1 0-.3-.1-.3h.3c.1 0 .2-.1.4-.1.3-.1.5-.1.8 0 .6 0 1.1.2 1.7.5l.9.6c.6.5.9 1.1 1.1 1.7-1 .9-2 1.9-3.3 2.2-1.3.3-2.6.1-3.7.8-.8.5-1.5 1.1-2.3 1.7.9.3 1.9-.3 2.8-.3-.1 0-.5.4-.7.5-.3.2-.7.3-1 .5l-1.8.6c-.7-1.1-1.6-2.3-3-2.8-1.9-.6-4.3.9-5.7-.1-.1.5.3 1 .6 1.5.7 1.2 1.6 2.4 3.1 2.8.3.1.7.1 1 .1.9 0 2-.1 2.9-.4.4-.1.9-.2 1.3-.3 1.3-.4 2.5-.9 3.6-1.5.1-.1.3-.2.4-.2-1.8 2.3-.7 5.1-1.7 7.8 1.7-.2 3.4-1.4 4.1-3.4.7-1.9-.5-3.8-.5-5.5 1.4-.9 2.7-1.8 3.9-2.9.1 0 .1-.1.2-.1 0 .2.1.4.1.6 0-.1.1-.2.1-.3-1.5 6-2.3 12.2-2.3 18.7 0 2.4.1 4.9.3 7.2 0-.4-.1-.8-.1-1.2-2.5.8-4.5 2.4-4.6 4.8-.5-.8-1.4-1.8-1.3-2.7 3.7-.2 4.8-2.7 5.5-5.2v-1.1c-.5-.1-1 .4-1.5.6-.3.1-.7.1-1 .2-1.4.5-3 1.7-3.5 2.9-.2.5-.1 1-.5 1.3-.4-1.5-1.2-2.8-1.4-4.3 2.9 1.1 5.1-2 5.8-4 .1-.6 0-1.2.2-1.8.1-.2.5-.5.2-.8-3.3.6-6.4 2.6-6.6 5.6-.4-1.1-.8-2.1-1.1-3.4.6-1.2 1-2.9.2-4.7-.7-1.5-1.8-3-2.8-3.6-.6 1.4-1.5 2.9-1.3 4.7.2 1.6 1.1 3.1 2.4 3.9.3.2.7.2.9.4.5.6.5 1.9.9 2.6-1.1-.9-2.2-1.7-3.5-2.1-.6-.2-1.2-.4-1.9-.4.5 3.3 2.8 5.5 6.1 4.5.5.9.7 2.2 1.1 3.3-.5-.5-1-.7-1.7-1.1-.4-.2-.8-.7-1.1-.7-.2 0-.5.1-.7.1-.4 0-.7-.4-1-.4-.4 0-.8.2-1.2.2-.6 0-1.4-.6-1.8.1 1.4 3.1 3.9 4.2 7.6 3.5 1.5.5 2.2 2.4 3.1 3.9-1.1 0-1.5-1-2.1-1.7-.3-.3-.6-.7-1-.9-.2-.1-.7-.4-.8-.5-2-.9-5.1.5-6.1 2.3 1.3 1.4 3.4 2.9 5.6 2.6 1.2-.2 2.2-1 3.6-1.3.7.1 3.2 3.8 4.2 5.2v.2c.1.7.3 1.4.5 2.1-.2-.3-.6-.7-.9-1-1.3-1.3-4.2-1.8-5.7-1.1.3 1 .7 2.1 1.5 2.8-1.2.4-2.4 1.1-2.8 2 1.1.9 2.3 2 3.9 2 1.8.1 3.5-1.8 5.1-1.6.2.7.5 1.3.8 2 .5 1.2 1.2 2.4 1.9 3.5-.1.2-.4.7-.4.7-.9.8-.9 1.7-.9 1.7-.4-.2-.9-.3-1.4-.1.3-1.6-1.9-2.9-1.9-2.9-.2.3 0 1.1 0 1.1-.2-.6-1.1-1.3-2-1.1-.4.1-.8.1-1.2 0-.3-.1-.5-.1-.7-.2 0 .3.2.5.3.8.1.3.2.5.3.8-.8 1-3 .2-3 .2.3.1.7.8.7.8-.1.2-1.7 0-1.7 0l.4.4c-.3-.1-.7.1-.9.2-.2.1-.9 0-1 .2v.1c0 .3 1 .3 1.1.3.4.1.8.3 1.2.5l-.7.2c.6.4 1.7.3 1.7.3-.1.3-.5.5-.5.5 1.1.6 2.5.3 2.5.3-.2 1.2-1 1.8-1 1.8.7.3 1.8-.1 1.8-.1l-.2.5c.5.1 1.6-.8 1.6-.8.1.1.1.4.1.5-.1.1-.1.2-.2.2H48.5c.7 1.1-.7 3-.7 3 .2-.2 1-.4 1-.4.1.2-.5 1.6-.5 1.6l.5-.3c-.2.2-.1.7-.1.9 0 .3-.3.9-.1 1.1h.1c.3.1.6-.8.6-1 .3-.3.5-.7.8-1v.7c.6-.4.8-1.6.8-1.6.3.2.4.6.4.6.9-.8 1-2.3 1-2.3 1.1.5 1.4 1.5 1.4 1.5.5-.6.4-1.8.4-1.8l.4.4c.3-.5-.3-1.8-.3-1.8.2-.1.7.1.7.1-.1-1-1.1-1.9-1.1-1.9.5-.3 1.1.2 1.1.2-1.2-3-3-2.8-3-2.8 0-.8.3-1 .5-1.3.1-.1.3-.5.5-.8.8 1.3 1.7 2.4 2.8 3.4.4.4.9.8 1.4 1.1 1.3 2.7 2.8 5.3 4.4 7.9-.5-.6-1.2-1.1-1.9-1.4-1.7-.9-3.6-1.5-5.1-2.3.2 2.8 1.8 6.1 3.9 6.9 1 .4 2 .3 3 .3.9 0 1.9.2 2.7.5h.1c.4.6.8 1.1 1.2 1.7-2.6-.4-5.3-.4-8.1.1-.1-.4-.3-.7-.6-1-.5-.8-.9-1.6-1.5-2-2.7-1.6-6.4-1.4-8.8.1 1.3.8 2.1 2.1 3.1 2.9 1.2 1 2.9 1.6 4.3 1.8.8.1 2.6-.1 3.2-.9 1.3-.3 2.5-.5 3.7-.5h1.9c-.7.3-1.4.7-1.9 1.3-.4.5-.8 1-1 1.7-.1.3-.1.7-.2 1-.1 0-.3-.1-.4-.2-.1 0-.3-.1-.4-.1-.3-.1-.6-.1-.8 0-.1 0-.4 0-.5.1 0 0-.3.1-.6.5-.1.1-.2.3-.3.4-.1.1-.1.2-.2.3-.1.2.2.1.3 0 .1 0 .2 0 .3-.1.2 0 .5 0 .6.2.2.2.3.5.5.7l.6.6c.2.1.3.3.5.3.3 0 .6-.2.8-.4l.6-.6c.1-.1.1-.2.2-.3 0 0 .1-.2.1-.1v.2c0 .1-.1.2-.1.3-.1.3 0 .4.2.6.5.4.7 1.1.8 1.8 0 .1 0 .3.1.3.1.1.2-.3.2-.4 0-.2.1-.4.1-.6 0 0 .7-2.1-.4-2.9-.4-.3-.8-.5-1.2-.6-.1 0-.2-.1-.4 0 .1-.1.1-.2.1-.3 0-.1 0-.2.1-.4 0-.3.1-.5.3-.8.3-.5.6-1 1-1.4l.9-.6c1.1-.6 2.1-.5 3-.3v-.2-.2l2.4 3h-.1c-.7.5-.8 1.2-.8 1.2-1-.7-2.6.4-2.6.4.2.2.7.4.7.4-.5-.1-1.2.4-1.4 1.1-.1.3-.2.6-.4.9-.1.2-.3.3-.4.4.2.1.4 0 .6 0h.7c.4.9-.8 2.2-.8 2.2.1-.2.8-.2.8-.2.1.1-.5 1.2-.5 1.2l.4-.2c-.2.2-.1.5-.2.7 0 .2-.3.7-.2.8.2.1.5-.6.6-.7l.7-.7v.6c.5-.3.7-1.1.7-1.1.2.2.2.5.2.5.7-.6 1-1.7 1-1.7.8.5.9 1.2.9 1.2.4-.4.5-1.3.5-1.3l.3.3c.2-.3-.1-1.4-.1-1.4.2-.1.5.1.5.1 0-.8-.7-1.5-.7-1.5.4-.2.8.3.8.3-.6-2.4-2-2.4-2-2.4.1-.6.3-.8.5-.9.1 0 .1-.1.2-.2 3.5 4.1 7.4 7.8 11.7 11.1-.9.1-1.9.3-2.2.3-1.9.3-3.8.6-5.8.5-.4-.6-.9-1.1-.9-1.1-.2.3-.3 1-.3 1 0-.6-.9-1.4-1.7-1.5-.4 0-.8-.1-1.2-.2-.2-.1-.4-.2-.7-.4 0 .3.1.6.1.8.1.3.1.6.1.9-1 .8-3-.4-3-.4.3.1.5.9.5.9-.1.1-1.7-.3-1.7-.3l.3.5c-.3-.2-.7 0-.9 0-.3 0-.9-.2-1.1 0v.1c-.1.3.9.5 1 .5.4.2.7.5 1.1.7l-.7.1c.5.5 1.6.6 1.6.6-.1.3-.6.4-.6.4.9.8 2.4.8 2.4.8-.4 1.1-1.3 1.6-1.3 1.6.7.4 1.8.2 1.8.2l-.3.5c.5.2 1.7-.5 1.7-.5.1.1.1.4 0 .6l-.2.2c.3.1.6.1.8.1.3 0 .6.1.9.1.5 1.2-1.2 2.8-1.2 2.8.2-.2 1-.2 1-.2.1.2-.8 1.5-.8 1.5l.5-.2c-.2.2-.2.6-.3.9-.1.3-.4.8-.3 1l.1.1c.3.2.7-.7.8-.8.3-.3.7-.5 1-.8l-.1.7c.6-.3 1.1-1.4 1.1-1.4.3.2.2.7.2.7 1-.6 1.5-2 1.5-2 .9.7 1.1 1.7 1.1 1.7.6-.5.8-1.6.8-1.6l.3.4c.4-.4.1-1.8.1-1.8.2-.1.6.2.6.2.1-1-.7-2-.7-2 .5-.2 1 .4 1 .4-.5-2.8-2-3.2-2.3-3.3.1-.4.3-.7.6-1.1l.1-.1.3-.3c.5-.4 1-.3 1.6-.6h2.2c.1 0 1.9-.2 2.6-.3 3.3 2.4 6.9 4.6 10.6 6.5.1.2.1.4.1.6l-.4-.3c0 .5.6 1.1.6 1.1-.2.1-.5-.1-.5-.1.1.9.9 1.6.9 1.6-.8.3-1.5.1-1.5.1.1.5.8 1 .8 1l-.4.1c.2.4 1.2.6 1.2.6 0 .2-.3.3-.3.3.6.4 1.6.2 1.6.2-.1.4-.6.5-.6.5 2.3.7 3-.4 3-.4.3.2.4.4.5.6-.4.2-.7.4-1.1.5-.7.2-1.8-.4-2.4-.7-1-.6-2-1.2-3-1.9.7-1.7-1.2-4-1.2-4-.3.3-.5 1.3-.5 1.3.1-.8-.9-2-1.9-2.1-1.1-.2-2.6-1.6-2.6-1.6.4.5.3 2.8.3 2.8-1.4.9-3.8-.9-3.8-.9.3.2.4 1.3.4 1.3-.2.1-2.1-.6-2.1-.6l.3.6c-.3-.2-3-.3-3-.3.8 0 2.8 2 2.8 2h-.9c.5.7 2 1 2 1-.2.4-.8.5-.8.5 1 1.2 2.9 1.4 2.9 1.4-.7 1.4-2 1.8-2 1.8.8.6 2.3.6 2.3.6l-.5.5c.6.4 2.3-.3 2.3-.3.2.3-.1.8-.1.8 1.3-.1 2.5-1.3 2.5-1.3.3.6-.3 1.4-.3 1.4 3.6-1.4 3.7-3.4 3.7-3.8.6.3 1.1.6 1.7.9.9.5 1.9.9 2.9 1.3h.1c-.1.1-.2.2-.4.3 0 0-.5-1.2-3-.8 0 0 .5.2.6.6 0 0-1-.3-1.6 0 0 0 .3.2.3.4 0 0-1.1.1-1.3.5l.4.1s-.8.4-1 .9c0 0 .7-.1 1.5.3 0 0-.9.6-1.1 1.4 0 0 .3-.1.6 0 0 0-.7.5-.7 1l.5-.2-.3.9c0 .1-.6.6-.4.7h.1c.2 0 .5-.3.7-.4.2-.1.5-.2.6-.4v.4s.7-.9.9-.9c0 0 .2.5.1.7 0 0 .7-1.5 1.7-1.5.1.2.2.4.3.5.1.2.2.4.3.5.1-.2.1-.3.2-.5.2-.2.4-.5.6-.6.5-.4.7-1.2.4-1.6 0 0 .4.4.6.5 0 0 .4-1.8-.7-2.3 0 0 .2-.1.4-.4.9.5 1.9 1.1 2.9 1.4 1.4.4 2.9.5 4.2-.1.6-.2 1-.7 1.6-1 .2-.1.4-.3.7-.3.2 0 .3.2.5.2s.4-.1.6-.1c.7.1 1.4.5 2.1.7.5.1 1 .1 1.5.2.3.1.7.2 1 .3.4.1.7 0 1 0h.9c.2.1.8.2.7.5-.1.6-1.5.2-1.8.1-.8-.2-1.7-.1-2.5-.3-.9-.2-1.9-.6-2.9-.3s-1.6 1.1-2.2 1.9c-.7 1-1.5 1.9-2.5 2.6l-.1.1s-.1 0-.1.1c.1 0 .3 0 .4.1h1c1.2 0 2.3-.1 3.4-.6 1.5-.8 1.9-1.6 2.2-2.7 3.5.7 6.9.3 10.9-1.2.5.3 1.2.6 1.4.9-.6.4-1 .8-1.5 1.3-.4.4-1 .8-1.6.6-.3-.1-.6-.3-.9-.4-.4-.1-.8-.1-1.2-.1-1.9.2-3.5 1.2-5 2.2-.9.7-1.9 1.2-2.9 1.8 1.8 1 3.8 1.4 5.9 1.1 1-.2 2-.6 2.9-1.2.7-.5 1.3-1.2 1.8-2 .1-.2.3-.4.4-.6.3-.5.7-.9 1.2-1.3.3-.2.5-.4.8-.5.4-.3.8-.3 1.1-.8.3-.4.5-.9.9-1.3.1-.1.2-.2.3-.2 1.9.1 3.7.2 5.6.2 1.5 0 3.1-.1 4.6-.1-1.4.7-2.7 1.5-4.1 2.5-.6-.6-1.3-.9-2-.8-1.3.4-1.8.5-1.6.8.2.2.7.1 1.1.3 0 .3.1 1.1.2 1.3.1.4.7.9.9 1 .3.2 1.2.3 1.5.3.3.7.3 1.6.1 2.4 0 .1-.2.4-.1.5.1.2.5-.3.5-.4.2-.2.4-.4.6-.7.4-.5.9-1.3.9-2 0-.3-.1-.8-.4-1-.1-.1-.2-.2-.3-.4-.2-.2-.4-.4-.6-.7.1-.1.1-.2.2-.3.5-.5 1.1-.9 1.7-1.2 1.2-.7 2.4-1.3 3.5-1.8.1-.1.3-.1.4-.1.4 0 .7-.1 1.1-.1-.4.4-.8.9-1.1 1.5-.3.6-.4 1.2-.4 1.9 0 .3.1.7.1 1h-.8c-.3 0-.5.1-.8.3-.1.1-.3.2-.4.3 0 0-.2.2-.4.7 0 .2-.1.3-.1.5 0 .1-.1.2-.1.3 0 .2.2 0 .3-.1.1-.1.2-.1.3-.2.2-.1.4-.1.6 0 .3.1.5.4.7.5l.6.3c.2.1.4.1.6.2.3.1.5.4.7.5.2.2.5.3.7.4.4.2.8 0 1.2 0h.4s.1 0 .1-.1l.1-.1c.1 0 .1-.4.1-.4 0-.2-.1-.4-.2-.6 0 0 0-2.2-1.3-2.6-.4-.1-.9-.3-1.3-.2-.1 0-.3 0-.3.1v-.3c0-.1 0-.2-.1-.4-.1-.3 0-.5 0-.8.1-.6.2-1.1.5-1.7l.6-.9.3-.3c3-.3 5.9-.9 8.8-1.5-.9.3-1.7.7-2.5 1.2-.7.5-.9.6-.9 1.2 1 .7 2 1.4 3 2.2v-.1c.9.6 1.8.9 2.9 1.1.5.1 1 .1 1.5.1H150c-1 .6-2.6 1.8-3.1 2.2.2-.6-.3-1.3-.6-1.8-.1 0-.2.2-.2.1-.1-.4-.3-.7-.6-1-.1.1-.2.4-.2.5-.2-.3-.3-.6-.7-.8-.2.1-.2.4-.3.6-.2-.1-.5-.1-.8-.1-.1.2.1.3 0 .4-.3-.1-.7-.2-1-.1-.1.3.1.3.1.5-.4 0-.6 0-.9.1 0 .1.1.2.1.2-.2.1-.5.1-.6.3 0 .1.1.2.2.4-.3.2-.6.3-.8.5.1.2.2.3.3.5-.2.1-.4.4-.5.7.2 0 .4.1.4.2-.2.2-.5.6-.4 1.1.4 0 .6-.4 1-.4 0 .2 0 .4.1.5.3.2.6-.3.8-.2 0 .2-.2.2-.3.4.5.2 1.1-.1 1.4 0-.3.4-.9.4-1.2.8.1 0 .2 0 .3.1-.4.1-.8.1-1.1.4 0 .1.2.1.2.3-.3.1-.6.2-.8.5.1.2.3.2.4.3-.2.3-.4.4-.5.7.2 0 .4 0 .5.1-.1.4-.2 1-.1 1.3.6-.1 1-.3 1.5-.4v.3c.5-.2.6-.7 1.1-.8.1.2.3.4.4.7.2-.2.4-.5.6-.8.2.2.3.4.5.5.2-.5.1-1.3.3-1.8.1.6 0 1.3.5 1.6.1 0 .1-.1.2-.1.1.5.2.9.4 1.4.3-.1.5-.3.7-.6.2.1.3.2.4.3.1-.3.2-.6.4-.9.3 0 .6.2.9.1 0-.2-.1-.5-.1-.6.2.1.3.1.5.1.3-.3.1-.7-.1-.9.3 0 .6-.1.8-.2 0-.3-.2-.4-.3-.6.2-.1.3-.2.4-.3 0-.3-.3-.4-.4-.6.2-.1.5-.2.7-.5-.3-.1-.6-.1-.7-.3.1-.2.3-.4.4-.6-.2-.3-.6-.3-.9-.5 0-.3.1-.4.2-.6-.2-.1-.6-.1-.9 0v-.4c-.4.2-.8-.2-1.1-.2-.1 0-.2 0-.3.1.5-.5 2.5-1.8 3.5-2.4.1.1.1.4.1.5-.1.3-.3.5-.3.8-.2.6.1 1.3.2 1.8.4 1.4 1.3 2.8 2.2 3.9.3.3.5.7.8 1l.8.8c.4-.9 1.2-1.8 1.6-2.9.4-1.1.3-2.5 0-3.6-.3-1.2-.8-2.4-2.1-2.8-.3-.1-.7-.1-1-.2h-.6c-.2 0-.5.1-.6 0 .5-.3 1.2-.2 1.6-.6.3-.3.4-.4.8-.5.4-.1.8-.3 1.2-.4.8-.3 1.5-.7 2.2-1.1.4-.2.8-.5 1.2-.7.6-.4 1.4-.7 2-1.1.4-.3 1.1-.2 1.6-.5l1.5-.9c2.4-1.1 5-1.6 7.2-3 .6-.4 1.1-.8 1.6-1.4.4-.5.8-1 1-1.6.4-1.1.5-2.3 1.2-3.2.8-.9 1.9-1.5 2.9-2.2 1.1-.9 2.1-1.8 3.3-2.5-.4.8-.9 1.5-1.6 2-.7.6-1.5 1-2.2 1.6-1.3 1.1-1.2 2.4-1.3 4-.1 1.1-.3 2.2-.6 3.2.8-.2 1.8-.3 2.5-.9.7-.6.9-1.5 1-2.3.2-1 .2-2.1.5-3.1s.8-1.9 1.4-2.8c1-1.5 2.1-3 3-4.6 0 .2.1.4.1.4-.1 1.1.4 1.6.4 1.6-1.4.3-1.7 2.6-1.7 2.6.3 0 .9-.3.9-.3-.4.4-.6 1.4-.2 2 .2.3.4.6.4 1 0 .2.1.5.1.7.2-.1.4-.3.5-.5.2-.2.4-.4.6-.5 1 .3 1.2 2.4 1.2 2.4 0-.3.4-.8.4-.8.2 0 .6 1.4.6 1.4l.2-.5c0 .3.3.5.5.7.1.2.3.8.6.8h.1c.2-.1-.1-.9-.1-1v-1.2l.4.5c.1-.6-.4-1.5-.4-1.5.3-.1.6.2.6.2.1-1.1-.6-2.2-.6-2.2 1-.3 1.8.2 1.8.2 0-.7-.7-1.5-.7-1.5h.5c-.1-.5-1.2-1-1.2-1 .1-.2.5-.3.5-.3-.6-.6-1.8-.6-1.8-.6.2-.5.8-.5.8-.5-2.5-1.3-3.5-.1-3.5-.1-.4-.5-.4-.9-.4-1.2 0-.1-.2-.9-.2-1.1l.1-.1c1-1.7 2.1-3.5 2.3-5.5v-.7c.1-.3.3-.5.5-.8-.1.7-.2 1.2 0 1.9.2.6.5 1.2.9 1.7.2.2.5.4.8.7-.1.1-.2.2-.3.2l-.3.3c-.2.2-.3.4-.4.7 0 .1-.1.3-.1.5 0 0 0 .3.1.8.1.1.1.3.2.4.1.1.1.2.2.3.1.2.2-.2.2-.2 0-.1.1-.2.1-.3.1-.2.2-.4.5-.4.3-.1.6 0 .9-.1.3-.1.6-.1.8-.3.2-.1.4-.1.5-.3.2-.2.1-.6.1-.9 0-.3-.1-.5-.2-.8-.1-.1-.1-.2-.2-.3 0 0-.1-.1-.1-.2.1 0 .1.1.2.2s.1.2.2.2c.2.2.4.2.6.1.6-.2 1.3 0 1.9.2.1 0 .2.1.3.1.2-.1-.1-.3-.2-.4-.2-.1-.3-.3-.5-.4 0 0-1.5-1.7-2.7-1.1-.4.2-.8.4-1.2.7-.1.1-.2.2-.2.3 0-.1-.1-.2-.2-.2-.1-.1-.2-.2-.3-.2-.2-.2-.4-.4-.5-.6-.3-.5-.6-1-.7-1.6-.1-.3-.1-.7-.1-1.1 0-.4.1-.8.3-1.1 1.6-2 3.2-4 4.6-6.1 1.7 0 3.3-.5 4.3-1.8-.4 1.1-.6 2.2-1.1 3.4-1.2.6-2.6 1.8-2.9 3.7-.3 1.6-.3 3.5.1 4.5 1.3-.8 2.9-1.5 3.8-3.1.8-1.4.9-3.2.3-4.6-.1-.3-.5-.5-.5-.8-.1-.8.7-1.9.8-2.6.4 1.3.8 2.7 1.6 3.8.4.5.8 1 1.3 1.4 1.6-3 .9-6.1-2.3-7.2.1-1 .7-2.2 1-3.3.1.7.4 1.2.8 1.9.2.4.2 1 .5 1.2.1.1.5.2.6.3.3.3.3.7.6.9.3.2.8.3 1.1.5.5.4.8 1.3 1.5 1 .7-3.3-.7-5.7-4.2-7.3-.9-1.3-.3-3.2-.2-5 .9.7.6 1.7.7 2.6 0 .4.1.9.3 1.3.1.2.3.7.4.9 1.1 1.9 4.4 2.5 6.3 1.7-.3-1.8-1-4.3-3.1-5.4-1.1-.6-2.4-.5-3.7-1-.3-.3-.5-.7-.6-1.2 1.4-3.4 2.6-6.8 3.5-10.4l.3-.3c.2-.3.5-.5.5-.6.3-.4.5-.8.7-1.1v1.4c0 .3.1.6.1.9-.1.9-.5 1.4-1 1.9-.1 1-.2 2.1-.3 3.1l.2-.2c.2-.3 1.2-.7 1.1.1 0 .2-.4.4-.6.5-.4.4-.8 1.1-.5 1.7l.9-.3c.2-.1.3-.3.5-.3 0 .3-.3.5-.4.7-.1.2-.1.5-.2.7-.1.5 0 1-.3 1.5-.1.1-.3.2-.1.4.1.1.4-.1.4-.1.3-.2.5-.4.8-.6.2-.1 1-1.3 1.1-.9.1.4-.6 1.1-.8 1.5-.3.5-.7 1.2-.4 1.8.4 0 .9-.4 1.2-.6.3-.2.6-.6 1-.7 0 .3-.3.5-.4.7-.2.3-.3.6-.4.9-.8 2 1.4.4 1.4.4.1.3.1.6.1.9 0 .8.3 1.3.5 2 .1.2.1.3.2.5.1-.1.3-.3.3-.5v-.9s.1 0 .1-.1v-.1c0-.2 0-.3.2-.4.8.8 1.3 2.2 1.4 3.2.1.3 0 1.3.5 1.4.6.2.3-1.3.3-1.6 0-.4-.1-.8-.2-1.1-.1-.5-.2-1.1-.4-1.6-.1-.2-.5-.8-.4-1.1.3.2.9.9 1.3.7-.3-1-.7-1.9-1.5-2.6-.1-.1-.4-.6-.6-.7.4.1.7.8 1.3.8 0-1.1-.7-1.7-1.5-2.3-.1-.1-.4-.5-.5-.5.6.1 1.4.7 2 .6 0-.1-.1-.2-.1-.3-.1-.2-.2-.5-.4-.7-.2-.3-.3-.6-.5-.9-.2-.3-.5-.8.1-.7.2 0 .6.1.5-.2 0-.2-.2-.5-.3-.7-.3-.7-.8-1.2-1.6-1.4-.3-.1-.7-.2-.9-.4-.2-.1-.4-.4 0-.3.2 0 .4.1.6.2.6.1.7-.4.5-.9-.2-.3-.6-.6-.9-.8-.6-.4-1.5-.3-2-.8-.4-.4-.3-1-.3-1.4 0-.2-.1-.4-.1-.6v-.6c0-.1-.1-.2-.1-.2 0-.1.1-.3-.1-.5 0-.3 0-.6-.2-.9.1-.1.3-.2.4-.3.3-.3.7-.6 1.7-.7 0 0-.4 2.3 3.6 4 0 0-.6-.8-.3-1.5 0 0 1.2 1.3 2.5 1.5 0 0-.3-.6-.1-.8 0 0 1.7.8 2.4.5l-.5-.6s1.5.1 2.4-.5c0 0-1.3-.5-2-1.9 0 0 2-.1 3.1-1.3 0 0-.6-.1-.8-.5 0 0 1.6-.2 2.1-.9l-1-.1c.4-.4.9-.7 1.4-1.1.2-.1 1.5-.4 1.3-.8 0 0 0-.1-.1-.1-.3-.3-1.1.1-1.5.1-.4 0-.9-.1-1.3.1l.4-.6s-2 .7-2.2.6c0 0 .2-1.1.5-1.3 0 0-2.6 1.7-4 .8 0-.4 0-.8.1-1.1 0-.4.1-.7.1-1.1-.3.2-.6.4-.9.5-.5.2-1.1.4-1.6.4-1.1.1-2.2 1.3-2.2 2.1 0 0-.1-1-.5-1.3 0 0-2.4 2.5-1.3 4.3 0 0-1.1 0-2.1 1 .4-.9.8-1.8 1.1-2.8.7-2.4 1.2-4.9 1.3-7.4v-.5c.8 1.6 2.8 3.1 4.3 3.2.2-1 .3-2.2 0-3.2 1.3.2 2.7.2 3.4-.5-.5-1.3-1.1-2.8-2.5-3.6-1.7-1-4.3.1-5.5-1.2v.2c-.2-1.1-.4-2.2-.8-3.3-.1-.4-.3-.8-.5-1.2.2 0 .3 0 .5.1 1.9.3 3.9.5 5.7 1.2.2.7.6 1.3.6 1.3.3-.2.5-.9.5-.9-.1.6.4 1.6 1.2 1.9.4.1.8.3 1.1.5l.5.5c.1-.3.1-.6.1-.8 0-.3.1-.6.1-.9 1.1-.5 2.8 1.2 2.8 1.2-.2-.2-.2-1-.2-1 .2-.1 1.5.8 1.5.8l-.2-.5c.2.2.6.2.9.3.2.1.8.4 1 .3l.1-.1c1.1.3.2-.2.1-.3zm-81.9-78.7c-.7.2-1.5.3-2.2.6-.9.3-1.9.4-2.4-.6.7-.6 1.3-1.3 2.1-1.7.9-.4 1.7.1 2.5.3 1.9.4 3.9-1 5.4-1.9l3-1.8c-.5 3.1 1.1 3.9 1.1 3.9l-.4.4c-.4.4-1 .5-1.6.6-.5.1-1 0-1.4-.1-.7-.1-1.4-.1-2-.2h-.3c-1.3 0-2.6.2-3.8.5zM74 162.9c-.4.5-.5.9-.5.9-.4-.3-.9-.4-1.3-.4.2-.5.1-1-.1-1.5h1.2c.6 0 1.1 0 1.6.1-.4.3-.7.6-.9.9zm134-63c-.1 0-.1-.1-.1-.2.1 0 .1.1.1.2zm-3.6-1.3v.5l-3-.1v-.5-.7l3-.1c-.1.4 0 .6 0 .9zm-3.3 6.5c0-.4.1-.8.1-1.2l3 .2c0 .4-.1.9-.1 1.3l-3-.3zm2.9 1.1c0 .4-.1.9-.2 1.3l-3-.4c0-.4.1-.8.1-1.2l3.1.3zm-2.8-3.1c0-.4.1-.8.1-1.2l3 .1c0 .4 0 .9-.1 1.3l-3-.2zm.1-2v-1.3l3 .1v1.3l-3-.1zm3-4.1l-3 .1v-1.3l3-.1V97zm0-2.1l-3 .1c0-.4-.1-.8-.1-1.2l3-.2c0 .4.1.9.1 1.3zm-.2-2.1l-3 .2c0-.4-.1-.8-.1-1.2l3-.3c.1.5.1.9.1 1.3zm-.1-2.1l-3 .3c0-.4-.1-.8-.2-1.2l3-.4c.1.5.1.9.2 1.3zm-.3-2l-3 .4c-.1-.4-.1-.8-.2-1.2l2.9-.4c.2.3.2.7.3 1.2zm-.3-2.1l-2.9.4c-.1-.4-.1-.8-.2-1.2l2.9-.5c.1.4.2.8.2 1.3zm-.4-2.1l-2.9.5c-.1-.4-.1-.8-.2-1.2l2.9-.6c.1.4.2.9.2 1.3zm-.4-2.1l-2.9.6-.3-1.2 2.9-.7c.1.5.3.9.3 1.3zm-.4-2l-2.9.7-.3-1.2 2.9-.8c.1.4.2.9.3 1.3zm-.6-2l-2.9.8-.3-1.2 2.9-.8c.1.3.2.8.3 1.2zm-.5-2l-2.9.8c-.1-.4-.2-.8-.4-1.2l2.8-.9c.2.4.3.8.5 1.3zm-.7-2l-2.8.9c-.1-.4-.3-.8-.4-1.2l2.8-1c.1.4.3.8.4 1.3zm-.7-2l-2.8 1c-.1-.4-.3-.8-.5-1.2l2.8-1.1c.2.4.4.9.5 1.3zm-.7-2l-2.8 1.1c-.2-.4-.3-.8-.5-1.2l2.8-1.1c.2.4.3.8.5 1.2zm-.8-1.9l-2.8 1.1c-.2-.4-.3-.7-.5-1.1l2.7-1.2.6 1.2zm-.9-2l-2.7 1.2c-.2-.4-.3-.8-.5-1.1l2.7-1.3c.2.4.3.8.5 1.2zm-.9-1.8l-2.7 1.3c-.2-.4-.4-.7-.6-1.1l2.6-1.4c.3.4.5.8.7 1.2zm-.9-1.9l-2.6 1.4c-.2-.4-.4-.7-.6-1.1l2.6-1.4c.2.3.4.7.6 1.1zm-1-1.8l-2.6 1.4c-.2-.4-.4-.7-.6-1.1l2.6-1.5c.1.4.4.8.6 1.2zm-1.1-1.9l-2.6 1.5c-.2-.4-.4-.7-.7-1.1l2.5-1.6c.4.5.6.8.8 1.2zm-1.1-1.7l-2.5 1.6c-.2-.4-.4-.7-.7-1.1l2.5-1.7c.2.4.5.8.7 1.2zm-3.1-4.6c.3.4.5.7.8 1.1l-2.4 1.7c-.2-.3-.5-.7-.7-1l2.3-1.8zm-2.9 1.2c-.3-.3-.5-.7-.8-1l2.3-1.9c.3.3.6.7.8 1l-2.3 1.9zm4.1.5c.3.4.5.7.8 1.1l-2.5 1.7c-.2-.3-.5-.7-.7-1l2.4-1.8zm-.3-7.6c.6.1 1.2.2 1.7.4v.7c0 1-.8 1.4-1.2 2.3-.2.5-.3 1.1-.4 1.6-1.2-1.6-2.4-3.1-3.7-4.5 1.4-.2 2.4-.6 3.6-.5zm-2.7 3.6l-2.3 1.9c-.3-.3-.5-.7-.8-1l2.3-1.9c.3.4.5.7.8 1zm-1.3-1.6l-2.3 1.9c-.3-.3-.5-.6-.8-.9l2.2-2c.3.4.6.7.9 1zm-1.4-1.6l-2.2 2c-.3-.3-.6-.6-.8-.9l2.2-2c.2.3.5.6.8.9zm-1.4-1.5l-2.2 2-.9-.9 2.1-2.1 1 1zm-1.5-1.5l-2.1 2.1-.9-.9 2.1-2.1.9.9zm-1.5-1.5l-2.1 2.1c-.3-.3-.6-.6-.9-.8l2-2.2c.4.3.7.6 1 .9zm-1.5-1.4l-2 2.2c-.3-.3-.6-.5-.9-.8l1.9-2.3c.3.3.6.6 1 .9zm-1.6-1.4l-1.9 2.3c-.3-.3-.6-.5-1-.8l1.9-2.3c.3.3.6.6 1 .8zm-1.6-1.3l-1.9 2.3c-.3-.3-.6-.5-1-.8l1.8-2.4c.4.4.7.6 1.1.9zm-1.7-1.3l-1.8 2.4c-.3-.3-.7-.5-1-.7l1.7-2.4c.4.2.8.4 1.1.7zm-1.7-1.2l-1.7 2.4c-.3-.2-.7-.5-1-.7l1.7-2.5c.3.3.7.5 1 .8zm-1.7-1.2l-1.7 2.5c-.3-.2-.7-.4-1.1-.7l1.6-2.5c.5.2.8.4 1.2.7zm-1.8-1.2l-1.6 2.5c-.3-.2-.7-.4-1-.7l1.5-2.6c.4.3.8.6 1.1.8zm-1.7-1.1l-1.5 2.6c-.4-.2-.7-.4-1.1-.6l1.5-2.6c.3.2.7.4 1.1.6zm-1.9-1l-1.5 2.6c-.4-.2-.7-.4-1.1-.6L164 31c.4.2.8.4 1.1.7zm-3-1.7l1.2.6-1.4 2.6c-.4-.2-.7-.4-1.1-.6l1.3-2.6zm-.7-.3l-1.3 2.7c-.4-.2-.7-.4-1.1-.5l1.2-2.7c.4.1.8.3 1.2.5zm-1.9-.9l-1.2 2.7c-.4-.2-.8-.3-1.1-.5l1.2-2.7c.3.1.7.3 1.1.5zm-5-2.1c.4.2.8.3 1.2.5l-1.1 2.8c-.4-.2-.8-.3-1.2-.5l1.1-2.8zm-1.8 2.5c-.4-.1-.8-.3-1.2-.4l.9-2.8c.4.1.9.3 1.3.4l-1 2.8zm3.7-1.8c.4.2.8.3 1.2.5l-1.2 2.7c-.4-.2-.8-.3-1.2-.5l1.2-2.7zm-3.8-4.8c.8 0 1.5.2 2.3.4 1 .2 2.2.2 3.2-.1.2.5.4.7.4.7-1.1.4-1 2.2-1 2.2.3 0 .7-.4.7-.4-.2.2-.3.7-.1 1.1-1-.4-2-.8-2.9-1.2-.3-.5-.6-.9-.9-1.3-.4-.4-.9-.6-1.5-.8-.5-.1-1.2-.2-1.3-.8.1.4.7.2 1.1.2zm-.9 3.1l-.9 2.8c-.4-.1-.8-.3-1.2-.4l.9-2.9c.4.2.8.4 1.2.5zm-4.2-4.3c-.2-.1-.4-.2-.6-.4.9-.1 2.1.4 3 .9.2.1.3 1 .4 1.3l.3.6c-.2-.1-.4-.1-.7-.2l-.3-.6c-.5-.8-1.4-1.1-2.1-1.6zm2.2 3.7l-.9 2.9-1.2-.3.8-2.9c.5 0 .9.1 1.3.3zm-3.3-1c.4.1.9.2 1.3.3l-.8 2.9-1.2-.3.7-2.9zm-2-.4c.4.1.9.2 1.3.3l-.7 2.9-1.2-.3.6-2.9zm-2.1-.5c.4.1.9.2 1.3.3l-.6 2.9-1.2-.3.5-2.9zm-2-.3c.4.1.9.2 1.3.2L141 26c-.4-.1-.8-.2-1.2-.2l.5-2.9zm-2.1-.4c.4.1.9.1 1.3.2l-.5 2.9c-.4-.1-.8-.1-1.2-.2l.4-2.9zm-2.1-.2c.4 0 .9.1 1.3.2l-.4 3c-.4-.1-.8-.1-1.2-.2l.3-3zm-2.1-.2c.4 0 .9.1 1.3.1l-.3 3c-.4 0-.8-.1-1.2-.1l.2-3zm-2.1-.2c.4 0 .9.1 1.3.1l-.2 3c-.4 0-.8-.1-1.2-.1l.1-3zm-2.1-.1h1.3l-.1 3h-1.3l.1-3zm-.7 0l-.1 3h-1.3v-3h1.4zm-2.1 0v3h-1.3l-.1-3h1.4zm-2.1.1l.1 3h-1.3l-.2-3h1.4zm-2.1.1l.2 3c-.4 0-.8.1-1.2.1l-.2-3c.3-.1.7-.1 1.2-.1zm-2.1.1l.2 3c-.4 0-.8.1-1.2.1l-.3-3c.4 0 .8 0 1.3-.1zm-2.1.2l.3 3c-.4 0-.8.1-1.2.2l-.4-2.9c.4-.2.8-.2 1.3-.3zm-2.1.3l.4 2.9c-.4.1-.8.1-1.2.2l-.5-2.9c.4-.1.9-.1 1.3-.2zm-2.1.3l.5 2.9c-.4.1-.8.1-1.2.2l-.6-2.9c.4 0 .9-.1 1.3-.2zm-2 .4l.6 2.9-1.2.3-.7-2.9c.4-.1.8-.2 1.3-.3zm-2.1.5l.7 2.9-1.2.3-.7-2.9c.3-.1.8-.2 1.2-.3zm-2 .4l.7 2.9-1.2.3-.8-2.9c.4 0 .8-.1 1.3-.3zm-2.1.6l.8 2.9-1.2.3-.9-2.8c.5-.1.9-.3 1.3-.4zm-2 .6l.9 2.8c-.4.1-.8.3-1.2.4l-1-2.8c.5-.1.9-.2 1.3-.4zm-2 .7l1 2.8c-.4.1-.8.3-1.2.4l-1-2.8c.4-.1.8-.3 1.2-.4zm-1.9.7l1 2.8c-.4.1-.8.3-1.1.5L99 27.3c.4-.2.8-.3 1.3-.5zm-.9 3.5c-.4.2-.8.3-1.2.5L97 28.1c.4-.2.8-.3 1.2-.5l1.2 2.7zm-30.7 19c.3-.3.6-.7.9-1l2.2 2c-.3.3-.6.6-.8.9l-2.3-1.9zm1.8 2.5c-.3.3-.5.6-.8 1L67.3 51c.3-.4.5-.7.8-1.1l2.4 1.9zm-.4-4.1c.3-.3.6-.7.9-1l2.2 2c-.3.3-.6.6-.8.9l-2.3-1.9zm1.4-1.5c.3-.3.6-.6.9-1l2.1 2.1-.9.9-2.1-2zm1.5-1.5c.3-.3.6-.6 1-.9l2.1 2.1-.9.9-2.2-2.1zm1.5-1.5c.3-.3.6-.6 1-.9l2 2.2-.9.9-2.1-2.2zm1.5-1.5c.3-.3.7-.6 1-.9l2 2.2c-.3.3-.6.5-.9.8L76 41.7zm1.6-1.3c.3-.3.7-.6 1-.9l1.9 2.3c-.3.3-.6.5-.9.8l-2-2.2zm1.6-1.4c.3-.3.7-.5 1-.8l1.8 2.4c-.3.3-.7.5-1 .8L79.2 39zm1.6-1.3c.4-.3.7-.5 1.1-.8l1.8 2.4c-.3.2-.7.5-1 .8l-1.9-2.4zm1.7-1.3c.4-.3.7-.5 1.1-.8l1.7 2.4c-.3.2-.7.5-1 .7l-1.8-2.3zm1.7-1.2c.4-.3.7-.5 1.1-.7L87 37c-.3.2-.7.5-1 .7l-1.8-2.5zm1.8-1.1c.4-.2.7-.5 1.1-.7l1.6 2.5c-.4.2-.7.5-1.1.7L86 34.1zm1.8-1.2c.4-.2.8-.4 1.1-.7l1.5 2.6c-.4.2-.7.4-1.1.6l-1.5-2.5zm1.8-1c.4-.2.8-.4 1.1-.7l1.4 2.6c-.4.2-.7.4-1.1.6l-1.4-2.5zm1.8-1l1.2-.6 1.3 2.7c-.4.2-.7.4-1.1.6l-1.4-2.7zm1.9-1l1.2-.6 1.3 2.7c-.4.2-.7.4-1.1.6l-1.4-2.7zm1.9-.9c.4-.2.8-.4 1.2-.5l1.2 2.7c-.4.2-.8.3-1.1.5L95.2 29zM84 28.4c.4-1 .6-1.7 1.6-2.2 1.1-.5 2.2-.9 3.4-1.3 1.4-.5 3-1.1 4.5-.8.1 0 .7.1.7.2.1.1-.1.2 0 .4 1.3.4 2.5.9 3.7 1.6-2 .7-4 1.7-6 2.7.1-.1.2-.3.2-.4-1.9-1.2-5.1-1.9-7.5.4-.6.6-.8 1.5-1.3 2.2 0 0-.1.1 0 .1.9-.1 1.6.6 2.6.7h.7c-.4.2-.7.5-1.1.7-1-.3-2.3-.3-3.3-.1-1 .2-1.5 1.2-2.6 1.2 1.6-1.8 3.6-3.1 4.4-5.4zm-5.1 6.2c.7.2 1.3.8 2.1.9h.5c-.7.5-1.4 1.1-2.1 1.6-.6-.2-1.2-.4-1.8-.5-.6-.1-1.3.1-1.9-.1.4-1 2-2.2 3.2-1.9zm-6.4 4.6c.6-.5 1.3-1.1 2-.5.5.4.8 1.3 1.5 1-.8.7-1.7 1.5-2.5 2.2-1.1-.2-1.9 0-2.8.7-.8.7-1.5 1.4-2.4 2 1.3-1.9 2.3-3.9 4.2-5.4zm-3.2 6.2c.3-.3.7-.7 1.1-.8.3-.1.5 0 .8-.2-.8.8-1.5 1.6-2.2 2.4 0-.1.1-.2.1-.2-.6-.1-1.2.5-1.7.7.7-.6 1.2-1.3 1.9-1.9zm-2.4 6.2l2.4 1.8c-.3.3-.5.7-.8 1l-2.4-1.8c.3-.4.5-.7.8-1zm-1.3 1.6L68 55c-.2.3-.5.7-.7 1l-2.4-1.7c.2-.4.5-.7.7-1.1zm-1.2 1.7l2.4 1.7c-.2.3-.5.7-.7 1L63.7 56c.2-.3.5-.7.7-1.1zm-1.2 1.8l2.5 1.6c-.2.4-.5.7-.7 1.1l-2.5-1.6c.3-.4.5-.7.7-1.1zm-1.1 1.8l2.5 1.6c-.2.4-.4.7-.6 1.1l-2.6-1.5c.3-.5.5-.9.7-1.2zM61 60.3l2.6 1.5c-.2.4-.4.7-.6 1.1l-2.6-1.4c.2-.5.4-.8.6-1.2zM55.9 71c.2-.4.3-.8.5-1.3l2.8 1.1c-.2.4-.3.8-.5 1.2l-2.8-1zm2.5 1.7c-.1.4-.3.8-.4 1.2l-2.8-1c.1-.4.3-.8.5-1.3l2.7 1.1zM56.7 69c.2-.4.4-.8.5-1.2L60 69c-.2.4-.3.8-.5 1.1L56.7 69zm.9-1.9c.2-.4.4-.8.5-1.2l2.7 1.3c-.2.4-.3.8-.5 1.1l-2.7-1.2zm.8-1.9L59 64l2.7 1.3c-.2.4-.4.7-.6 1.1l-2.7-1.2zm1-1.9l.6-1.2 2.6 1.4c-.2.4-.4.7-.6 1.1l-2.6-1.3zm-1.6-6.5c.7 1 1.6 1.5 2.6 1.6-.3.6-.6 1.1-1 1.7-.7.1-1.3.3-1.8.5-.5.3-.7.8-1.3.9.6-1.5.8-3.2 1.5-4.7zM56.2 66c-.2.2-.4.4-.5.6.1-1-.1-2.5.6-3.3.4.2.7.4 1 .5.3-.5.6-1 .8-1.5-1.2 2.4-2.4 4.8-3.4 7.3l1.5-3.6zm-1.3 7.7l2.8 1c-.1.4-.3.8-.4 1.2l-2.8-.9c.1-.5.3-.9.4-1.3zm-.6 1.9l2.8.9-.3 1.2-2.9-.8c.1-.4.2-.8.4-1.3zm-.6 2.1l2.9.8-.3 1.2-3-.7c.1-.5.3-.9.4-1.3zm-.6 2l2.9.7-.3 1.2-2.9-.6c.1-.4.2-.9.3-1.3zm-.5 2.1l2.9.7-.3 1.2-2.9-.6c.1-.5.2-.9.3-1.3zm-.4 2l2.9.6c-.1.4-.1.8-.2 1.2l-2.9-.5c0-.4.1-.9.2-1.3zm3.3 41.5c-.2-.4-.3-.8-.4-1.3l2.8-1c.1.4.3.8.4 1.2l-2.8 1.1zm3.1-.3c.1.4.3.8.5 1.2l-2.8 1.1c-.2-.4-.3-.8-.5-1.3l2.8-1zm-3.7-1.7c-.1-.4-.3-.8-.4-1.3l2.8-.9c.1.4.3.8.4 1.2l-2.8 1zm-.7-2c-.1-.4-.2-.9-.4-1.3l2.9-.8.3 1.2-2.8.9zm-.6-2c-.1-.4-.3-.9-.4-1.3l2.9-.7.3 1.2-2.8.8zm-.5-2.1c-.1-.4-.2-.9-.3-1.3l2.9-.7.3 1.2-2.9.8zm-.5-2c-.1-.4-.2-.9-.3-1.3l2.9-.6.3 1.2-2.9.7zm-.4-2.1c-.1-.4-.2-.9-.2-1.3l2.9-.5c.1.4.1.8.2 1.2l-2.9.6zm1.7-9.8c0 .4.1.8.1 1.3l-3 .2c0-.4-.1-.9-.1-1.3l3-.2zm-3-.6v-1.3l3-.1v1.3l-3 .1zm3.2 2.6c0 .4.1.8.1 1.3l-3 .3c0-.4-.1-.9-.1-1.3l3-.3zm.2 2c0 .4.1.8.2 1.2l-2.9.4c-.1-.4-.1-.9-.2-1.3l2.9-.3zm.2 2c.1.4.1.8.2 1.2l-2.9.5c-.1-.4-.1-.9-.2-1.3l2.9-.4zm-2.7-23.4l2.9.5c-.1.4-.1.8-.2 1.2l-2.9-.4c.1-.4.2-.9.2-1.3zm-.3 2.1l2.9.4c-.1.4-.1.8-.2 1.2l-3-.3c.2-.4.2-.9.3-1.3zm-.3 2.1l3 .3c0 .4-.1.8-.1 1.2l-3-.2c0-.5.1-.9.1-1.3zm-.2 2.1l3 .2c0 .4-.1.8-.1 1.3l-3-.2c.1-.5.1-.9.1-1.3zm-.1 2.1l3 .2c0 .5 0 1-.1 1.4l-3-.1c0-.5.1-1 .1-1.5zm-.1 2.2l3 .1v1.5h-3v-1.6zm2.9 2.4v1.6l-3 .1v-1.7h3zm-3.8 9.2c-.1-.2-.1-.5-.2-.8 0-.3 0-.6-.1-.9.1.5.2 1.1.3 1.7zm-1.5 2c-.1.3-.2.7-.2.8-.1.7-.1 1.3-.1 2 0 .6 0 1.1.1 1.7-.8-1.1-2-3.1-2-3.4-.1-.8 1.1-1 1.8-1.2.2-.1.4-.2.6-.2-.2.1-.2.3-.2.3zm1.1 11v-.2c0 .1.1.2 0 .2.1 0 0 0 0 0zm5.4 8.5c-.4-.4-.8-.8-1.1-1.4l-1-1.4c-.4-.8-.8-1.7-1.2-2.6-.6-1.2-1.3-2.5-1.2-3.9.1-1.3.7-2.5.4-3.8-.2-.9-.6-1.8-.9-2.7-.6.8-.3 1.9-.6 2.8 0-.1-.3-.6-.3-.8-.1-.4-.1-.7-.1-1.1-.1-.8 0-1.6 0-2.3 0-.5.1-2 .1-2.9.4-.2.7-.5 1-.7 1 7.9 3.2 15.4 6.4 22.3l-1.5-1.5zm1.7-1.6l2.8-1.1c.2.4.3.8.5 1.2l-2.7 1.2c-.2-.5-.4-.9-.6-1.3zm.9 1.9l2.7-1.2c.2.4.3.8.5 1.1l-2.7 1.3c-.2-.4-.4-.8-.5-1.2zm.8 1.9l2.7-1.3c.2.4.4.7.6 1.1l-2.7 1.3c-.2-.3-.4-.7-.6-1.1zm1 1.9l2.7-1.3c.2.4.4.7.6 1.1l-2.6 1.4c-.3-.4-.5-.8-.7-1.2zm1 1.9l2.6-1.4c.2.4.4.7.6 1.1l-2.6 1.5-.6-1.2zm1 1.8l2.6-1.5c.2.4.4.7.6 1.1l-2.5 1.6c-.2-.4-.5-.8-.7-1.2zm3.6.2c.2.4.5.7.7 1.1l-2.5 1.6c-.2-.4-.5-.7-.7-1.1l2.5-1.6zm-2.5 4.3c.3.5.7 1 1.1 1.6-.6-.5-.9-1-1.1-1.6zm1.1-.9l2.5-1.6c.2.3.5.7.7 1l-2.4 1.7c-.3-.4-.5-.8-.8-1.1zm2 2.8c-.3-.4-.5-.7-.8-1.1l2.4-1.7c.2.3.5.7.7 1l-2.3 1.8zm.5.6l2.4-1.8c.3.3.5.7.8 1l-2.4 1.8c-.3-.3-.6-.6-.8-1zm2.1 2.7c-.3-.3-.6-.7-.8-1.1l2.4-1.8c.3.3.5.7.8 1l-2.4 1.9zm.5.6l2.3-1.9c.3.3.6.6.8 1l-2.2 2c-.3-.4-.6-.7-.9-1.1zm1.4 1.6l2.2-2c.3.3.5.6.8.9l-2.2 2c-.3-.2-.5-.5-.8-.9zm1.4 1.6l2.2-2 .9.9-2.1 2.1-1-1zm1.4 1.5l2.1-2.1.9.9-2.1 2.1c-.2-.3-.6-.6-.9-.9zm1.5 1.5l2.1-2.1.9.9-2 2.2c-.3-.4-.6-.7-1-1zm1.6 1.4l2-2.2c.3.3.6.6.9.8l-2 2.2c-.3-.2-.6-.5-.9-.8zm1.5 1.4l2-2.2c.3.3.6.5.9.8l-1.9 2.3c-.3-.3-.6-.6-1-.9zm1.7 1.4l1.9-2.3c.3.3.7.5 1 .8l-1.8 2.4c-.4-.4-.8-.6-1.1-.9zm1.6 1.3l1.8-2.4c.3.3.7.5 1 .8l-1.8 2.4c-.3-.2-.6-.5-1-.8zm1.7 1.3l1.8-2.4c.3.2.7.5 1 .7l-1.7 2.4c-.4-.2-.7-.5-1.1-.7zm1.7 1.2l1.7-2.4c.3.2.7.5 1 .7l-1.6 2.5c-.4-.3-.7-.6-1.1-.8zm1.8 1.2l1.6-2.5c.4.2.7.5 1.1.7l-1.6 2.5c-.4-.3-.8-.5-1.1-.7zm1.7 1.1l1.6-2.5c.4.2.7.4 1.1.6l-1.5 2.6c-.4-.3-.8-.5-1.2-.7zm1.9 1l1.5-2.6c.4.2.7.4 1.1.6l-1.4 2.6c-.5-.1-.9-.3-1.2-.6zm3 1.7l-1.2-.6 1.4-2.6c.4.2.7.4 1.1.6l-1.3 2.6zm1.9 1l-1.2-.6 1.3-2.7c.4.2.7.4 1.1.6l-1.2 2.7zm1.9.8c-.4-.2-.8-.4-1.2-.5l1.3-2.7c.4.2.8.3 1.1.5l-1.2 2.7zm3.9 1.6c-.4-.2-.8-.3-1.3-.5l1.1-2.8c.4.2.8.3 1.2.5l-1 2.8zm1.7-2.5c.4.1.8.3 1.2.4l-1 2.8c-.4-.1-.8-.3-1.3-.4l1.1-2.8zm-3.7 1.8c-.4-.2-.8-.3-1.2-.5l1.2-2.7c.4.2.8.3 1.2.5l-1.2 2.7zm4.4 4.7c-.8.1-1.5-.2-2.3-.4-1-.2-2.2-.2-3.2.2-.2-.5-.5-.7-.5-.7 1.1-.4 1-2.2 1-2.2-.3 0-.7.4-.7.4.2-.2.2-.6.2-1 1 .4 2.1.8 3.1 1.2.2.4.5.7.8 1 .4.4.9.6 1.5.8.5.1 1.2.2 1.3.8-.3-.3-.9-.1-1.2-.1zm1.6-2.6c-.4-.1-.8-.3-1.3-.4l1-2.8c.4.1.8.3 1.2.4l-.9 2.8zm1.6-2.6l1.2.3-.8 2.9c-.4-.1-.9-.2-1.3-.4l.9-2.8zm-.5 5.9c-.2-.1-.4-1-.4-1.3 0-.1-.1-.1-.1-.2.2.1.5.1.7.2 0 .1.1.1.1.2.5.8 1.4 1.1 2.1 1.5l.6.3c-.9.2-2.1-.3-3-.7zm2.9-2.1c-.4-.1-.9-.2-1.3-.4l.8-2.9 1.2.3-.7 3zm2.1.5c-.4-.1-.9-.2-1.3-.3l.7-2.9 1.2.3-.6 2.9zm2 .5c-.4-.1-.9-.2-1.3-.3l.7-2.9 1.2.3-.6 2.9zm2.1.3c-.4-.1-.9-.2-1.3-.2l.6-2.9c.4.1.8.1 1.2.2l-.5 2.9zm2.1.4c-.4-.1-.9-.1-1.3-.2l.5-2.9c.4.1.8.1 1.2.2l-.4 2.9zm2.1.3c-.4-.1-.9-.1-1.3-.2l.4-2.9c.4.1.8.1 1.2.2l-.3 2.9zm2.1.2c-.4 0-.9-.1-1.3-.1l.3-3c.4 0 .8.1 1.3.1l-.3 3zm2.1.1c-.4 0-.9-.1-1.3-.1l.2-3c.4 0 .8.1 1.3.1l-.2 3zm2.1.1h-1.3l.2-3h1.3l-.2 3zm2.1.1h-1.3l.1-3h1.3l-.1 3zm.7 0v-3h1.3l.1 3h-1.4zm2.1-.1l-.1-3h1.3l.1 3h-1.3zm2.1 0l-.1-3c.4 0 .8-.1 1.2-.1l.2 3c-.4 0-.8 0-1.3.1zm2.2-.2l-.2-3c.4 0 .8-.1 1.3-.1l.3 3c-.6.1-1 .1-1.4.1zm-6.5-4.1c-40 0-72.5-32.5-72.5-72.5S87.6 26 127.6 26c39.9 0 72.5 32.5 72.5 72.5-.1 40-32.6 72.5-72.5 72.5zm66.6-40.7c.2-.4.3-.8.5-1.1l2.7 1.2c-.2.4-.4.8-.5 1.2l-2.7-1.3zm2.3 2l-.6 1.2-2.6-1.4c.2-.4.4-.7.6-1.1l2.6 1.3zm-1.5-3.8c.2-.4.3-.7.5-1.1l2.8 1.1-.6 1.2-2.7-1.2zM149.7 169c.4-.1.8-.3 1.2-.4l.9 2.8c-.4.1-.8.3-1.3.4l-.8-2.8zm.1 3.1c-.4.1-.9.2-1.3.4l-.8-2.9 1.2-.3.9 2.8zm1.8-3.7c.4-.1.8-.3 1.2-.4l1 2.8c-.4.2-.9.3-1.3.4l-.9-2.8zm1.9-.7c.4-.1.8-.3 1.2-.5l1.1 2.8c-.4.2-.8.3-1.2.5l-1.1-2.8zm1.9-.7c.4-.2.8-.3 1.2-.5l1.2 2.7c-.4.2-.8.3-1.2.5l-1.2-2.7zm1.8-.8c.4-.2.8-.3 1.1-.5l1.2 2.7c-.4.2-.8.4-1.2.5l-1.1-2.7zm1.9-.9c.4-.2.7-.4 1.1-.5l1.3 2.7-1.2.6-1.2-2.8zm1.8-.9c.4-.2.7-.4 1.1-.6l1.4 2.6-1.2.6-1.3-2.6zm1.8-.9c.4-.2.7-.4 1.1-.6l1.5 2.6c-.4.2-.8.4-1.2.7l-1.4-2.7zm1.8-1c.4-.2.7-.4 1.1-.6l1.5 2.6c-.4.2-.8.4-1.2.7l-1.4-2.7zm1.7-1c.4-.2.7-.4 1-.7l1.6 2.5c-.4.2-.7.5-1.1.7l-1.5-2.5zm1.7-1.1c.4-.2.7-.5 1.1-.7l1.7 2.5c-.4.2-.7.5-1.1.7l-1.7-2.5zm1.7-1.1c.3-.2.7-.5 1-.7l1.7 2.4c-.4.3-.7.5-1.1.8l-1.6-2.5zm1.6-1.2c.3-.2.7-.5 1-.8l1.8 2.4c-.4.3-.7.5-1.1.8l-1.7-2.4zm1.6-1.3c.3-.3.7-.5 1-.8l1.9 2.3c-.3.3-.7.6-1.1.8l-1.8-2.3zm1.6-1.2c.3-.3.6-.5 1-.8l1.9 2.3c-.3.3-.7.6-1 .9l-1.9-2.4zm1.6-1.3c.3-.3.6-.5.9-.8l2 2.2c-.3.3-.7.6-1 .9l-1.9-2.3zm1.5-1.4l.9-.9 2.1 2.1c-.3.3-.6.6-1 .9l-2-2.1zm1.4-1.3l.9-.9 2.1 2.1c-.3.3-.6.6-1 .9l-2-2.1zm1.5-1.5l.9-.9 2.2 2c-.3.3-.6.6-.9 1l-2.2-2.1zm-44.3 24.8l-.3-3c.4 0 .8-.1 1.2-.2l.4 3c-.4.1-.8.2-1.3.2zm2.1-.3l-.4-3c.4-.1.8-.1 1.2-.2l.5 2.9c-.4.2-.8.3-1.3.3zm2.1-.3l-.5-2.9c.4-.1.8-.1 1.2-.2l.5 2.9c-.3.1-.8.2-1.2.2zm2.1-.3l-.5-2.9 1.2-.3.6 2.9c-.4.1-.9.2-1.3.3zm2-.5l-.6-2.9 1.2-.3.7 2.9c-.4.1-.8.2-1.3.3zm2.6-3.7l.8 2.9c-.4.1-.9.2-1.3.4l-.7-2.9c.4-.2.8-.3 1.2-.4zm11.8 6.3l-.7.4c-1.4 1-3.1 1.6-4.7 1.8 0 0-.6-.9-.7-1-.4-.4-.9-.8-1.3-1.2-1.1-1-2.3-1.5-3.8-1.6h-1.1c1.3-.3 2.7-.7 4-1.1 1.4.1 5.1 1 6.2 1.3 1.6.2 3.1.3 4.8.2-1 .4-2 .8-2.7 1.2zm12.6-9.5c-.6.5-1.2 1.1-1.7 1.7-.5.7-.8 1.6-1.2 2.4-1.1 2-3.5 2.3-5.5 2.9-1 .3-2 .5-3 .5-.3 0-.5 0-.8-.1-.1 0-.7-.1-.7-.2-.1-.1.1-.2 0-.4-1.2-.4-2.4-.9-3.6-1.6 1.8-.7 3.6-1.4 5.3-2.2-.1.1-.1.2-.2.3 1.8 1.3 5.1 2 7.5-.2.6-.6.9-1.4 1.4-2.2 0 0 .1 0 0-.1-.9.1-1.6-.6-2.6-.7h-.4c.6-.3 1.1-.6 1.7-1 .9.2 1.9.4 2.9.2s1.8-.7 2.7-1.1c-.5.6-1.1 1.3-1.8 1.8zm2.6-2.8c-.7-.2-1.3-.7-2.1-.7l2.1-1.5c1 .7 2.4 0 3.4.6-.8.9-1.9 2.1-3.4 1.6zm7.2-4.6c-.8.7-1.6.9-2.5.5-.5-.2-1-.5-1.4-.6 1-.8 1.9-1.6 2.8-2.4.8 0 1.6-.1 2.4-.5.6-.4 1.1-.8 1.7-1.3.1 0 .2.1.3.1-1 1.4-2 3-3.3 4.2zm3-5.8c-.2.2-.4.3-.6.5-.3.1-.5.2-.8.2.6-.6 1.2-1.3 1.9-1.9h.1c-.3.4-.5.8-.6 1.2zm-.3-2.7l-2.2-2c.3-.3.6-.6.8-.9l2.2 2c-.2.2-.5.6-.8.9zm1.4-1.6l-2.2-2c.3-.3.5-.6.8-.9l2.3 1.9c-.3.4-.6.7-.9 1zm1.4-1.6l-2.3-1.9c.3-.3.5-.7.8-1l2.3 1.9c-.2.3-.5.7-.8 1zm1.3-1.6l-2.3-1.9c.3-.3.5-.7.8-1l2.4 1.8c-.3.4-.6.7-.9 1.1zm1.3-1.7l-2.4-1.8c.2-.3.5-.7.7-1l2.4 1.7c-.2.4-.4.8-.7 1.1zm1.2-1.7l-2.4-1.7c.2-.3.5-.7.7-1l2.5 1.7c-.3.3-.5.6-.8 1zm1.2-1.7l-2.5-1.7c.2-.3.5-.7.7-1.1l2.5 1.6c-.2.4-.5.8-.7 1.2zm1.1-1.8l-2.5-1.6c.2-.4.4-.7.7-1.1l2.6 1.5c-.3.5-.5.8-.8 1.2zm1.1-1.8l-2.6-1.5c.2-.4.4-.7.6-1.1l2.6 1.4c-.1.4-.4.8-.6 1.2zm-1.5-3.3c.2-.4.4-.7.6-1.1l2.6 1.4-.6 1.2-2.6-1.5zm4.5 5.7c-.5-.8-1.2-1.2-1.9-1.4.3-.6.7-1.1 1-1.7.4-.1.8-.2 1.1-.4.4-.3.7-.7 1.2-.8-.5 1.4-.7 3-1.4 4.3zm1.4-5.9c-.2-.1-.4-.2-.7-.4.4-.9.8-1.7 1.2-2.6 0 1 .1 2.3-.5 3zm.3-5.9l-2.8-1.1c.2-.4.3-.8.5-1.2l2.8 1.1c-.2.4-.3.8-.5 1.2zm.8-2l-2.8-1.1c.1-.4.3-.8.4-1.2l2.8 1c-.1.5-.3.9-.4 1.3zm.7-1.9l-2.8-1c.1-.4.3-.8.4-1.2l2.8.9c-.1.4-.3.9-.4 1.3zm.6-2l-2.8-.9c.1-.4.2-.8.4-1.2l2.9.8c-.2.4-.3.9-.5 1.3zm.6-2l-2.9-.8.3-1.2 2.9.8c0 .3-.1.7-.3 1.2zm.6-2.1l-2.9-.8.3-1.2 2.9.7c-.1.5-.2.9-.3 1.3zm.5-2l-2.9-.7.3-1.2 2.9.6c-.1.4-.2.9-.3 1.3zm.5-2.1l-2.9-.6c.1-.4.1-.8.2-1.2l2.9.5c-.1.5-.2.9-.2 1.3zm.3-2l-2.9-.5c.1-.4.2-.8.2-1.2l2.9.4c0 .4-.1.8-.2 1.3zm.4-2.1l-2.9-.4c.1-.4.1-.8.2-1.2l3 .4c-.2.3-.3.8-.3 1.2zm1.9 5.2c0-.1 0-.1 0 0 .1 0 .1.1.1.1 0-.1-.1-.1-.1-.1zm.3-2.5c-.1.4-.3.7-.4 1.1-.3.7-.7 1.4-1.1 2.1-.1.2-.3.5-.5.8l.6-2.7c.7-.5 1-1.5 1.5-2 0-.1-.1.6-.1.7zm1.2-14.9c.2.6.4 1.1.4 1.7l.2 1.7c0 .9-.1 1.9-.1 2.8 0 1.4 0 2.8-.8 4-.5.8-1.2 1.4-1.6 2.2.5-3.7.8-7.4.8-11.2 0-1.5 0-2.9-.1-4.4 0 .1.1.1.1.2.5.9.7 2 1.1 3zm5.7-2.5l-1.2-.3c-.5-.2-1.1-.3-1.5-.5.5-.1.9-.4 1.1-.6.5-.3.7-.7.7-.7.3.4.7.7 1.2.8-.3.3-.4.8-.3 1.3z"/><path d="M86.6 17.9c-1.8-.1-3.8.6-5 2.3-1.2 1.7-.3 4-1 5.6l1.8-.8c2.9-1.7 2.4-4.7 4.2-7.1zM91.9 18.1c-1.6 0-5.2.9-4.7 4.9 1.9-.3 5.7-1.1 4.7-4.9zM77.7 26.2c1.5-.1 1.4-2 1.3-3.1-.2-1.3-.7-3.8-2.2-4.2-.6-.1-.2.7-.2 1v.6c-.1.7-.5 1.4-.7 2.1-.3.8-.6 2.2-.2 3 .2.8 1.3.6 2 .6zM176.7 98.6c0-27.1-22.1-49.2-49.2-49.2S78.3 71.5 78.3 98.6s22.1 49.2 49.2 49.2c27.2 0 49.2-22.1 49.2-49.2zm-49.1 47.8c-26.4 0-47.8-21.4-47.8-47.8s21.4-47.8 47.8-47.8 47.8 21.4 47.8 47.8-21.5 47.8-47.8 47.8z"/><path d="M145.9 72.9c.5 0 .9.1 1 .2.2.2.3.4.3.7 0 .2-.1.5-.2.8-.1.3-.3.6-.4 1l-8 21.5h-.1l-7.9-22.6c-.1-.4-.2-.7-.2-.9 0-.5.3-.7.9-.7v-.7h-7.4v.7c.6 0 .9.2.9.7 0 .2-.1.5-.2.9l-7.9 22.6h-.1l-8-21.5c-.2-.4-.3-.7-.4-1-.1-.3-.2-.6-.2-.8 0-.3.1-.5.3-.7.2-.2.5-.2 1-.2v-.7h-7.8v.7c.6 0 1 .2 1.2.5.3.3.5.8.8 1.5l21.2 57.4c.1.4.2.7.2.9 0 .5-.3.7-.9.7v.7h7.4v-.7c-.6 0-.9-.2-.9-.7 0-.2.1-.5.2-.9l21.2-57.4c.2-.7.5-1.2.8-1.5.3-.3.7-.5 1.2-.5v-.7h-7.8v.7zm-18.5 55l-8.8-24.6 8.8-24.6 8.8 24.6-8.8 24.6zM72.2 85.8c.4-1.6-.2-2.7-1.6-3-.9-.2-1.7.2-2.1 1-.1-.6-.5-1.3-1.4-1.5-1.3-.3-2.2.5-2.6 2.1l-.5 2.4 7.6 1.7.6-2.7zm-4.4-.7l-.3 1.5-2.5-.5.3-1.5c.2-1 .7-1.5 1.6-1.3.9.1 1.2.8.9 1.8zm3.5.5l-.4 1.8-2.6-.6.4-1.8c.2-1 .9-1.5 1.7-1.3.8.2 1.2.9.9 1.9zM76.7 73l-.8-.4-1.6 3.6-2.4-1.1 1.4-3.2-.8-.4-1.4 3.3-2.3-1 1.6-3.6-.8-.4-2 4.5 7.1 3.2zM80.1 67.3l-1.4-2.1 1.9-2.6 2.4.7.6-.8-8.1-2.1-.6.8 4.5 7 .7-.9zm-3.9-5.9l3.4.9-1.5 2.1-1.9-3zM89.7 56.4c1.3-1.2 1.6-2.8.1-4.4l-3.1-3.5-.7.7 3.1 3.4c1.1 1.2 1 2.3.1 3.2-.9.8-2 .8-3.2-.4L82.9 52l-.7.7 3.1 3.5c1.4 1.4 3.1 1.4 4.4.2zM95.5 43.5l3.4 6 .9-.5-3.4-6 2.3-1.3-.4-.8-5.6 3.2.5.7zM105.108 38.005l.94-.34 2.66 7.332-.94.34zM116 42.9l-.6-3.3 3.5-.7-.2-.8-3.5.6-.5-2.6 3.7-.7-.1-.8-4.7.8 1.4 7.7zM128.7 41.9c1.8 0 3.1-1 3.1-3.1l.1-4.7h-1l-.1 4.6c0 1.7-.8 2.4-2.1 2.4s-2-.8-2-2.5l.1-4.6h-1l-.1 4.7c-.1 2.1 1.2 3.1 3 3.2zM143.1 42.9l-3.9-.9 1.6-6.7-1-.2-1.7 7.6 4.8 1.1zM161.3 50.1c.5-.7.4-1.7-.2-2.3.6.2 1.4 0 1.9-.8.7-1.1.3-2.3-1.1-3.1l-2.2-1.4-4.1 6.6 2.4 1.5c1.3.8 2.5.7 3.3-.5zm-1.3-6.4l1.3.8c.9.6 1.2 1.2.7 1.9s-1.2.8-2 .2l-1.3-.8 1.3-2.1zm-1.7 2.8l1.6 1c.9.6 1.1 1.3.7 2-.4.7-1.2.8-2.1.3l-1.6-1 1.4-2.3zM169.1 58.5l-2.8-2.8 1.8-1.9 2.6 2.5.6-.7-2.6-2.4 1.7-1.8 2.9 2.7.6-.7-3.6-3.4-5.4 5.7 3.6 3.4zM175.5 67.9l.7-.5-2.3-3.3 2.2-1.5 2.1 3 .7-.6-2.1-2.9 2-1.4 2.3 3.2.7-.5-2.8-4-6.4 4.5zM179 74.3l3-1.3.6 1.3-2.1 3.4.5 1 2.1-3.4c.6 1 1.6 1.4 2.8.9 1.3-.6 1.7-1.8 1-3.2l-1.2-2.6-7.1 3.1.4.8zm6.3-2.8l.8 1.7c.4.9.2 1.7-.6 2-.8.3-1.5 0-1.9-.9l-.8-1.7 2.5-1.1zM186.6 84.9l-.1 1.4c0 .9-.3 1.3-.9 1.5-.8.2-1.5-.4-1.7-1.4-.2-.9.1-1.7.8-2.2l-.2-1c-1.3.6-1.8 1.9-1.5 3.4.3 1.5 1.4 2.4 2.8 2.1 1.1-.2 1.6-1.1 1.6-2.3l.1-1.4c0-.8.3-1.3.9-1.5.8-.2 1.4.4 1.6 1.3.2 1-.2 1.7-.8 2.1l.2 1c1.1-.5 1.7-1.7 1.4-3.2-.3-1.4-1.4-2.3-2.7-2-1.1.2-1.5 1.1-1.5 2.2zM73.3 116.4c-.5-1.4-1.6-2.1-2.9-1.7-1.1.4-1.4 1.3-1.3 2.4l.1 1.4c.1.9-.2 1.4-.8 1.6-.8.3-1.5-.2-1.8-1.2-.3-.9-.1-1.7.6-2.3l-.3-1c-1.2.7-1.6 2-1.1 3.5s1.6 2.3 3 1.8c1-.3 1.5-1.2 1.4-2.5l-.1-1.4c-.1-.8.1-1.3.7-1.5.8-.3 1.4.2 1.7 1.1.3 1 0 1.7-.6 2.1l.3.9c1.1-.5 1.6-1.7 1.1-3.2zM73.051 133.903l6.43-4.237.55.835-6.43 4.237zM87.8 147.6l.7-7.1-.7-.6-5.1 5.8.8.6 4-4.6-.8 7.5.6.4 5-5.8-.7-.6zM105.4 151.2c-1.8-.8-3.8.1-4.7 2.3-.9 2.2-.2 4.3 1.6 5 1.5.6 2.8.2 3.7-1l-.9-.4c-.6.7-1.5 1-2.5.6-1.4-.6-1.8-2.1-1.1-3.8.7-1.7 2.1-2.5 3.5-1.9 1 .4 1.3 1.2 1.3 2.2l.9.4c.3-1.4-.3-2.7-1.8-3.4zM118.7 163l4.9.5.1-.9-4-.4.3-2.6 3.6.3v-.8l-3.5-.4.2-2.4 4 .4.1-.9-4.9-.5zM150.5 151l-1.6 2 .4.9 1.4-1.7 2.5 6.1.9-.4-3-7.1zM165.9 142.9c-1-.5-1.9-.3-2.7.3-1.2 1-1.3 2.5-.4 3.6s2.4 1.4 3.6.4c.7-.6 1-1.5.7-2.3 0 .1.2.2.2.3 1 1.3 1.2 2.8.3 3.5-.6.5-1.2.4-1.8 0l-.8.6c1 .7 2 .8 3.1 0 1.3-1 1.2-3-.4-5-.5-.5-1.1-1-1.8-1.4zm0 3.7c-.8.6-1.8.5-2.4-.3-.6-.8-.5-1.8.2-2.4.8-.6 1.8-.5 2.4.3.7.8.6 1.8-.2 2.4zM181 135.7c.9-1.2.8-2.7-.3-3.4-.8-.6-1.8-.4-2.5.1.2-.7 0-1.5-.7-2-1-.7-2.3-.3-3 .8-.7 1.1-.7 2.4.3 3.1.7.5 1.5.4 2.1 0-.3.8-.1 1.8.8 2.4 1.1.6 2.5.2 3.3-1zm-3.7-2.6c-.5.7-1.2.9-1.8.4-.6-.4-.7-1.2-.3-1.9.5-.7 1.2-.9 1.9-.4.5.4.6 1.2.2 1.9zm.6.4c.6-.8 1.5-1 2.2-.5.7.5.8 1.4.3 2.2-.6.8-1.5 1-2.2.5-.7-.5-.8-1.4-.3-2.2zM187.7 115.8c-1.4-.5-2.8.2-3.2 1.5-.2.6-.1 1.2 0 1.5l-2.2-.7 1.1-3.2-.8-.3-1.3 4 4 1.3.2-.7c-.2-.4-.4-.9-.2-1.5.3-.9 1.2-1.3 2.1-1 .9.3 1.4 1.1 1.1 2-.3.9-1 1.3-1.9 1.1l-.3.9c1.4.3 2.6-.4 3-1.8.5-1.3-.2-2.6-1.6-3.1zM184.9 101.6l3.4 3.3 3.4-3.3-3.4-3.3zM70.7 101.6l-3.4-3.3-3.4 3.3 3.4 3.3z"/></g></svg>